SplineFontDB: 3.0
FontName: esint10
FullName: esint10
FamilyName: esint10
Weight: Book
Copyright: Generated from MetaFont bitmap by mftrace 1.0.20, http://www.cs.uu.nl/~hanwen/mftrace/ 
Version: 001.001
ItalicAngle: 0
UnderlinePosition: -123
UnderlineWidth: 20
Ascent: 1638
Descent: 410
sfntRevision: 0x00010041
LayerCount: 2
Layer: 0 1 "Back"  1
Layer: 1 1 "Fore"  0
XUID: [1021 99 1815243471 10912655]
FSType: 0
OS2Version: 1
OS2_WeightWidthSlopeOnly: 0
OS2_UseTypoMetrics: 1
CreationTime: 1164926900
ModificationTime: 1421634188
PfmFamily: 17
TTFWeight: 400
TTFWidth: 5
LineGap: 184
VLineGap: 0
Panose: 2 0 5 3 0 0 0 0 0 0
OS2TypoAscent: 0
OS2TypoAOffset: 1
OS2TypoDescent: 0
OS2TypoDOffset: 1
OS2TypoLinegap: 0
OS2WinAscent: 0
OS2WinAOffset: 1
OS2WinDescent: 0
OS2WinDOffset: 1
HheadAscent: 0
HheadAOffset: 1
HheadDescent: 0
HheadDOffset: 1
OS2SubXSize: 1331
OS2SubYSize: 1433
OS2SubXOff: 0
OS2SubYOff: 983
OS2SupXSize: 1331
OS2SupYSize: 1433
OS2SupXOff: 0
OS2SupYOff: 0
OS2StrikeYSize: 102
OS2StrikeYPos: 530
OS2Vendor: 'PfEd'
OS2CodePages: 40000001.80d40000
OS2UnicodeRanges: 00000003.00000000.00000000.00000000
Lookup: 4 0 1 "'liga' Ligature standard in Latin lookup 0"  {"'liga' Ligature standard in Latin lookup 0 subtable"  } ['liga' ('latn' <'dflt' > ) ]
MarkAttachClasses: 1
DEI: 91125
ShortTable: cvt  23
  68
  1297
  47
  111
  201
  150
  70
  194
  157
  170
  153
  206
  215
  82
  84
  148
  87
  177
  138
  80
  45
  164
  172
EndShort
ShortTable: maxp 16
  1
  0
  260
  306
  26
  0
  0
  2
  0
  1
  1
  0
  64
  46
  0
  0
EndShort
LangName: 1033 "" "" "LyX" "FontForge 1.0 : esint10 : 26-1-2007" 
GaspTable: 1 65535 2 0
Encoding: UnicodeBmp
UnicodeInterp: none
NameList: Adobe Glyph List
DisplaySize: -48
AntiAlias: 1
FitToEm: 1
WinInfo: 0 16 10
BeginPrivate: 0
EndPrivate
TeXData: 1 0 0 0 0 0 0 -1048576 0 0 0 0 0 0 0 0 0 0 0 0 0 0 0 0
BeginChars: 65540 260

StartChar: .notdef
Encoding: 65536 -1 0
Width: 886
Flags: W
LayerCount: 2
Fore
SplineSet
68 0 m 1,0,-1
 68 1365 l 1,1,-1
 750 1365 l 1,2,-1
 750 0 l 1,3,-1
 68 0 l 1,0,-1
136 68 m 1,4,-1
 682 68 l 1,5,-1
 682 1297 l 1,6,-1
 136 1297 l 1,7,-1
 136 68 l 1,4,-1
EndSplineSet
EndChar

StartChar: int
Encoding: 1 1 4
Width: 966
GlyphClass: 2
Flags: W
LayerCount: 2
Fore
SplineSet
209 -435 m 1,0,1
 264 -478 264 -478 346 -478 c 1,2,3
 379 -477 379 -477 406 -462.5 c 128,-1,4
 433 -448 433 -448 451 -427.5 c 128,-1,5
 469 -407 469 -407 484 -371.5 c 128,-1,6
 499 -336 499 -336 507.5 -307.5 c 128,-1,7
 516 -279 516 -279 523 -234.5 c 128,-1,8
 530 -190 530 -190 532.5 -164.5 c 128,-1,9
 535 -139 535 -139 539 -97 c 0,10,11
 550 21 550 21 569.5 273 c 128,-1,12
 589 525 589 525 607.5 717.5 c 128,-1,13
 626 910 626 910 651 1086 c 0,14,15
 655 1115 655 1115 665 1195.5 c 128,-1,16
 675 1276 675 1276 682.5 1318 c 128,-1,17
 690 1360 690 1360 705 1424.5 c 128,-1,18
 720 1489 720 1489 744 1540 c 128,-1,19
 768 1591 768 1591 801 1635 c 0,20,21
 858 1713 858 1713 947 1740 c 128,-1,22
 1036 1767 1036 1767 1126 1734 c 0,23,24
 1197 1707 1197 1707 1227 1658 c 0,25,26
 1248 1624 1248 1624 1248.5 1584 c 128,-1,27
 1249 1544 1249 1544 1224.5 1516 c 128,-1,28
 1200 1488 1200 1488 1155 1492 c 0,29,30
 1107 1496 1107 1496 1086 1541 c 128,-1,31
 1065 1586 1065 1586 1092 1627 c 0,32,33
 1108 1653 1108 1653 1153 1664 c 1,34,35
 1094 1707 1094 1707 1018 1707 c 1,36,37
 985 1706 985 1706 958 1691 c 128,-1,38
 931 1676 931 1676 913 1655.5 c 128,-1,39
 895 1635 895 1635 880 1599.5 c 128,-1,40
 865 1564 865 1564 856.5 1535.5 c 128,-1,41
 848 1507 848 1507 841 1462.5 c 128,-1,42
 834 1418 834 1418 831.5 1393 c 128,-1,43
 829 1368 829 1368 825 1326 c 0,44,45
 813 1197 813 1197 794 953.5 c 128,-1,46
 775 710 775 710 756 513.5 c 128,-1,47
 737 317 737 317 713 142 c 1,48,49
 698 43 698 43 689 -46 c 128,-1,50
 680 -135 680 -135 649 -233.5 c 128,-1,51
 618 -332 618 -332 565 -402 c 1,52,53
 518 -467 518 -467 457 -497 c 0,54,55
 406 -522 406 -522 344 -524.5 c 128,-1,56
 282 -527 282 -527 224 -502.5 c 128,-1,57
 166 -478 166 -478 135 -429 c 0,58,59
 114 -396 114 -396 113.5 -356 c 128,-1,60
 113 -316 113 -316 137.5 -287.5 c 128,-1,61
 162 -259 162 -259 207 -263 c 0,62,63
 255 -267 255 -267 276 -312 c 128,-1,64
 297 -357 297 -357 270 -398 c 0,65,66
 254 -424 254 -424 209 -435 c 1,0,1
EndSplineSet
EndChar

StartChar: dispint
Encoding: 2 2 5
Width: 1138
GlyphClass: 2
Flags: W
LayerCount: 2
Fore
SplineSet
211 -1648 m 1,0,1
 227 -1666 227 -1666 262 -1681 c 1,2,3
 316 -1707 316 -1707 354 -1696 c 0,4,5
 384 -1688 384 -1688 416 -1648 c 0,6,7
 456 -1598 456 -1598 489 -1509 c 1,8,9
 537 -1392 537 -1392 600 -1128 c 1,10,11
 665 -845 665 -845 757 -309 c 128,-1,12
 849 227 849 227 881 391 c 0,13,14
 1029 1169 1029 1169 1235 1987 c 0,15,16
 1252 2053 1252 2053 1267 2115 c 128,-1,17
 1282 2177 1282 2177 1301.5 2243.5 c 128,-1,18
 1321 2310 1321 2310 1341.5 2370 c 128,-1,19
 1362 2430 1362 2430 1389.5 2493 c 128,-1,20
 1417 2556 1417 2556 1448 2611 c 0,21,22
 1547 2785 1547 2785 1671 2806 c 1,23,24
 1736 2815 1736 2815 1802.5 2790 c 128,-1,25
 1869 2765 1869 2765 1905 2712 c 0,26,27
 1926 2680 1926 2680 1932.5 2642.5 c 128,-1,28
 1939 2605 1939 2605 1924 2570 c 128,-1,29
 1909 2535 1909 2535 1870 2521 c 0,30,31
 1827 2505 1827 2505 1792 2523.5 c 128,-1,32
 1757 2542 1757 2542 1743 2575.5 c 128,-1,33
 1729 2609 1729 2609 1739.5 2647 c 128,-1,34
 1750 2685 1750 2685 1788 2704 c 1,35,36
 1811 2714 1811 2714 1835 2714 c 1,37,38
 1820 2729 1820 2729 1784 2747 c 1,39,40
 1729 2772 1729 2772 1692 2761 c 1,41,42
 1664 2754 1664 2754 1630 2714 c 1,43,44
 1591 2666 1591 2666 1556 2575 c 1,45,46
 1533 2518 1533 2518 1511 2444 c 128,-1,47
 1489 2370 1489 2370 1479 2329 c 128,-1,48
 1469 2288 1469 2288 1446 2194 c 1,49,50
 1381 1911 1381 1911 1289 1375 c 128,-1,51
 1197 839 1197 839 1165 674 c 0,52,53
 1016 -106 1016 -106 811 -921 c 0,54,55
 794 -987 794 -987 779 -1049 c 128,-1,56
 764 -1111 764 -1111 744.5 -1177.5 c 128,-1,57
 725 -1244 725 -1244 704.5 -1304.5 c 128,-1,58
 684 -1365 684 -1365 656.5 -1428 c 128,-1,59
 629 -1491 629 -1491 598 -1546 c 0,60,61
 500 -1718 500 -1718 375 -1741 c 1,62,63
 309 -1750 309 -1750 243 -1725 c 128,-1,64
 177 -1700 177 -1700 141 -1646 c 0,65,66
 121 -1615 121 -1615 114 -1577.5 c 128,-1,67
 107 -1540 107 -1540 122 -1505 c 128,-1,68
 137 -1470 137 -1470 176 -1456 c 0,69,70
 219 -1440 219 -1440 254 -1458.5 c 128,-1,71
 289 -1477 289 -1477 303 -1510.5 c 128,-1,72
 317 -1544 317 -1544 306.5 -1582 c 128,-1,73
 296 -1620 296 -1620 258 -1638 c 0,74,75
 235 -1648 235 -1648 211 -1648 c 1,0,1
EndSplineSet
EndChar

StartChar: iint
Encoding: 3 3 6
Width: 1650
GlyphClass: 2
Flags: W
LayerCount: 2
Fore
SplineSet
209 -437 m 1,0,1
 224 -445 224 -445 241.5 -453 c 128,-1,2
 259 -461 259 -461 275.5 -467.5 c 128,-1,3
 292 -474 292 -474 313 -477 c 128,-1,4
 334 -480 334 -480 356 -478 c 0,5,6
 383 -475 383 -475 406 -463.5 c 128,-1,7
 429 -452 429 -452 446 -432 c 128,-1,8
 463 -412 463 -412 475.5 -392 c 128,-1,9
 488 -372 488 -372 497.5 -341 c 128,-1,10
 507 -310 507 -310 513 -288 c 128,-1,11
 519 -266 519 -266 523.5 -230.5 c 128,-1,12
 528 -195 528 -195 530 -178 c 128,-1,13
 532 -161 532 -161 535 -128 c 1,14,15
 539 -102 539 -102 543 -46 c 0,16,17
 605 714 605 714 647 1054 c 1,18,19
 662 1158 662 1158 671.5 1251 c 128,-1,20
 681 1344 681 1344 712 1447 c 128,-1,21
 743 1550 743 1550 795 1625 c 0,22,23
 854 1711 854 1711 951.5 1740.5 c 128,-1,24
 1049 1770 1049 1770 1145 1725 c 0,25,26
 1204 1697 1204 1697 1227 1656 c 1,27,28
 1245 1627 1245 1627 1249 1594 c 128,-1,29
 1253 1561 1253 1561 1237 1532 c 128,-1,30
 1221 1503 1221 1503 1186 1494 c 0,31,32
 1176 1492 1176 1492 1153 1492 c 1,33,34
 1106 1498 1106 1498 1086 1542.5 c 128,-1,35
 1066 1587 1066 1587 1092 1627 c 0,36,37
 1108 1653 1108 1653 1153 1664 c 1,38,39
 1088 1715 1088 1715 1012 1707 c 1,40,41
 981 1705 981 1705 955 1689.5 c 128,-1,42
 929 1674 929 1674 911.5 1653 c 128,-1,43
 894 1632 894 1632 879.5 1597.5 c 128,-1,44
 865 1563 865 1563 857 1533.5 c 128,-1,45
 849 1504 849 1504 842 1461.5 c 128,-1,46
 835 1419 835 1419 832 1392.5 c 128,-1,47
 829 1366 829 1366 825 1326 c 0,48,49
 817 1234 817 1234 805 1059 c 128,-1,50
 793 884 793 884 786 804 c 0,51,52
 760 488 760 488 713 140 c 1,53,54
 697 40 697 40 687.5 -49.5 c 128,-1,55
 678 -139 678 -139 647 -238 c 128,-1,56
 616 -337 616 -337 563 -407 c 0,57,58
 515 -469 515 -469 457 -497 c 0,59,60
 405 -522 405 -522 341 -523.5 c 128,-1,61
 277 -525 277 -525 218.5 -499 c 128,-1,62
 160 -473 160 -473 133 -421 c 1,63,64
 117 -385 117 -385 117.5 -346.5 c 128,-1,65
 118 -308 118 -308 145.5 -282.5 c 128,-1,66
 173 -257 173 -257 217 -265 c 0,67,68
 249 -271 249 -271 268 -296 c 128,-1,69
 287 -321 287 -321 287 -349.5 c 128,-1,70
 287 -378 287 -378 267 -403.5 c 128,-1,71
 247 -429 247 -429 209 -435 c 1,72,-1
 209 -437 l 1,0,1
893 -435 m 1,73,74
 958 -486 958 -486 1034 -478 c 1,75,76
 1118 -473 1118 -473 1165 -376 c 0,77,78
 1183 -337 1183 -337 1195 -283.5 c 128,-1,79
 1207 -230 1207 -230 1210.5 -199.5 c 128,-1,80
 1214 -169 1214 -169 1221 -101 c 1,81,82
 1239 148 1239 148 1268.5 479.5 c 128,-1,83
 1298 811 1298 811 1331 1058 c 1,84,85
 1346 1161 1346 1161 1355 1254 c 128,-1,86
 1364 1347 1364 1347 1395 1450 c 128,-1,87
 1426 1553 1426 1553 1479 1627 c 1,88,89
 1546 1723 1546 1723 1664.5 1747.5 c 128,-1,90
 1783 1772 1783 1772 1878 1695 c 1,91,92
 1906 1670 1906 1670 1922 1630.5 c 128,-1,93
 1938 1591 1938 1591 1928.5 1551.5 c 128,-1,94
 1919 1512 1919 1512 1878 1498 c 1,95,96
 1824 1478 1824 1478 1784.5 1518.5 c 128,-1,97
 1745 1559 1745 1559 1767 1613 c 0,98,99
 1773 1628 1773 1628 1785.5 1639 c 128,-1,100
 1798 1650 1798 1650 1806 1653.5 c 128,-1,101
 1814 1657 1814 1657 1837 1666 c 1,102,103
 1813 1676 1813 1676 1793 1686.5 c 128,-1,104
 1773 1697 1773 1697 1745.5 1703.5 c 128,-1,105
 1718 1710 1718 1710 1690 1707 c 0,106,107
 1659 1703 1659 1703 1633.5 1687 c 128,-1,108
 1608 1671 1608 1671 1591 1651.5 c 128,-1,109
 1574 1632 1574 1632 1560 1598 c 128,-1,110
 1546 1564 1546 1564 1538.5 1539.5 c 128,-1,111
 1531 1515 1531 1515 1525 1473.5 c 128,-1,112
 1519 1432 1519 1432 1516.5 1412.5 c 128,-1,113
 1514 1393 1514 1393 1511 1355 c 0,114,115
 1510 1341 1510 1341 1507 1313.5 c 128,-1,116
 1504 1286 1504 1286 1503 1273 c 0,117,118
 1497 1197 1497 1197 1484.5 1020 c 128,-1,119
 1472 843 1472 843 1464 748 c 0,120,121
 1439 471 1439 471 1397 161 c 0,122,123
 1394 141 1394 141 1386 69.5 c 128,-1,124
 1378 -2 1378 -2 1374 -31.5 c 128,-1,125
 1370 -61 1370 -61 1358.5 -122.5 c 128,-1,126
 1347 -184 1347 -184 1335.5 -221 c 128,-1,127
 1324 -258 1324 -258 1303.5 -305 c 128,-1,128
 1283 -352 1283 -352 1257 -390 c 0,129,130
 1204 -468 1204 -468 1128 -503 c 1,131,132
 1075 -523 1075 -523 1018 -524.5 c 128,-1,133
 961 -526 961 -526 905 -500.5 c 128,-1,134
 849 -475 849 -475 819 -429 c 0,135,136
 801 -400 801 -400 797 -367 c 128,-1,137
 793 -334 793 -334 808.5 -304.5 c 128,-1,138
 824 -275 824 -275 860 -265 c 0,139,140
 870 -263 870 -263 893 -263 c 1,141,142
 940 -269 940 -269 960 -313.5 c 128,-1,143
 980 -358 980 -358 954 -398 c 0,144,145
 938 -424 938 -424 893 -435 c 1,73,74
EndSplineSet
EndChar

StartChar: dispiint
Encoding: 4 4 7
Width: 1878
GlyphClass: 2
Flags: W
LayerCount: 2
Fore
SplineSet
211 -1650 m 1,0,1
 241 -1668 241 -1668 255.5 -1676 c 128,-1,2
 270 -1684 270 -1684 297 -1692.5 c 128,-1,3
 324 -1701 324 -1701 348 -1698 c 1,4,5
 385 -1689 385 -1689 418 -1644 c 1,6,7
 460 -1592 460 -1592 506 -1468 c 1,8,9
 550 -1342 550 -1342 589.5 -1175 c 128,-1,10
 629 -1008 629 -1008 645 -924 c 128,-1,11
 661 -840 661 -840 700 -624 c 1,12,13
 729 -472 729 -472 783.5 -151 c 128,-1,14
 838 170 838 170 870 336 c 0,15,16
 1018 1122 1018 1122 1229 1966 c 0,17,18
 1265 2108 1265 2108 1285.5 2182.5 c 128,-1,19
 1306 2257 1306 2257 1346.5 2373 c 128,-1,20
 1387 2489 1387 2489 1432 2579 c 0,21,22
 1523 2765 1523 2765 1649 2800 c 1,23,24
 1714 2820 1714 2820 1786.5 2796.5 c 128,-1,25
 1859 2773 1859 2773 1898 2718 c 0,26,27
 1918 2690 1918 2690 1927 2654.5 c 128,-1,28
 1936 2619 1936 2619 1926.5 2583 c 128,-1,29
 1917 2547 1917 2547 1886 2529 c 0,30,31
 1852 2509 1852 2509 1816 2516.5 c 128,-1,32
 1780 2524 1780 2524 1759 2549.5 c 128,-1,33
 1738 2575 1738 2575 1732 2609 c 128,-1,34
 1726 2643 1726 2643 1753 2677 c 0,35,36
 1763 2690 1763 2690 1776.5 2698 c 128,-1,37
 1790 2706 1790 2706 1804 2709 c 128,-1,38
 1818 2712 1818 2712 1835 2716 c 1,39,40
 1812 2728 1812 2728 1792 2740.5 c 128,-1,41
 1772 2753 1772 2753 1746 2759.5 c 128,-1,42
 1720 2766 1720 2766 1696 2761 c 1,43,44
 1662 2757 1662 2757 1624 2706 c 1,45,46
 1574 2636 1574 2636 1534 2515 c 0,47,48
 1477 2346 1477 2346 1413 2034 c 1,49,50
 1363 1796 1363 1796 1286 1347.5 c 128,-1,51
 1209 899 1209 899 1176 729 c 0,52,53
 1027 -52 1027 -52 803 -952 c 1,54,55
 772 -1081 772 -1081 749.5 -1162 c 128,-1,56
 727 -1243 727 -1243 686 -1354 c 128,-1,57
 645 -1465 645 -1465 596 -1550 c 0,58,59
 498 -1718 498 -1718 377 -1741 c 1,60,61
 312 -1752 312 -1752 246 -1726 c 128,-1,62
 180 -1700 180 -1700 143 -1646 c 1,63,64
 123 -1615 123 -1615 116 -1577.5 c 128,-1,65
 109 -1540 109 -1540 124 -1505 c 128,-1,66
 139 -1470 139 -1470 178 -1456 c 0,67,68
 207 -1445 207 -1445 240 -1453 c 128,-1,69
 273 -1461 273 -1461 293 -1487 c 0,70,71
 331 -1534 331 -1534 304.5 -1591 c 128,-1,72
 278 -1648 278 -1648 211 -1648 c 1,73,-1
 211 -1650 l 1,0,1
950 -1650 m 1,74,75
 973 -1663 973 -1663 993 -1675.5 c 128,-1,76
 1013 -1688 1013 -1688 1039 -1694.5 c 128,-1,77
 1065 -1701 1065 -1701 1090 -1696 c 0,78,79
 1123 -1690 1123 -1690 1159 -1644 c 0,80,81
 1196 -1597 1196 -1597 1247 -1464 c 1,82,83
 1282 -1368 1282 -1368 1313.5 -1244.5 c 128,-1,84
 1345 -1121 1345 -1121 1360 -1050 c 128,-1,85
 1375 -979 1375 -979 1405.5 -813 c 128,-1,86
 1436 -647 1436 -647 1444 -608 c 0,87,88
 1474 -449 1474 -449 1533 -99 c 128,-1,89
 1592 251 1592 251 1628 434 c 0,90,91
 1724 919 1724 919 1968 1962 c 0,92,93
 2060 2358 2060 2358 2173 2583 c 0,94,95
 2263 2763 2263 2763 2390 2802 c 1,96,97
 2456 2819 2456 2819 2527.5 2795.5 c 128,-1,98
 2599 2772 2599 2772 2638 2718 c 0,99,100
 2658 2690 2658 2690 2667 2654.5 c 128,-1,101
 2676 2619 2676 2619 2666.5 2583 c 128,-1,102
 2657 2547 2657 2547 2626 2529 c 0,103,104
 2593 2509 2593 2509 2556.5 2516.5 c 128,-1,105
 2520 2524 2520 2524 2499 2549.5 c 128,-1,106
 2478 2575 2478 2575 2471.5 2609 c 128,-1,107
 2465 2643 2465 2643 2492 2677 c 0,108,109
 2513 2704 2513 2704 2574 2716 c 1,110,111
 2542 2735 2542 2735 2529.5 2742 c 128,-1,112
 2517 2749 2517 2749 2489 2757.5 c 128,-1,113
 2461 2766 2461 2766 2437 2763 c 1,114,115
 2403 2756 2403 2756 2363 2706 c 1,116,117
 2314 2639 2314 2639 2275 2517 c 1,118,119
 2229 2380 2229 2380 2188 2206 c 128,-1,120
 2147 2032 2147 2032 2126 1921.5 c 128,-1,121
 2105 1811 2105 1811 2068 1604 c 1,122,123
 1946 887 1946 887 1911 705 c 0,124,125
 1755 -105 1755 -105 1544 -950 c 0,126,127
 1509 -1090 1509 -1090 1489 -1163 c 128,-1,128
 1469 -1236 1469 -1236 1426.5 -1350.5 c 128,-1,129
 1384 -1465 1384 -1465 1335 -1550 c 0,130,131
 1237 -1718 1237 -1718 1116 -1741 c 1,132,133
 1051 -1752 1051 -1752 984 -1726 c 128,-1,134
 917 -1700 917 -1700 883 -1646 c 0,135,136
 863 -1615 863 -1615 856 -1577.5 c 128,-1,137
 849 -1540 849 -1540 864 -1505 c 128,-1,138
 879 -1470 879 -1470 918 -1456 c 0,139,140
 960 -1440 960 -1440 995.5 -1458.5 c 128,-1,141
 1031 -1477 1031 -1477 1044.5 -1510.5 c 128,-1,142
 1058 -1544 1058 -1544 1047.5 -1582 c 128,-1,143
 1037 -1620 1037 -1620 999 -1638 c 0,144,145
 979 -1648 979 -1648 950 -1648 c 1,146,-1
 950 -1650 l 1,74,75
EndSplineSet
EndChar

StartChar: iiint
Encoding: 5 5 8
Width: 2332
GlyphClass: 2
Flags: W
LayerCount: 2
Fore
SplineSet
209 -437 m 1,0,1
 210 -437 210 -437 221.5 -443.5 c 128,-1,2
 233 -450 233 -450 234.5 -451 c 128,-1,3
 236 -452 236 -452 247 -457 c 128,-1,4
 258 -462 258 -462 261 -463 c 128,-1,5
 264 -464 264 -464 274 -468 c 128,-1,6
 284 -472 284 -472 288.5 -473 c 128,-1,7
 293 -474 293 -474 302.5 -476 c 128,-1,8
 312 -478 312 -478 319 -478.5 c 128,-1,9
 326 -479 326 -479 335.5 -479 c 128,-1,10
 345 -479 345 -479 354 -478 c 0,11,12
 385 -475 385 -475 411 -459.5 c 128,-1,13
 437 -444 437 -444 454.5 -424.5 c 128,-1,14
 472 -405 472 -405 486 -371.5 c 128,-1,15
 500 -338 500 -338 507 -313.5 c 128,-1,16
 514 -289 514 -289 520.5 -248 c 128,-1,17
 527 -207 527 -207 529.5 -187.5 c 128,-1,18
 532 -168 532 -168 535 -130 c 0,19,20
 536 -116 536 -116 539 -90 c 128,-1,21
 542 -64 542 -64 543 -50 c 0,22,23
 551 42 551 42 563 217 c 128,-1,24
 575 392 575 392 582 472 c 0,25,26
 606 740 606 740 649 1062 c 0,27,28
 652 1088 652 1088 659.5 1154 c 128,-1,29
 667 1220 667 1220 671.5 1254 c 128,-1,30
 676 1288 676 1288 686.5 1347.5 c 128,-1,31
 697 1407 697 1407 709 1446.5 c 128,-1,32
 721 1486 721 1486 741.5 1533.5 c 128,-1,33
 762 1581 762 1581 788 1619 c 0,34,35
 846 1700 846 1700 922 1734 c 1,36,37
 974 1753 974 1753 1030.5 1753.5 c 128,-1,38
 1087 1754 1087 1754 1142.5 1728.5 c 128,-1,39
 1198 1703 1198 1703 1227 1658 c 0,40,41
 1245 1629 1245 1629 1249 1595.5 c 128,-1,42
 1253 1562 1253 1562 1237.5 1532.5 c 128,-1,43
 1222 1503 1222 1503 1186 1494 c 0,44,45
 1176 1492 1176 1492 1153 1492 c 1,46,47
 1106 1498 1106 1498 1086 1542.5 c 128,-1,48
 1066 1587 1066 1587 1092 1627 c 0,49,50
 1108 1653 1108 1653 1153 1664 c 1,51,52
 1094 1707 1094 1707 1018 1707 c 1,53,54
 992 1706 992 1706 969.5 1696.5 c 128,-1,55
 947 1687 947 1687 930.5 1674 c 128,-1,56
 914 1661 914 1661 899.5 1636.5 c 128,-1,57
 885 1612 885 1612 876 1593 c 128,-1,58
 867 1574 867 1574 858.5 1540 c 128,-1,59
 850 1506 850 1506 845.5 1486 c 128,-1,60
 841 1466 841 1466 836 1429 c 128,-1,61
 831 1392 831 1392 829.5 1376.5 c 128,-1,62
 828 1361 828 1361 825 1326 c 0,63,64
 817 1234 817 1234 805 1059 c 128,-1,65
 793 884 793 884 786 804 c 0,66,67
 766 569 766 569 717 177 c 0,68,69
 714 156 714 156 703.5 65 c 128,-1,70
 693 -26 693 -26 686.5 -64.5 c 128,-1,71
 680 -103 680 -103 664.5 -173.5 c 128,-1,72
 649 -244 649 -244 625.5 -296.5 c 128,-1,73
 602 -349 602 -349 569 -396 c 0,74,75
 502 -491 502 -491 388.5 -517 c 128,-1,76
 275 -543 275 -543 178 -474 c 1,77,78
 148 -451 148 -451 128.5 -411.5 c 128,-1,79
 109 -372 109 -372 115 -330.5 c 128,-1,80
 121 -289 121 -289 162 -271 c 0,81,82
 214 -248 214 -248 256.5 -285.5 c 128,-1,83
 299 -323 299 -323 281 -378 c 0,84,85
 277 -389 277 -389 271.5 -397 c 128,-1,86
 266 -405 266 -405 259.5 -410.5 c 128,-1,87
 253 -416 253 -416 245 -421 c 128,-1,88
 237 -426 237 -426 228 -429.5 c 128,-1,89
 219 -433 219 -433 209 -437 c 1,0,1
891 -437 m 1,90,91
 916 -448 916 -448 936 -458.5 c 128,-1,92
 956 -469 956 -469 983.5 -475 c 128,-1,93
 1011 -481 1011 -481 1040 -478 c 1,94,95
 1097 -470 1097 -470 1135 -423.5 c 128,-1,96
 1173 -377 1173 -377 1188 -313 c 128,-1,97
 1203 -249 1203 -249 1213.5 -175 c 128,-1,98
 1224 -101 1224 -101 1227 -38 c 1,99,100
 1234 36 1234 36 1244 196.5 c 128,-1,101
 1254 357 1254 357 1262 441 c 0,102,103
 1282 667 1282 667 1331 1060 c 1,104,105
 1345 1161 1345 1161 1354 1251 c 128,-1,106
 1363 1341 1363 1341 1392 1442 c 128,-1,107
 1421 1543 1421 1543 1470 1617 c 1,108,109
 1516 1689 1516 1689 1587 1725 c 0,110,111
 1654 1760 1654 1760 1743.5 1749.5 c 128,-1,112
 1833 1739 1833 1739 1888 1684 c 0,113,114
 1907 1665 1907 1665 1918.5 1637 c 128,-1,115
 1930 1609 1930 1609 1931.5 1581 c 128,-1,116
 1933 1553 1933 1553 1918 1529 c 128,-1,117
 1903 1505 1903 1505 1872 1496 c 0,118,119
 1818 1481 1818 1481 1782 1521.5 c 128,-1,120
 1746 1562 1746 1562 1767 1613 c 0,121,122
 1773 1628 1773 1628 1785.5 1639 c 128,-1,123
 1798 1650 1798 1650 1806 1653.5 c 128,-1,124
 1814 1657 1814 1657 1837 1666 c 1,125,126
 1810 1682 1810 1682 1769 1696.5 c 128,-1,127
 1728 1711 1728 1711 1688 1707 c 0,128,129
 1647 1702 1647 1702 1616 1675 c 128,-1,130
 1585 1648 1585 1648 1568 1615.5 c 128,-1,131
 1551 1583 1551 1583 1538 1530.5 c 128,-1,132
 1525 1478 1525 1478 1520.5 1443.5 c 128,-1,133
 1516 1409 1516 1409 1511 1355 c 0,134,135
 1510 1341 1510 1341 1507 1313.5 c 128,-1,136
 1504 1286 1504 1286 1503 1273 c 0,137,138
 1497 1197 1497 1197 1484.5 1020 c 128,-1,139
 1472 843 1472 843 1464 748 c 0,140,141
 1439 471 1439 471 1397 161 c 0,142,143
 1394 141 1394 141 1386 69.5 c 128,-1,144
 1378 -2 1378 -2 1374 -31.5 c 128,-1,145
 1370 -61 1370 -61 1358.5 -122.5 c 128,-1,146
 1347 -184 1347 -184 1335.5 -221 c 128,-1,147
 1324 -258 1324 -258 1303.5 -305 c 128,-1,148
 1283 -352 1283 -352 1257 -390 c 0,149,150
 1204 -468 1204 -468 1128 -503 c 1,151,152
 1090 -519 1090 -519 1044 -522.5 c 128,-1,153
 998 -526 998 -526 954 -516.5 c 128,-1,154
 910 -507 910 -507 871.5 -482 c 128,-1,155
 833 -457 833 -457 813 -419 c 0,156,157
 797 -390 797 -390 796.5 -356 c 128,-1,158
 796 -322 796 -322 815 -295 c 128,-1,159
 834 -268 834 -268 870 -263 c 1,160,161
 893 -263 893 -263 903 -265 c 0,162,163
 945 -276 945 -276 961.5 -314.5 c 128,-1,164
 978 -353 978 -353 958.5 -390 c 128,-1,165
 939 -427 939 -427 891 -435 c 1,166,-1
 891 -437 l 1,90,91
1575 -435 m 1,167,168
 1634 -478 1634 -478 1710 -478 c 1,169,170
 1737 -477 1737 -477 1759.5 -468 c 128,-1,171
 1782 -459 1782 -459 1799 -443 c 128,-1,172
 1816 -427 1816 -427 1830.5 -405.5 c 128,-1,173
 1845 -384 1845 -384 1854.5 -359.5 c 128,-1,174
 1864 -335 1864 -335 1872 -308 c 128,-1,175
 1880 -281 1880 -281 1884.5 -254 c 128,-1,176
 1889 -227 1889 -227 1893 -201 c 128,-1,177
 1897 -175 1897 -175 1898.5 -152 c 128,-1,178
 1900 -129 1900 -129 1903 -110 c 1,179,180
 1922 138 1922 138 1952 479 c 128,-1,181
 1982 820 1982 820 2015 1066 c 0,182,183
 2018 1089 2018 1089 2028 1176 c 128,-1,184
 2038 1263 2038 1263 2045 1301.5 c 128,-1,185
 2052 1340 2052 1340 2067 1408 c 128,-1,186
 2082 1476 2082 1476 2104.5 1527.5 c 128,-1,187
 2127 1579 2127 1579 2159 1625 c 0,188,189
 2226 1720 2226 1720 2339.5 1746 c 128,-1,190
 2453 1772 2453 1772 2550 1703 c 1,191,192
 2580 1680 2580 1680 2599.5 1640.5 c 128,-1,193
 2619 1601 2619 1601 2613 1559.5 c 128,-1,194
 2607 1518 2607 1518 2566 1500 c 0,195,196
 2514 1477 2514 1477 2471.5 1514.5 c 128,-1,197
 2429 1552 2429 1552 2447 1607 c 0,198,199
 2453 1624 2453 1624 2465.5 1636 c 128,-1,200
 2478 1648 2478 1648 2486.5 1652 c 128,-1,201
 2495 1656 2495 1656 2519 1666 c 1,202,203
 2518 1666 2518 1666 2506.5 1672.5 c 128,-1,204
 2495 1679 2495 1679 2493.5 1680 c 128,-1,205
 2492 1681 2492 1681 2481 1686 c 128,-1,206
 2470 1691 2470 1691 2467 1692 c 128,-1,207
 2464 1693 2464 1693 2454 1697 c 128,-1,208
 2444 1701 2444 1701 2439.5 1702 c 128,-1,209
 2435 1703 2435 1703 2425.5 1705 c 128,-1,210
 2416 1707 2416 1707 2409 1707.5 c 128,-1,211
 2402 1708 2402 1708 2392.5 1708 c 128,-1,212
 2383 1708 2383 1708 2374 1707 c 0,213,214
 2343 1704 2343 1704 2317.5 1688.5 c 128,-1,215
 2292 1673 2292 1673 2275 1654 c 128,-1,216
 2258 1635 2258 1635 2244 1602.5 c 128,-1,217
 2230 1570 2230 1570 2222.5 1545.5 c 128,-1,218
 2215 1521 2215 1521 2209 1480.5 c 128,-1,219
 2203 1440 2203 1440 2200.5 1420 c 128,-1,220
 2198 1400 2198 1400 2195 1363 c 1,221,222
 2191 1335 2191 1335 2187 1283 c 0,223,224
 2126 524 2126 524 2081 169 c 1,225,226
 2066 66 2066 66 2057 -25.5 c 128,-1,227
 2048 -117 2048 -117 2018 -218.5 c 128,-1,228
 1988 -320 1988 -320 1937 -394 c 0,229,230
 1880 -478 1880 -478 1789 -509 c 128,-1,231
 1698 -540 1698 -540 1602 -505 c 0,232,233
 1533 -480 1533 -480 1501 -429 c 0,234,235
 1483 -400 1483 -400 1479 -367 c 128,-1,236
 1475 -334 1475 -334 1490.5 -304.5 c 128,-1,237
 1506 -275 1506 -275 1542 -265 c 0,238,239
 1552 -263 1552 -263 1575 -263 c 1,240,241
 1622 -269 1622 -269 1642 -313.5 c 128,-1,242
 1662 -358 1662 -358 1636 -398 c 0,243,244
 1620 -424 1620 -424 1575 -435 c 1,167,168
EndSplineSet
EndChar

StartChar: dispiiint
Encoding: 6 6 9
Width: 2617
GlyphClass: 2
Flags: W
LayerCount: 2
Fore
SplineSet
211 -1648 m 1,0,1
 238 -1673 238 -1673 264 -1681 c 1,2,3
 317 -1707 317 -1707 354 -1696 c 0,4,5
 384 -1688 384 -1688 416 -1648 c 1,6,7
 451 -1602 451 -1602 492 -1507 c 1,8,9
 539 -1388 539 -1388 577 -1239 c 128,-1,10
 615 -1090 615 -1090 637.5 -961.5 c 128,-1,11
 660 -833 660 -833 690 -684 c 1,12,13
 724 -509 724 -509 781.5 -169 c 128,-1,14
 839 171 839 171 870 336 c 0,15,16
 1023 1142 1023 1142 1227 1954 c 0,17,18
 1263 2098 1263 2098 1283.5 2174.5 c 128,-1,19
 1304 2251 1304 2251 1345 2369 c 128,-1,20
 1386 2487 1386 2487 1432 2579 c 0,21,22
 1523 2764 1523 2764 1651 2802 c 1,23,24
 1717 2819 1717 2819 1788 2795.5 c 128,-1,25
 1859 2772 1859 2772 1898 2718 c 0,26,27
 1918 2690 1918 2690 1926.5 2655 c 128,-1,28
 1935 2620 1935 2620 1926 2584 c 128,-1,29
 1917 2548 1917 2548 1886 2529 c 0,30,31
 1852 2509 1852 2509 1816 2516.5 c 128,-1,32
 1780 2524 1780 2524 1759 2549.5 c 128,-1,33
 1738 2575 1738 2575 1732 2609 c 128,-1,34
 1726 2643 1726 2643 1753 2677 c 0,35,36
 1763 2690 1763 2690 1776.5 2698 c 128,-1,37
 1790 2706 1790 2706 1804 2709 c 128,-1,38
 1818 2712 1818 2712 1835 2716 c 1,39,40
 1812 2729 1812 2729 1792.5 2740.5 c 128,-1,41
 1773 2752 1773 2752 1747.5 2759 c 128,-1,42
 1722 2766 1722 2766 1698 2763 c 1,43,44
 1661 2756 1661 2756 1624 2706 c 0,45,46
 1573 2637 1573 2637 1532 2511 c 0,47,48
 1517 2466 1517 2466 1502.5 2417 c 128,-1,49
 1488 2368 1488 2368 1476.5 2322 c 128,-1,50
 1465 2276 1465 2276 1453.5 2226 c 128,-1,51
 1442 2176 1442 2176 1432 2129.5 c 128,-1,52
 1422 2083 1422 2083 1411 2032 c 0,53,54
 1347 1712 1347 1712 1327 1591 c 0,55,56
 1207 892 1207 892 1176 729 c 0,57,58
 1027 -52 1027 -52 803 -952 c 1,59,60
 772 -1081 772 -1081 749.5 -1162 c 128,-1,61
 727 -1243 727 -1243 686 -1354 c 128,-1,62
 645 -1465 645 -1465 596 -1550 c 0,63,64
 498 -1718 498 -1718 377 -1741 c 1,65,66
 311 -1752 311 -1752 244 -1725 c 128,-1,67
 177 -1698 177 -1698 141 -1644 c 1,68,69
 122 -1613 122 -1613 116 -1576 c 128,-1,70
 110 -1539 110 -1539 124.5 -1504.5 c 128,-1,71
 139 -1470 139 -1470 176 -1456 c 0,72,73
 205 -1445 205 -1445 237 -1452.5 c 128,-1,74
 269 -1460 269 -1460 289 -1483 c 1,75,76
 313 -1516 313 -1516 314 -1553 c 128,-1,77
 315 -1590 315 -1590 286.5 -1619 c 128,-1,78
 258 -1648 258 -1648 211 -1648 c 1,0,1
950 -1650 m 1,79,80
 973 -1663 973 -1663 993 -1675.5 c 128,-1,81
 1013 -1688 1013 -1688 1039 -1694.5 c 128,-1,82
 1065 -1701 1065 -1701 1090 -1696 c 0,83,84
 1123 -1690 1123 -1690 1159 -1644 c 0,85,86
 1203 -1587 1203 -1587 1245 -1468 c 1,87,88
 1290 -1345 1290 -1345 1348 -1087 c 0,89,90
 1411 -810 1411 -810 1503.5 -275.5 c 128,-1,91
 1596 259 1596 259 1616 367 c 0,92,93
 1750 1086 1750 1086 1968 1964 c 0,94,95
 2006 2114 2006 2114 2024.5 2183 c 128,-1,96
 2043 2252 2043 2252 2084 2370.5 c 128,-1,97
 2125 2489 2125 2489 2171 2579 c 1,98,99
 2262 2765 2262 2765 2388 2800 c 1,100,101
 2453 2820 2453 2820 2526 2796.5 c 128,-1,102
 2599 2773 2599 2773 2638 2718 c 0,103,104
 2658 2690 2658 2690 2667 2654.5 c 128,-1,105
 2676 2619 2676 2619 2666.5 2583 c 128,-1,106
 2657 2547 2657 2547 2626 2529 c 0,107,108
 2593 2509 2593 2509 2556.5 2516.5 c 128,-1,109
 2520 2524 2520 2524 2499 2549.5 c 128,-1,110
 2478 2575 2478 2575 2471.5 2609 c 128,-1,111
 2465 2643 2465 2643 2492 2677 c 0,112,113
 2513 2704 2513 2704 2574 2716 c 1,114,115
 2551 2728 2551 2728 2531 2740.5 c 128,-1,116
 2511 2753 2511 2753 2485 2759.5 c 128,-1,117
 2459 2766 2459 2766 2435 2761 c 1,118,119
 2403 2757 2403 2757 2363 2706 c 1,120,121
 2314 2639 2314 2639 2275 2517 c 1,122,123
 2229 2380 2229 2380 2188 2206 c 128,-1,124
 2147 2032 2147 2032 2126 1921.5 c 128,-1,125
 2105 1811 2105 1811 2068 1604 c 0,126,127
 2054 1523 2054 1523 2018 1310 c 128,-1,128
 1982 1097 1982 1097 1955 945.5 c 128,-1,129
 1928 794 1928 794 1901 651 c 0,130,131
 1766 -53 1766 -53 1544 -950 c 0,132,133
 1509 -1090 1509 -1090 1489 -1163 c 128,-1,134
 1469 -1236 1469 -1236 1426.5 -1350.5 c 128,-1,135
 1384 -1465 1384 -1465 1335 -1550 c 0,136,137
 1237 -1718 1237 -1718 1116 -1741 c 1,138,139
 1051 -1752 1051 -1752 985 -1726 c 128,-1,140
 919 -1700 919 -1700 883 -1646 c 0,141,142
 863 -1615 863 -1615 856 -1577.5 c 128,-1,143
 849 -1540 849 -1540 864 -1505 c 128,-1,144
 879 -1470 879 -1470 918 -1456 c 0,145,146
 946 -1445 946 -1445 979.5 -1453.5 c 128,-1,147
 1013 -1462 1013 -1462 1032 -1487 c 0,148,149
 1070 -1534 1070 -1534 1043.5 -1591 c 128,-1,150
 1017 -1648 1017 -1648 950 -1648 c 1,151,-1
 950 -1650 l 1,79,80
1690 -1650 m 1,152,153
 1705 -1659 1705 -1659 1722 -1668.5 c 128,-1,154
 1739 -1678 1739 -1678 1754.5 -1685.5 c 128,-1,155
 1770 -1693 1770 -1693 1789 -1696.5 c 128,-1,156
 1808 -1700 1808 -1700 1827 -1698 c 1,157,158
 1863 -1690 1863 -1690 1903 -1638 c 1,159,160
 1948 -1573 1948 -1573 1993 -1442 c 1,161,162
 2039 -1304 2039 -1304 2078.5 -1136.5 c 128,-1,163
 2118 -969 2118 -969 2144 -824.5 c 128,-1,164
 2170 -680 2170 -680 2202 -512 c 0,165,166
 2218 -425 2218 -425 2268.5 -121.5 c 128,-1,167
 2319 182 2319 182 2351 346 c 0,168,169
 2509 1159 2509 1159 2722 2022 c 0,170,171
 2756 2157 2756 2157 2777 2232 c 128,-1,172
 2798 2307 2798 2307 2840 2418.5 c 128,-1,173
 2882 2530 2882 2530 2931 2615 c 1,174,175
 3026 2784 3026 2784 3148 2806 c 0,176,177
 3214 2817 3214 2817 3279.5 2791.5 c 128,-1,178
 3345 2766 3345 2766 3381 2712 c 0,179,180
 3401 2681 3401 2681 3408 2643 c 128,-1,181
 3415 2605 3415 2605 3400.5 2570 c 128,-1,182
 3386 2535 3386 2535 3348 2521 c 0,183,184
 3320 2510 3320 2510 3287.5 2517.5 c 128,-1,185
 3255 2525 3255 2525 3236 2548 c 1,186,187
 3212 2581 3212 2581 3210.5 2618 c 128,-1,188
 3209 2655 3209 2655 3238 2684.5 c 128,-1,189
 3267 2714 3267 2714 3314 2714 c 1,190,191
 3283 2739 3283 2739 3260 2747 c 1,192,193
 3207 2771 3207 2771 3170 2761 c 0,194,195
 3141 2754 3141 2754 3107 2712 c 1,196,197
 3064 2654 3064 2654 3029 2560 c 0,198,199
 2992 2461 2992 2461 2960.5 2347 c 128,-1,200
 2929 2233 2929 2233 2907.5 2128.5 c 128,-1,201
 2886 2024 2886 2024 2864 1907.5 c 128,-1,202
 2842 1791 2842 1791 2824 1688 c 1,203,204
 2794 1528 2794 1528 2736.5 1191.5 c 128,-1,205
 2679 855 2679 855 2646 682 c 0,206,207
 2495 -107 2495 -107 2286 -938 c 0,208,209
 2250 -1083 2250 -1083 2230 -1155.5 c 128,-1,210
 2210 -1228 2210 -1228 2167 -1345 c 128,-1,211
 2124 -1462 2124 -1462 2075 -1548 c 0,212,213
 1974 -1725 1974 -1725 1843 -1741 c 0,214,215
 1779 -1749 1779 -1749 1715 -1721.5 c 128,-1,216
 1651 -1694 1651 -1694 1620 -1642 c 0,217,218
 1600 -1610 1600 -1610 1594.5 -1573 c 128,-1,219
 1589 -1536 1589 -1536 1604.5 -1502.5 c 128,-1,220
 1620 -1469 1620 -1469 1659 -1456 c 0,221,222
 1695 -1445 1695 -1445 1724.5 -1453 c 128,-1,223
 1754 -1461 1754 -1461 1770 -1486.5 c 128,-1,224
 1786 -1512 1786 -1512 1791 -1540 c 128,-1,225
 1796 -1568 1796 -1568 1782.5 -1596 c 128,-1,226
 1769 -1624 1769 -1624 1739 -1638 c 0,227,228
 1718 -1648 1718 -1648 1690 -1648 c 1,229,-1
 1690 -1650 l 1,152,153
EndSplineSet
EndChar

StartChar: iiiint
Encoding: 7 7 10
Width: 3014
GlyphClass: 2
Flags: W
LayerCount: 2
Fore
SplineSet
211 -435 m 1,0,1
 263 -478 263 -478 344 -478 c 1,2,3
 377 -477 377 -477 404 -462 c 128,-1,4
 431 -447 431 -447 449 -426.5 c 128,-1,5
 467 -406 467 -406 482 -370.5 c 128,-1,6
 497 -335 497 -335 505.5 -307 c 128,-1,7
 514 -279 514 -279 521 -234 c 128,-1,8
 528 -189 528 -189 530.5 -164 c 128,-1,9
 533 -139 533 -139 537 -97 c 0,10,11
 544 -11 544 -11 557.5 180 c 128,-1,12
 571 371 571 371 580 472 c 0,13,14
 595 635 595 635 647 1064 c 1,15,16
 653 1132 653 1132 663.5 1210.5 c 128,-1,17
 674 1289 674 1289 687 1359.5 c 128,-1,18
 700 1430 700 1430 728.5 1503 c 128,-1,19
 757 1576 757 1576 799 1633 c 0,20,21
 860 1715 860 1715 955 1741.5 c 128,-1,22
 1050 1768 1050 1768 1143 1725 c 0,23,24
 1198 1699 1198 1699 1225 1658 c 1,25,26
 1246 1624 1246 1624 1246.5 1584 c 128,-1,27
 1247 1544 1247 1544 1222.5 1516 c 128,-1,28
 1198 1488 1198 1488 1153 1492 c 0,29,30
 1104 1496 1104 1496 1083.5 1541 c 128,-1,31
 1063 1586 1063 1586 1090 1627 c 0,32,33
 1106 1653 1106 1653 1151 1664 c 1,34,35
 1099 1707 1099 1707 1018 1707 c 1,36,37
 985 1706 985 1706 957.5 1691.5 c 128,-1,38
 930 1677 930 1677 911.5 1656.5 c 128,-1,39
 893 1636 893 1636 878 1601 c 128,-1,40
 863 1566 863 1566 854.5 1537.5 c 128,-1,41
 846 1509 846 1509 839 1464.5 c 128,-1,42
 832 1420 832 1420 829.5 1394 c 128,-1,43
 827 1368 827 1368 823 1326 c 0,44,45
 815 1234 815 1234 803 1059 c 128,-1,46
 791 884 791 884 784 804 c 0,47,48
 758 486 758 486 711 142 c 0,49,50
 707 113 707 113 697 33 c 128,-1,51
 687 -47 687 -47 679.5 -89 c 128,-1,52
 672 -131 672 -131 657 -195.5 c 128,-1,53
 642 -260 642 -260 618 -311 c 128,-1,54
 594 -362 594 -362 561 -407 c 0,55,56
 500 -488 500 -488 406 -514 c 128,-1,57
 312 -540 312 -540 219 -497 c 1,58,59
 164 -469 164 -469 137 -429 c 1,60,61
 116 -396 116 -396 115.5 -356 c 128,-1,62
 115 -316 115 -316 139.5 -287.5 c 128,-1,63
 164 -259 164 -259 209 -263 c 0,64,65
 257 -267 257 -267 278 -312 c 128,-1,66
 299 -357 299 -357 272 -398 c 0,67,68
 256 -424 256 -424 211 -435 c 1,0,1
893 -437 m 1,69,70
 977 -484 977 -484 1036 -478 c 0,71,72
 1067 -475 1067 -475 1092.5 -460 c 128,-1,73
 1118 -445 1118 -445 1135 -425.5 c 128,-1,74
 1152 -406 1152 -406 1166 -374 c 128,-1,75
 1180 -342 1180 -342 1187 -317 c 128,-1,76
 1194 -292 1194 -292 1200.5 -252.5 c 128,-1,77
 1207 -213 1207 -213 1209 -192 c 128,-1,78
 1211 -171 1211 -171 1214 -136 c 1,79,80
 1223 -62 1223 -62 1223 -56 c 0,81,82
 1232 42 1232 42 1244.5 224.5 c 128,-1,83
 1257 407 1257 407 1264 488 c 0,84,85
 1278 652 1278 652 1329 1060 c 1,86,87
 1343 1161 1343 1161 1352 1251.5 c 128,-1,88
 1361 1342 1361 1342 1390.5 1443.5 c 128,-1,89
 1420 1545 1420 1545 1470 1619 c 0,90,91
 1517 1687 1517 1687 1569 1715 c 1,92,93
 1638 1756 1638 1756 1730 1750.5 c 128,-1,94
 1822 1745 1822 1745 1882 1689 c 0,95,96
 1909 1663 1909 1663 1922.5 1623.5 c 128,-1,97
 1936 1584 1936 1584 1924.5 1546.5 c 128,-1,98
 1913 1509 1913 1509 1872 1496 c 0,99,100
 1818 1479 1818 1479 1781 1519.5 c 128,-1,101
 1744 1560 1744 1560 1765 1613 c 0,102,103
 1771 1628 1771 1628 1783.5 1639 c 128,-1,104
 1796 1650 1796 1650 1804 1653.5 c 128,-1,105
 1812 1657 1812 1657 1835 1666 c 1,106,107
 1811 1676 1811 1676 1790.5 1687.5 c 128,-1,108
 1770 1699 1770 1699 1742 1704.5 c 128,-1,109
 1714 1710 1714 1710 1686 1705 c 1,110,111
 1655 1701 1655 1701 1630 1685 c 128,-1,112
 1605 1669 1605 1669 1588 1649.5 c 128,-1,113
 1571 1630 1571 1630 1557.5 1596.5 c 128,-1,114
 1544 1563 1544 1563 1536.5 1538.5 c 128,-1,115
 1529 1514 1529 1514 1523 1473 c 128,-1,116
 1517 1432 1517 1432 1514.5 1412.5 c 128,-1,117
 1512 1393 1512 1393 1509 1355 c 0,118,119
 1508 1341 1508 1341 1505 1313.5 c 128,-1,120
 1502 1286 1502 1286 1501 1273 c 0,121,122
 1495 1199 1495 1199 1484.5 1039.5 c 128,-1,123
 1474 880 1474 880 1466 796 c 0,124,125
 1443 522 1443 522 1395 163 c 0,126,127
 1381 64 1381 64 1373 -24.5 c 128,-1,128
 1365 -113 1365 -113 1336.5 -212 c 128,-1,129
 1308 -311 1308 -311 1260 -384 c 1,130,131
 1210 -458 1210 -458 1151 -491 c 1,132,133
 1086 -529 1086 -529 998.5 -523.5 c 128,-1,134
 911 -518 911 -518 854 -468 c 0,135,136
 826 -443 826 -443 809 -403.5 c 128,-1,137
 792 -364 792 -364 800.5 -324 c 128,-1,138
 809 -284 809 -284 852 -269 c 0,139,140
 904 -251 904 -251 943 -288 c 128,-1,141
 982 -325 982 -325 965 -378 c 0,142,143
 961 -389 961 -389 955.5 -397 c 128,-1,144
 950 -405 950 -405 943.5 -410.5 c 128,-1,145
 937 -416 937 -416 929 -421 c 128,-1,146
 921 -426 921 -426 912 -429.5 c 128,-1,147
 903 -433 903 -433 893 -437 c 1,69,70
1575 -437 m 1,148,149
 1581 -440 1581 -440 1593 -446.5 c 128,-1,150
 1605 -453 1605 -453 1613 -456.5 c 128,-1,151
 1621 -460 1621 -460 1632.5 -465 c 128,-1,152
 1644 -470 1644 -470 1653.5 -472.5 c 128,-1,153
 1663 -475 1663 -475 1675 -477.5 c 128,-1,154
 1687 -480 1687 -480 1699 -479.5 c 128,-1,155
 1711 -479 1711 -479 1724 -476 c 1,156,157
 1746 -474 1746 -474 1765.5 -464 c 128,-1,158
 1785 -454 1785 -454 1799.5 -443 c 128,-1,159
 1814 -432 1814 -432 1827 -409 c 128,-1,160
 1840 -386 1840 -386 1848 -370.5 c 128,-1,161
 1856 -355 1856 -355 1864.5 -323 c 128,-1,162
 1873 -291 1873 -291 1876.5 -276 c 128,-1,163
 1880 -261 1880 -261 1885.5 -223.5 c 128,-1,164
 1891 -186 1891 -186 1892.5 -175.5 c 128,-1,165
 1894 -165 1894 -165 1898 -128 c 0,166,167
 1899 -122 1899 -122 1902.5 -91.5 c 128,-1,168
 1906 -61 1906 -61 1907 -44 c 0,169,170
 1915 42 1915 42 1925.5 202 c 128,-1,171
 1936 362 1936 362 1942 433 c 0,172,173
 1965 707 1965 707 2013 1066 c 0,174,175
 2027 1166 2027 1166 2035.5 1254 c 128,-1,176
 2044 1342 2044 1342 2072.5 1441 c 128,-1,177
 2101 1540 2101 1540 2148 1613 c 1,178,179
 2198 1688 2198 1688 2257 1719 c 1,180,181
 2321 1757 2321 1757 2409.5 1752 c 128,-1,182
 2498 1747 2498 1747 2556 1697 c 0,183,184
 2584 1672 2584 1672 2601 1632.5 c 128,-1,185
 2618 1593 2618 1593 2609.5 1553 c 128,-1,186
 2601 1513 2601 1513 2558 1498 c 0,187,188
 2506 1479 2506 1479 2467 1516.5 c 128,-1,189
 2428 1554 2428 1554 2445 1607 c 0,190,191
 2451 1624 2451 1624 2463.5 1636 c 128,-1,192
 2476 1648 2476 1648 2484.5 1652 c 128,-1,193
 2493 1656 2493 1656 2517 1666 c 1,194,195
 2433 1713 2433 1713 2374 1707 c 0,196,197
 2343 1704 2343 1704 2318 1689 c 128,-1,198
 2293 1674 2293 1674 2275.5 1654.5 c 128,-1,199
 2258 1635 2258 1635 2244 1603.5 c 128,-1,200
 2230 1572 2230 1572 2222 1546 c 128,-1,201
 2214 1520 2214 1520 2207.5 1482 c 128,-1,202
 2201 1444 2201 1444 2198.5 1421.5 c 128,-1,203
 2196 1399 2196 1399 2193 1365 c 0,204,205
 2192 1352 2192 1352 2189 1325 c 128,-1,206
 2186 1298 2186 1298 2185 1285 c 0,207,208
 2176 1186 2176 1186 2163.5 1003 c 128,-1,209
 2151 820 2151 820 2144 740 c 0,210,211
 2130 571 2130 571 2079 169 c 1,212,213
 2064 65 2064 65 2055 -27.5 c 128,-1,214
 2046 -120 2046 -120 2015 -222.5 c 128,-1,215
 1984 -325 1984 -325 1931 -400 c 0,216,217
 1876 -479 1876 -479 1788.5 -508.5 c 128,-1,218
 1701 -538 1701 -538 1610 -507 c 1,219,220
 1533 -483 1533 -483 1497 -421 c 0,221,222
 1481 -392 1481 -392 1480 -358 c 128,-1,223
 1479 -324 1479 -324 1497.5 -297 c 128,-1,224
 1516 -270 1516 -270 1552 -265 c 1,225,226
 1590 -257 1590 -257 1618 -280 c 128,-1,227
 1646 -303 1646 -303 1650 -335.5 c 128,-1,228
 1654 -368 1654 -368 1638 -398 c 0,229,230
 1629 -413 1629 -413 1606 -425 c 128,-1,231
 1583 -437 1583 -437 1575 -437 c 1,148,149
2259 -435 m 1,232,233
 2311 -478 2311 -478 2392 -478 c 1,234,235
 2425 -477 2425 -477 2452 -462 c 128,-1,236
 2479 -447 2479 -447 2497 -426.5 c 128,-1,237
 2515 -406 2515 -406 2530 -370.5 c 128,-1,238
 2545 -335 2545 -335 2553.5 -307 c 128,-1,239
 2562 -279 2562 -279 2569 -234 c 128,-1,240
 2576 -189 2576 -189 2578.5 -164 c 128,-1,241
 2581 -139 2581 -139 2585 -97 c 0,242,243
 2594 0 2594 0 2605.5 177.5 c 128,-1,244
 2617 355 2617 355 2623 425 c 0,245,246
 2653 769 2653 769 2697 1076 c 0,247,248
 2712 1178 2712 1178 2721 1269 c 128,-1,249
 2730 1360 2730 1360 2761.5 1460.5 c 128,-1,250
 2793 1561 2793 1561 2847 1633 c 0,251,252
 2908 1715 2908 1715 3003 1741.5 c 128,-1,253
 3098 1768 3098 1768 3191 1725 c 0,254,255
 3246 1699 3246 1699 3273 1658 c 1,256,257
 3294 1624 3294 1624 3294.5 1584 c 128,-1,258
 3295 1544 3295 1544 3270.5 1516 c 128,-1,259
 3246 1488 3246 1488 3201 1492 c 0,260,261
 3152 1496 3152 1496 3131.5 1541 c 128,-1,262
 3111 1586 3111 1586 3138 1627 c 0,263,264
 3154 1653 3154 1653 3199 1664 c 1,265,266
 3147 1707 3147 1707 3066 1707 c 1,267,268
 3033 1706 3033 1706 3005.5 1691.5 c 128,-1,269
 2978 1677 2978 1677 2959.5 1656.5 c 128,-1,270
 2941 1636 2941 1636 2926 1601 c 128,-1,271
 2911 1566 2911 1566 2902.5 1537.5 c 128,-1,272
 2894 1509 2894 1509 2887 1464.5 c 128,-1,273
 2880 1420 2880 1420 2877.5 1394 c 128,-1,274
 2875 1368 2875 1368 2871 1326 c 0,275,276
 2864 1241 2864 1241 2851.5 1058 c 128,-1,277
 2839 875 2839 875 2830 779 c 0,278,279
 2806 498 2806 498 2759 142 c 0,280,281
 2755 113 2755 113 2745 33 c 128,-1,282
 2735 -47 2735 -47 2727.5 -89 c 128,-1,283
 2720 -131 2720 -131 2705 -195.5 c 128,-1,284
 2690 -260 2690 -260 2666 -311 c 128,-1,285
 2642 -362 2642 -362 2609 -407 c 0,286,287
 2548 -488 2548 -488 2454 -514 c 128,-1,288
 2360 -540 2360 -540 2267 -497 c 1,289,290
 2212 -469 2212 -469 2185 -429 c 1,291,292
 2164 -396 2164 -396 2163.5 -356 c 128,-1,293
 2163 -316 2163 -316 2187.5 -287.5 c 128,-1,294
 2212 -259 2212 -259 2257 -263 c 0,295,296
 2305 -267 2305 -267 2326 -312 c 128,-1,297
 2347 -357 2347 -357 2320 -398 c 0,298,299
 2304 -424 2304 -424 2259 -435 c 1,232,233
EndSplineSet
EndChar

StartChar: dispiiiint
Encoding: 8 8 11
Width: 3356
GlyphClass: 2
Flags: W
LayerCount: 2
Fore
SplineSet
211 -1648 m 1,0,1
 238 -1673 238 -1673 264 -1681 c 1,2,3
 317 -1707 317 -1707 354 -1696 c 0,4,5
 384 -1688 384 -1688 416 -1648 c 1,6,7
 451 -1602 451 -1602 492 -1507 c 1,8,9
 538 -1387 538 -1387 576 -1238 c 128,-1,10
 614 -1089 614 -1089 637.5 -960.5 c 128,-1,11
 661 -832 661 -832 690 -684 c 0,12,13
 724 -509 724 -509 781.5 -169 c 128,-1,14
 839 171 839 171 870 336 c 0,15,16
 1023 1142 1023 1142 1227 1954 c 0,17,18
 1263 2098 1263 2098 1283.5 2174.5 c 128,-1,19
 1304 2251 1304 2251 1345 2369 c 128,-1,20
 1386 2487 1386 2487 1432 2579 c 0,21,22
 1523 2764 1523 2764 1651 2802 c 1,23,24
 1717 2819 1717 2819 1788 2795.5 c 128,-1,25
 1859 2772 1859 2772 1898 2718 c 0,26,27
 1918 2690 1918 2690 1926.5 2655 c 128,-1,28
 1935 2620 1935 2620 1926 2584 c 128,-1,29
 1917 2548 1917 2548 1886 2529 c 0,30,31
 1852 2509 1852 2509 1816 2516.5 c 128,-1,32
 1780 2524 1780 2524 1759 2549.5 c 128,-1,33
 1738 2575 1738 2575 1732 2609 c 128,-1,34
 1726 2643 1726 2643 1753 2677 c 0,35,36
 1763 2690 1763 2690 1776.5 2698 c 128,-1,37
 1790 2706 1790 2706 1804 2709 c 128,-1,38
 1818 2712 1818 2712 1835 2716 c 1,39,40
 1812 2729 1812 2729 1792.5 2740.5 c 128,-1,41
 1773 2752 1773 2752 1747.5 2759 c 128,-1,42
 1722 2766 1722 2766 1698 2763 c 1,43,44
 1661 2756 1661 2756 1624 2706 c 0,45,46
 1576 2639 1576 2639 1530 2505 c 1,47,48
 1484 2366 1484 2366 1444.5 2197.5 c 128,-1,49
 1405 2029 1405 2029 1379.5 1883.5 c 128,-1,50
 1354 1738 1354 1738 1323 1569 c 0,51,52
 1301 1449 1301 1449 1253 1164.5 c 128,-1,53
 1205 880 1205 880 1176 727 c 0,54,55
 1012 -125 1012 -125 801 -960 c 1,56,57
 769 -1091 769 -1091 747.5 -1170 c 128,-1,58
 726 -1249 726 -1249 683.5 -1360.5 c 128,-1,59
 641 -1472 641 -1472 592 -1556 c 1,60,61
 494 -1720 494 -1720 373 -1741 c 1,62,63
 308 -1750 308 -1750 241.5 -1724 c 128,-1,64
 175 -1698 175 -1698 141 -1644 c 0,65,66
 121 -1613 121 -1613 115 -1575.5 c 128,-1,67
 109 -1538 109 -1538 124 -1503.5 c 128,-1,68
 139 -1469 139 -1469 178 -1456 c 0,69,70
 205 -1446 205 -1446 237 -1453 c 128,-1,71
 269 -1460 269 -1460 289 -1483 c 1,72,73
 313 -1516 313 -1516 314 -1553 c 128,-1,74
 315 -1590 315 -1590 286.5 -1619 c 128,-1,75
 258 -1648 258 -1648 211 -1648 c 1,0,1
950 -1648 m 1,76,77
 979 -1674 979 -1674 1004 -1681 c 1,78,79
 1056 -1707 1056 -1707 1096 -1696 c 0,80,81
 1125 -1687 1125 -1687 1153 -1650 c 1,82,83
 1192 -1602 1192 -1602 1231 -1507 c 1,84,85
 1283 -1372 1283 -1372 1335 -1147 c 0,86,87
 1384 -934 1384 -934 1429.5 -689 c 128,-1,88
 1475 -444 1475 -444 1526 -143.5 c 128,-1,89
 1577 157 1577 157 1608 324 c 0,90,91
 1753 1102 1753 1102 1966 1952 c 0,92,93
 2004 2104 2004 2104 2022.5 2175 c 128,-1,94
 2041 2246 2041 2246 2083 2366.5 c 128,-1,95
 2125 2487 2125 2487 2171 2579 c 1,96,97
 2261 2764 2261 2764 2390 2802 c 1,98,99
 2456 2819 2456 2819 2527.5 2795.5 c 128,-1,100
 2599 2772 2599 2772 2638 2718 c 0,101,102
 2658 2690 2658 2690 2667 2654.5 c 128,-1,103
 2676 2619 2676 2619 2666.5 2583 c 128,-1,104
 2657 2547 2657 2547 2626 2529 c 0,105,106
 2593 2509 2593 2509 2556.5 2516.5 c 128,-1,107
 2520 2524 2520 2524 2499 2549.5 c 128,-1,108
 2478 2575 2478 2575 2471.5 2609 c 128,-1,109
 2465 2643 2465 2643 2492 2677 c 0,110,111
 2513 2704 2513 2704 2574 2716 c 1,112,113
 2551 2728 2551 2728 2530.5 2740.5 c 128,-1,114
 2510 2753 2510 2753 2484 2759.5 c 128,-1,115
 2458 2766 2458 2766 2435 2761 c 1,116,117
 2403 2757 2403 2757 2363 2706 c 1,118,119
 2317 2641 2317 2641 2273 2515 c 1,120,121
 2227 2378 2227 2378 2187.5 2212.5 c 128,-1,122
 2148 2047 2148 2047 2122.5 1903.5 c 128,-1,123
 2097 1760 2097 1760 2066 1594 c 0,124,125
 2047 1488 2047 1488 2014.5 1297 c 128,-1,126
 1982 1106 1982 1106 1954.5 948 c 128,-1,127
 1927 790 1927 790 1901 651 c 1,128,129
 1750 -125 1750 -125 1542 -952 c 1,130,131
 1510 -1085 1510 -1085 1488.5 -1163.5 c 128,-1,132
 1467 -1242 1467 -1242 1425 -1354.5 c 128,-1,133
 1383 -1467 1383 -1467 1333 -1552 c 1,134,135
 1239 -1720 1239 -1720 1114 -1741 c 1,136,137
 1048 -1750 1048 -1750 982.5 -1724 c 128,-1,138
 917 -1698 917 -1698 881 -1644 c 1,139,140
 862 -1613 862 -1613 856 -1575.5 c 128,-1,141
 850 -1538 850 -1538 865 -1503.5 c 128,-1,142
 880 -1469 880 -1469 918 -1456 c 1,143,144
 944 -1446 944 -1446 976 -1453.5 c 128,-1,145
 1008 -1461 1008 -1461 1028 -1483 c 1,146,147
 1052 -1516 1052 -1516 1053.5 -1553 c 128,-1,148
 1055 -1590 1055 -1590 1026 -1619 c 128,-1,149
 997 -1648 997 -1648 950 -1648 c 1,76,77
1690 -1650 m 1,150,151
 1693 -1652 1693 -1652 1706 -1659.5 c 128,-1,152
 1719 -1667 1719 -1667 1723 -1669.5 c 128,-1,153
 1727 -1672 1727 -1672 1739 -1678 c 128,-1,154
 1751 -1684 1751 -1684 1757 -1686.5 c 128,-1,155
 1763 -1689 1763 -1689 1773.5 -1692.5 c 128,-1,156
 1784 -1696 1784 -1696 1792 -1697 c 128,-1,157
 1800 -1698 1800 -1698 1810 -1698 c 128,-1,158
 1820 -1698 1820 -1698 1829 -1696 c 0,159,160
 1867 -1690 1867 -1690 1901 -1640 c 1,161,162
 1946 -1580 1946 -1580 1991 -1452 c 1,163,164
 2026 -1347 2026 -1347 2057 -1226.5 c 128,-1,165
 2088 -1106 2088 -1106 2110.5 -996 c 128,-1,166
 2133 -886 2133 -886 2156 -763.5 c 128,-1,167
 2179 -641 2179 -641 2198 -532 c 0,168,169
 2215 -436 2215 -436 2245.5 -256 c 128,-1,170
 2276 -76 2276 -76 2301.5 70 c 128,-1,171
 2327 216 2327 216 2351 346 c 1,172,173
 2519 1207 2519 1207 2722 2015 c 1,174,175
 2753 2145 2753 2145 2775 2225 c 128,-1,176
 2797 2305 2797 2305 2838.5 2416 c 128,-1,177
 2880 2527 2880 2527 2929 2613 c 0,178,179
 3025 2784 3025 2784 3148 2806 c 0,180,181
 3213 2817 3213 2817 3279 2791 c 128,-1,182
 3345 2765 3345 2765 3381 2712 c 0,183,184
 3401 2681 3401 2681 3408 2643 c 128,-1,185
 3415 2605 3415 2605 3400.5 2570 c 128,-1,186
 3386 2535 3386 2535 3348 2521 c 0,187,188
 3320 2510 3320 2510 3287.5 2517.5 c 128,-1,189
 3255 2525 3255 2525 3236 2548 c 1,190,191
 3212 2581 3212 2581 3210.5 2618 c 128,-1,192
 3209 2655 3209 2655 3238 2684.5 c 128,-1,193
 3267 2714 3267 2714 3314 2714 c 1,194,195
 3283 2739 3283 2739 3260 2747 c 1,196,197
 3207 2772 3207 2772 3168 2761 c 1,198,199
 3138 2751 3138 2751 3107 2712 c 1,200,201
 3063 2651 3063 2651 3031 2562 c 1,202,203
 2971 2408 2971 2408 2918 2157 c 1,204,205
 2856 1883 2856 1883 2766.5 1363 c 128,-1,206
 2677 843 2677 843 2646 682 c 0,207,208
 2500 -79 2500 -79 2288 -936 c 0,209,210
 2275 -986 2275 -986 2260.5 -1040 c 128,-1,211
 2246 -1094 2246 -1094 2232 -1145 c 128,-1,212
 2218 -1196 2218 -1196 2201 -1249.5 c 128,-1,213
 2184 -1303 2184 -1303 2165.5 -1352 c 128,-1,214
 2147 -1401 2147 -1401 2124 -1452 c 128,-1,215
 2101 -1503 2101 -1503 2075 -1548 c 0,216,217
 1976 -1723 1976 -1723 1845 -1741 c 0,218,219
 1782 -1750 1782 -1750 1717.5 -1722.5 c 128,-1,220
 1653 -1695 1653 -1695 1620 -1642 c 0,221,222
 1600 -1610 1600 -1610 1594.5 -1573 c 128,-1,223
 1589 -1536 1589 -1536 1604.5 -1502.5 c 128,-1,224
 1620 -1469 1620 -1469 1659 -1456 c 1,225,226
 1688 -1445 1688 -1445 1720.5 -1454 c 128,-1,227
 1753 -1463 1753 -1463 1772 -1487 c 0,228,229
 1810 -1534 1810 -1534 1783.5 -1591 c 128,-1,230
 1757 -1648 1757 -1648 1690 -1648 c 1,231,-1
 1690 -1650 l 1,150,151
2429 -1650 m 1,232,233
 2444 -1659 2444 -1659 2461 -1668.5 c 128,-1,234
 2478 -1678 2478 -1678 2493.5 -1685.5 c 128,-1,235
 2509 -1693 2509 -1693 2528 -1696.5 c 128,-1,236
 2547 -1700 2547 -1700 2566 -1698 c 1,237,238
 2602 -1690 2602 -1690 2640 -1640 c 0,239,240
 2689 -1575 2689 -1575 2732 -1444 c 1,241,242
 2787 -1283 2787 -1283 2845 -1005 c 0,243,244
 2892 -782 2892 -782 2939 -520 c 1,245,246
 3072 253 3072 253 3192.5 854.5 c 128,-1,247
 3313 1456 3313 1456 3463 2026 c 0,248,249
 3480 2088 3480 2088 3495 2146.5 c 128,-1,250
 3510 2205 3510 2205 3529 2267.5 c 128,-1,251
 3548 2330 3548 2330 3567.5 2386.5 c 128,-1,252
 3587 2443 3587 2443 3613.5 2503 c 128,-1,253
 3640 2563 3640 2563 3670 2615 c 0,254,255
 3765 2784 3765 2784 3887 2806 c 0,256,257
 3952 2817 3952 2817 4019 2791 c 128,-1,258
 4086 2765 4086 2765 4121 2712 c 0,259,260
 4141 2680 4141 2680 4147.5 2642.5 c 128,-1,261
 4154 2605 4154 2605 4140 2570 c 128,-1,262
 4126 2535 4126 2535 4088 2521 c 0,263,264
 4059 2510 4059 2510 4027 2517.5 c 128,-1,265
 3995 2525 3995 2525 3975 2548 c 1,266,267
 3951 2581 3951 2581 3950 2618 c 128,-1,268
 3949 2655 3949 2655 3977.5 2684.5 c 128,-1,269
 4006 2714 4006 2714 4053 2714 c 1,270,271
 4025 2738 4025 2738 4000 2747 c 1,272,273
 3946 2771 3946 2771 3910 2761 c 0,274,275
 3882 2754 3882 2754 3848 2714 c 1,276,277
 3812 2667 3812 2667 3770 2562 c 1,278,279
 3705 2393 3705 2393 3650 2120 c 1,280,281
 3591 1857 3591 1857 3506 1361.5 c 128,-1,282
 3421 866 3421 866 3391 713 c 0,283,284
 3241 -72 3241 -72 3027 -934 c 0,285,286
 2978 -1131 2978 -1131 2932.5 -1273.5 c 128,-1,287
 2887 -1416 2887 -1416 2818 -1542 c 0,288,289
 2720 -1722 2720 -1722 2585 -1741 c 0,290,291
 2521 -1750 2521 -1750 2455.5 -1723 c 128,-1,292
 2390 -1696 2390 -1696 2359 -1642 c 1,293,294
 2339 -1610 2339 -1610 2333.5 -1573 c 128,-1,295
 2328 -1536 2328 -1536 2343.5 -1502.5 c 128,-1,296
 2359 -1469 2359 -1469 2398 -1456 c 0,297,298
 2434 -1445 2434 -1445 2463.5 -1453 c 128,-1,299
 2493 -1461 2493 -1461 2509.5 -1486.5 c 128,-1,300
 2526 -1512 2526 -1512 2531 -1540 c 128,-1,301
 2536 -1568 2536 -1568 2522 -1596 c 128,-1,302
 2508 -1624 2508 -1624 2478 -1638 c 0,303,304
 2458 -1648 2458 -1648 2429 -1648 c 1,305,-1
 2429 -1650 l 1,232,233
EndSplineSet
EndChar

StartChar: dotsint
Encoding: 9 9 12
Width: 3014
GlyphClass: 2
Flags: W
LayerCount: 2
Fore
SplineSet
211 -435 m 1,0,1
 263 -478 263 -478 344 -478 c 1,2,3
 377 -477 377 -477 404 -462 c 128,-1,4
 431 -447 431 -447 449 -426.5 c 128,-1,5
 467 -406 467 -406 482 -370.5 c 128,-1,6
 497 -335 497 -335 505.5 -307 c 128,-1,7
 514 -279 514 -279 521 -234 c 128,-1,8
 528 -189 528 -189 530.5 -164 c 128,-1,9
 533 -139 533 -139 537 -97 c 0,10,11
 544 -11 544 -11 557.5 180 c 128,-1,12
 571 371 571 371 580 472 c 0,13,14
 595 635 595 635 647 1064 c 1,15,16
 653 1132 653 1132 663.5 1210.5 c 128,-1,17
 674 1289 674 1289 687 1359.5 c 128,-1,18
 700 1430 700 1430 728.5 1503 c 128,-1,19
 757 1576 757 1576 799 1633 c 0,20,21
 860 1715 860 1715 955 1741.5 c 128,-1,22
 1050 1768 1050 1768 1143 1725 c 0,23,24
 1198 1699 1198 1699 1225 1658 c 1,25,26
 1246 1624 1246 1624 1246.5 1584 c 128,-1,27
 1247 1544 1247 1544 1222.5 1516 c 128,-1,28
 1198 1488 1198 1488 1153 1492 c 0,29,30
 1104 1496 1104 1496 1083.5 1541 c 128,-1,31
 1063 1586 1063 1586 1090 1627 c 0,32,33
 1106 1653 1106 1653 1151 1664 c 1,34,35
 1099 1707 1099 1707 1018 1707 c 1,36,37
 985 1706 985 1706 957.5 1691.5 c 128,-1,38
 930 1677 930 1677 911.5 1656.5 c 128,-1,39
 893 1636 893 1636 878 1601 c 128,-1,40
 863 1566 863 1566 854.5 1537.5 c 128,-1,41
 846 1509 846 1509 839 1464.5 c 128,-1,42
 832 1420 832 1420 829.5 1394 c 128,-1,43
 827 1368 827 1368 823 1326 c 0,44,45
 815 1234 815 1234 803 1059 c 128,-1,46
 791 884 791 884 784 804 c 0,47,48
 758 486 758 486 711 142 c 0,49,50
 707 113 707 113 697 33 c 128,-1,51
 687 -47 687 -47 679.5 -89 c 128,-1,52
 672 -131 672 -131 657 -195.5 c 128,-1,53
 642 -260 642 -260 618 -311 c 128,-1,54
 594 -362 594 -362 561 -407 c 0,55,56
 500 -488 500 -488 406 -514 c 128,-1,57
 312 -540 312 -540 219 -497 c 1,58,59
 164 -469 164 -469 137 -429 c 1,60,61
 116 -396 116 -396 115.5 -356 c 128,-1,62
 115 -316 115 -316 139.5 -287.5 c 128,-1,63
 164 -259 164 -259 209 -263 c 0,64,65
 257 -267 257 -267 278 -312 c 128,-1,66
 299 -357 299 -357 272 -398 c 0,67,68
 256 -424 256 -424 211 -435 c 1,0,1
2259 -435 m 1,69,70
 2311 -478 2311 -478 2392 -478 c 1,71,72
 2425 -477 2425 -477 2452 -462 c 128,-1,73
 2479 -447 2479 -447 2497 -426.5 c 128,-1,74
 2515 -406 2515 -406 2530 -370.5 c 128,-1,75
 2545 -335 2545 -335 2553.5 -307 c 128,-1,76
 2562 -279 2562 -279 2569 -234 c 128,-1,77
 2576 -189 2576 -189 2578.5 -164 c 128,-1,78
 2581 -139 2581 -139 2585 -97 c 0,79,80
 2594 0 2594 0 2605.5 177.5 c 128,-1,81
 2617 355 2617 355 2623 425 c 0,82,83
 2653 769 2653 769 2697 1076 c 0,84,85
 2712 1178 2712 1178 2721 1269 c 128,-1,86
 2730 1360 2730 1360 2761.5 1460.5 c 128,-1,87
 2793 1561 2793 1561 2847 1633 c 0,88,89
 2908 1715 2908 1715 3003 1741.5 c 128,-1,90
 3098 1768 3098 1768 3191 1725 c 0,91,92
 3246 1699 3246 1699 3273 1658 c 1,93,94
 3294 1624 3294 1624 3294.5 1584 c 128,-1,95
 3295 1544 3295 1544 3270.5 1516 c 128,-1,96
 3246 1488 3246 1488 3201 1492 c 0,97,98
 3152 1496 3152 1496 3131.5 1541 c 128,-1,99
 3111 1586 3111 1586 3138 1627 c 0,100,101
 3154 1653 3154 1653 3199 1664 c 1,102,103
 3147 1707 3147 1707 3066 1707 c 1,104,105
 3033 1706 3033 1706 3005.5 1691.5 c 128,-1,106
 2978 1677 2978 1677 2959.5 1656.5 c 128,-1,107
 2941 1636 2941 1636 2926 1601 c 128,-1,108
 2911 1566 2911 1566 2902.5 1537.5 c 128,-1,109
 2894 1509 2894 1509 2887 1464.5 c 128,-1,110
 2880 1420 2880 1420 2877.5 1394 c 128,-1,111
 2875 1368 2875 1368 2871 1326 c 0,112,113
 2864 1241 2864 1241 2851.5 1058 c 128,-1,114
 2839 875 2839 875 2830 779 c 0,115,116
 2806 498 2806 498 2759 142 c 0,117,118
 2755 113 2755 113 2745 33 c 128,-1,119
 2735 -47 2735 -47 2727.5 -89 c 128,-1,120
 2720 -131 2720 -131 2705 -195.5 c 128,-1,121
 2690 -260 2690 -260 2666 -311 c 128,-1,122
 2642 -362 2642 -362 2609 -407 c 0,123,124
 2548 -488 2548 -488 2454 -514 c 128,-1,125
 2360 -540 2360 -540 2267 -497 c 1,126,127
 2212 -469 2212 -469 2185 -429 c 1,128,129
 2164 -396 2164 -396 2163.5 -356 c 128,-1,130
 2163 -316 2163 -316 2187.5 -287.5 c 128,-1,131
 2212 -259 2212 -259 2257 -263 c 0,132,133
 2305 -267 2305 -267 2326 -312 c 128,-1,134
 2347 -357 2347 -357 2320 -398 c 0,135,136
 2304 -424 2304 -424 2259 -435 c 1,69,70
1192 722 m 0,137,138
 1247 723 1247 723 1278 682 c 128,-1,139
 1309 641 1309 641 1299.5 590.5 c 128,-1,140
 1290 540 1290 540 1241 517 c 1,141,142
 1223 507 1223 507 1196 507 c 0,143,144
 1155 506 1155 506 1126 531 c 128,-1,145
 1097 556 1097 556 1089 589.5 c 128,-1,146
 1081 623 1081 623 1095.5 658.5 c 128,-1,147
 1110 694 1110 694 1147 712 c 1,148,149
 1164 722 1164 722 1192 722 c 0,137,138
1704 722 m 0,150,151
 1759 723 1759 723 1790 682 c 128,-1,152
 1821 641 1821 641 1811.5 590.5 c 128,-1,153
 1802 540 1802 540 1753 517 c 1,154,155
 1736 507 1736 507 1708 507 c 0,156,157
 1667 506 1667 506 1638 531 c 128,-1,158
 1609 556 1609 556 1601 589.5 c 128,-1,159
 1593 623 1593 623 1607.5 658.5 c 128,-1,160
 1622 694 1622 694 1659 712 c 1,161,162
 1676 722 1676 722 1704 722 c 0,150,151
2216 722 m 0,163,164
 2270 723 2270 723 2301 682 c 128,-1,165
 2332 641 2332 641 2323 590.5 c 128,-1,166
 2314 540 2314 540 2265 517 c 0,167,168
 2242 507 2242 507 2220 507 c 0,169,170
 2179 506 2179 506 2150 531 c 128,-1,171
 2121 556 2121 556 2113 589.5 c 128,-1,172
 2105 623 2105 623 2119.5 658.5 c 128,-1,173
 2134 694 2134 694 2171 712 c 1,174,175
 2188 722 2188 722 2216 722 c 0,163,164
EndSplineSet
EndChar

StartChar: dispdotsint
Encoding: 10 10 13
Width: 3356
GlyphClass: 2
Flags: W
LayerCount: 2
Fore
SplineSet
211 -1648 m 1,0,1
 238 -1673 238 -1673 264 -1681 c 1,2,3
 317 -1707 317 -1707 354 -1696 c 0,4,5
 384 -1688 384 -1688 416 -1648 c 1,6,7
 451 -1602 451 -1602 492 -1507 c 1,8,9
 538 -1387 538 -1387 576 -1238 c 128,-1,10
 614 -1089 614 -1089 637.5 -960.5 c 128,-1,11
 661 -832 661 -832 690 -684 c 0,12,13
 724 -509 724 -509 781.5 -169 c 128,-1,14
 839 171 839 171 870 336 c 0,15,16
 1023 1142 1023 1142 1227 1954 c 0,17,18
 1263 2098 1263 2098 1283.5 2174.5 c 128,-1,19
 1304 2251 1304 2251 1345 2369 c 128,-1,20
 1386 2487 1386 2487 1432 2579 c 0,21,22
 1523 2764 1523 2764 1651 2802 c 1,23,24
 1717 2819 1717 2819 1788 2795.5 c 128,-1,25
 1859 2772 1859 2772 1898 2718 c 0,26,27
 1918 2690 1918 2690 1926.5 2655 c 128,-1,28
 1935 2620 1935 2620 1926 2584 c 128,-1,29
 1917 2548 1917 2548 1886 2529 c 0,30,31
 1852 2509 1852 2509 1816 2516.5 c 128,-1,32
 1780 2524 1780 2524 1759 2549.5 c 128,-1,33
 1738 2575 1738 2575 1732 2609 c 128,-1,34
 1726 2643 1726 2643 1753 2677 c 0,35,36
 1763 2690 1763 2690 1776.5 2698 c 128,-1,37
 1790 2706 1790 2706 1804 2709 c 128,-1,38
 1818 2712 1818 2712 1835 2716 c 1,39,40
 1812 2729 1812 2729 1792.5 2740.5 c 128,-1,41
 1773 2752 1773 2752 1747.5 2759 c 128,-1,42
 1722 2766 1722 2766 1698 2763 c 1,43,44
 1661 2756 1661 2756 1624 2706 c 0,45,46
 1576 2639 1576 2639 1530 2505 c 1,47,48
 1484 2366 1484 2366 1444.5 2197.5 c 128,-1,49
 1405 2029 1405 2029 1379.5 1883.5 c 128,-1,50
 1354 1738 1354 1738 1323 1569 c 0,51,52
 1301 1449 1301 1449 1253 1164.5 c 128,-1,53
 1205 880 1205 880 1176 727 c 0,54,55
 1012 -125 1012 -125 801 -960 c 1,56,57
 769 -1091 769 -1091 747.5 -1170 c 128,-1,58
 726 -1249 726 -1249 683.5 -1360.5 c 128,-1,59
 641 -1472 641 -1472 592 -1556 c 1,60,61
 494 -1720 494 -1720 373 -1741 c 1,62,63
 308 -1750 308 -1750 241.5 -1724 c 128,-1,64
 175 -1698 175 -1698 141 -1644 c 0,65,66
 121 -1613 121 -1613 115 -1575.5 c 128,-1,67
 109 -1538 109 -1538 124 -1503.5 c 128,-1,68
 139 -1469 139 -1469 178 -1456 c 0,69,70
 205 -1446 205 -1446 237 -1453 c 128,-1,71
 269 -1460 269 -1460 289 -1483 c 1,72,73
 313 -1516 313 -1516 314 -1553 c 128,-1,74
 315 -1590 315 -1590 286.5 -1619 c 128,-1,75
 258 -1648 258 -1648 211 -1648 c 1,0,1
2429 -1650 m 1,76,77
 2444 -1659 2444 -1659 2461 -1668.5 c 128,-1,78
 2478 -1678 2478 -1678 2493.5 -1685.5 c 128,-1,79
 2509 -1693 2509 -1693 2528 -1696.5 c 128,-1,80
 2547 -1700 2547 -1700 2566 -1698 c 1,81,82
 2602 -1690 2602 -1690 2640 -1640 c 0,83,84
 2689 -1575 2689 -1575 2732 -1444 c 1,85,86
 2787 -1283 2787 -1283 2845 -1005 c 0,87,88
 2892 -782 2892 -782 2939 -520 c 1,89,90
 3072 253 3072 253 3192.5 854.5 c 128,-1,91
 3313 1456 3313 1456 3463 2026 c 0,92,93
 3480 2088 3480 2088 3495 2146.5 c 128,-1,94
 3510 2205 3510 2205 3529 2267.5 c 128,-1,95
 3548 2330 3548 2330 3567.5 2386.5 c 128,-1,96
 3587 2443 3587 2443 3613.5 2503 c 128,-1,97
 3640 2563 3640 2563 3670 2615 c 0,98,99
 3765 2784 3765 2784 3887 2806 c 0,100,101
 3952 2817 3952 2817 4019 2791 c 128,-1,102
 4086 2765 4086 2765 4121 2712 c 0,103,104
 4141 2680 4141 2680 4147.5 2642.5 c 128,-1,105
 4154 2605 4154 2605 4140 2570 c 128,-1,106
 4126 2535 4126 2535 4088 2521 c 0,107,108
 4059 2510 4059 2510 4027 2517.5 c 128,-1,109
 3995 2525 3995 2525 3975 2548 c 1,110,111
 3951 2581 3951 2581 3950 2618 c 128,-1,112
 3949 2655 3949 2655 3977.5 2684.5 c 128,-1,113
 4006 2714 4006 2714 4053 2714 c 1,114,115
 4025 2738 4025 2738 4000 2747 c 1,116,117
 3946 2771 3946 2771 3910 2761 c 0,118,119
 3882 2754 3882 2754 3848 2714 c 1,120,121
 3812 2667 3812 2667 3770 2562 c 1,122,123
 3705 2393 3705 2393 3650 2120 c 1,124,125
 3591 1857 3591 1857 3506 1361.5 c 128,-1,126
 3421 866 3421 866 3391 713 c 0,127,128
 3241 -72 3241 -72 3027 -934 c 0,129,130
 2978 -1131 2978 -1131 2932.5 -1273.5 c 128,-1,131
 2887 -1416 2887 -1416 2818 -1542 c 0,132,133
 2720 -1722 2720 -1722 2585 -1741 c 0,134,135
 2521 -1750 2521 -1750 2455.5 -1723 c 128,-1,136
 2390 -1696 2390 -1696 2359 -1642 c 1,137,138
 2339 -1610 2339 -1610 2333.5 -1573 c 128,-1,139
 2328 -1536 2328 -1536 2343.5 -1502.5 c 128,-1,140
 2359 -1469 2359 -1469 2398 -1456 c 0,141,142
 2434 -1445 2434 -1445 2463.5 -1453 c 128,-1,143
 2493 -1461 2493 -1461 2509.5 -1486.5 c 128,-1,144
 2526 -1512 2526 -1512 2531 -1540 c 128,-1,145
 2536 -1568 2536 -1568 2522 -1596 c 128,-1,146
 2508 -1624 2508 -1624 2478 -1638 c 0,147,148
 2458 -1648 2458 -1648 2429 -1648 c 1,149,-1
 2429 -1650 l 1,76,77
1604 639 m 0,150,151
 1657 648 1657 648 1693.5 612 c 128,-1,152
 1730 576 1730 576 1728 524.5 c 128,-1,153
 1726 473 1726 473 1681 443 c 0,154,155
 1659 429 1659 429 1636 426 c 0,156,157
 1583 417 1583 417 1546.5 453 c 128,-1,158
 1510 489 1510 489 1512 540.5 c 128,-1,159
 1514 592 1514 592 1559 623 c 1,160,161
 1583 636 1583 636 1604 639 c 0,150,151
2116 639 m 0,162,163
 2169 648 2169 648 2205.5 612 c 128,-1,164
 2242 576 2242 576 2240 524.5 c 128,-1,165
 2238 473 2238 473 2193 443 c 0,166,167
 2171 429 2171 429 2148 426 c 0,168,169
 2095 417 2095 417 2058.5 453 c 128,-1,170
 2022 489 2022 489 2024 540.5 c 128,-1,171
 2026 592 2026 592 2071 623 c 1,172,173
 2095 636 2095 636 2116 639 c 0,162,163
2628 639 m 0,174,175
 2681 648 2681 648 2717.5 612 c 128,-1,176
 2754 576 2754 576 2752 524.5 c 128,-1,177
 2750 473 2750 473 2705 443 c 0,178,179
 2683 429 2683 429 2660 426 c 0,180,181
 2607 417 2607 417 2570.5 453 c 128,-1,182
 2534 489 2534 489 2536 540.5 c 128,-1,183
 2538 592 2538 592 2583 623 c 1,184,185
 2607 636 2607 636 2628 639 c 0,174,175
EndSplineSet
EndChar

StartChar: oint
Encoding: 11 11 14
Width: 966
GlyphClass: 2
Flags: W
LayerCount: 2
Fore
SplineSet
657 1131 m 1,0,1
 661 1155 661 1155 666.5 1197.5 c 128,-1,2
 672 1240 672 1240 674 1252 c 0,3,4
 681 1299 681 1299 687.5 1337 c 128,-1,5
 694 1375 694 1375 706.5 1424.5 c 128,-1,6
 719 1474 719 1474 734 1513 c 128,-1,7
 749 1552 749 1552 772 1594 c 128,-1,8
 795 1636 795 1636 823 1665 c 128,-1,9
 851 1694 851 1694 890 1716.5 c 128,-1,10
 929 1739 929 1739 975 1748 c 1,11,12
 1012 1757 1012 1757 1057 1750 c 1,13,14
 1126 1744 1126 1744 1181.5 1704.5 c 128,-1,15
 1237 1665 1237 1665 1247 1605 c 0,16,17
 1255 1561 1255 1561 1233.5 1527 c 128,-1,18
 1212 1493 1212 1493 1167 1492 c 0,19,20
 1115 1490 1115 1490 1089 1536.5 c 128,-1,21
 1063 1583 1063 1583 1092 1627 c 0,22,23
 1108 1653 1108 1653 1153 1664 c 1,24,25
 1113 1696 1113 1696 1057.5 1705 c 128,-1,26
 1002 1714 1002 1714 956 1693 c 1,27,28
 921 1673 921 1673 896.5 1635.5 c 128,-1,29
 872 1598 872 1598 858.5 1538.5 c 128,-1,30
 845 1479 845 1479 839.5 1443 c 128,-1,31
 834 1407 834 1407 827 1338 c 0,32,33
 809 1174 809 1174 809 1115 c 1,34,35
 862 1106 862 1106 944 1062 c 1,36,37
 1113 964 1113 964 1174 773 c 128,-1,38
 1235 582 1235 582 1157 404 c 0,39,40
 1098 270 1098 270 977 189 c 128,-1,41
 856 108 856 108 707 97 c 1,42,43
 703 73 703 73 697.5 30.5 c 128,-1,44
 692 -12 692 -12 690 -24 c 0,45,46
 684 -70 684 -70 677 -108.5 c 128,-1,47
 670 -147 670 -147 657.5 -196.5 c 128,-1,48
 645 -246 645 -246 629.5 -285 c 128,-1,49
 614 -324 614 -324 590.5 -365.5 c 128,-1,50
 567 -407 567 -407 539 -436.5 c 128,-1,51
 511 -466 511 -466 472 -488.5 c 128,-1,52
 433 -511 433 -511 387 -519 c 0,53,54
 289 -534 289 -534 208.5 -493 c 128,-1,55
 128 -452 128 -452 115 -376 c 1,56,57
 106 -333 106 -333 128 -298.5 c 128,-1,58
 150 -264 150 -264 195 -263 c 0,59,60
 247 -261 247 -261 273 -307.5 c 128,-1,61
 299 -354 299 -354 270 -398 c 0,62,63
 254 -424 254 -424 209 -435 c 1,64,65
 249 -467 249 -467 305.5 -476 c 128,-1,66
 362 -485 362 -485 410 -462 c 1,67,68
 438 -446 438 -446 459 -414.5 c 128,-1,69
 480 -383 480 -383 492.5 -351.5 c 128,-1,70
 505 -320 505 -320 514.5 -270.5 c 128,-1,71
 524 -221 524 -221 528 -191 c 128,-1,72
 532 -161 532 -161 537 -110 c 0,73,74
 555 56 555 56 555 114 c 1,75,76
 497 124 497 124 420 167 c 1,77,78
 251 265 251 265 190 456 c 128,-1,79
 129 647 129 647 207 824 c 0,80,81
 266 959 266 959 387 1039.5 c 128,-1,82
 508 1120 508 1120 657 1131 c 1,0,1
647 1047 m 1,83,84
 517 1044 517 1044 415 961 c 128,-1,85
 313 878 313 878 270.5 754 c 128,-1,86
 228 630 228 630 258 507 c 1,87,88
 287 395 287 395 368 313.5 c 128,-1,89
 449 232 449 232 561 196 c 1,90,91
 577 376 577 376 600.5 625 c 128,-1,92
 624 874 624 874 647 1047 c 1,83,84
805 1033 m 1,93,94
 801 1020 801 1020 800 1005 c 128,-1,95
 799 990 799 990 798.5 969.5 c 128,-1,96
 798 949 798 949 797 941 c 0,97,98
 760 428 760 428 717 181 c 1,99,100
 768 181 768 181 838 208 c 0,101,102
 918 238 918 238 980 296.5 c 128,-1,103
 1042 355 1042 355 1075.5 428.5 c 128,-1,104
 1109 502 1109 502 1117 586.5 c 128,-1,105
 1125 671 1125 671 1096 753 c 1,106,107
 1047 901 1047 901 913 984 c 1,108,109
 886 1002 886 1002 805 1033 c 1,93,94
EndSplineSet
EndChar

StartChar: dispoint
Encoding: 12 12 15
Width: 1138
GlyphClass: 2
Flags: W
LayerCount: 2
Fore
SplineSet
1069 1288 m 1,0,1
 1087 1378 1087 1378 1108.5 1472 c 128,-1,2
 1130 1566 1130 1566 1163.5 1700.5 c 128,-1,3
 1197 1835 1197 1835 1208 1882 c 0,4,5
 1234 1984 1234 1984 1255 2071.5 c 128,-1,6
 1276 2159 1276 2159 1306.5 2259.5 c 128,-1,7
 1337 2360 1337 2360 1370 2443 c 0,8,9
 1387 2487 1387 2487 1399 2514 c 128,-1,10
 1411 2541 1411 2541 1432 2585 c 128,-1,11
 1453 2629 1453 2629 1473.5 2658 c 128,-1,12
 1494 2687 1494 2687 1521 2718.5 c 128,-1,13
 1548 2750 1548 2750 1581 2771 c 128,-1,14
 1614 2792 1614 2792 1651 2802 c 0,15,16
 1719 2819 1719 2819 1791 2795.5 c 128,-1,17
 1863 2772 1863 2772 1901 2716 c 1,18,19
 1923 2686 1923 2686 1931 2647.5 c 128,-1,20
 1939 2609 1939 2609 1925.5 2573.5 c 128,-1,21
 1912 2538 1912 2538 1874 2523 c 0,22,23
 1845 2511 1845 2511 1811 2518.5 c 128,-1,24
 1777 2526 1777 2526 1757 2550 c 1,25,26
 1734 2583 1734 2583 1734.5 2619.5 c 128,-1,27
 1735 2656 1735 2656 1763.5 2685 c 128,-1,28
 1792 2714 1792 2714 1835 2714 c 1,29,30
 1809 2740 1809 2740 1767.5 2755.5 c 128,-1,31
 1726 2771 1726 2771 1690 2761 c 0,32,33
 1654 2750 1654 2750 1616 2693 c 1,34,35
 1567 2622 1567 2622 1520 2474 c 1,36,37
 1480 2340 1480 2340 1442 2175 c 128,-1,38
 1404 2010 1404 2010 1383 1899.5 c 128,-1,39
 1362 1789 1362 1789 1327 1596 c 0,40,41
 1323 1573 1323 1573 1302.5 1445 c 128,-1,42
 1282 1317 1282 1317 1268 1249 c 1,43,44
 1428 1196 1428 1196 1550 1075 c 128,-1,45
 1672 954 1672 954 1732.5 793.5 c 128,-1,46
 1793 633 1793 633 1778 465 c 1,47,48
 1755 234 1755 234 1607 53.5 c 128,-1,49
 1459 -127 1459 -127 1237 -194 c 1,50,51
 1079 -240 1079 -240 977 -223 c 1,52,53
 959 -312 959 -312 937 -407.5 c 128,-1,54
 915 -503 915 -503 883 -633.5 c 128,-1,55
 851 -764 851 -764 838 -817 c 0,56,57
 812 -919 812 -919 791 -1006 c 128,-1,58
 770 -1093 770 -1093 739.5 -1194 c 128,-1,59
 709 -1295 709 -1295 676 -1378 c 0,60,61
 654 -1432 654 -1432 640.5 -1464 c 128,-1,62
 627 -1496 627 -1496 599 -1548 c 128,-1,63
 571 -1600 571 -1600 544.5 -1632 c 128,-1,64
 518 -1664 518 -1664 478.5 -1694.5 c 128,-1,65
 439 -1725 439 -1725 395 -1737 c 0,66,67
 327 -1754 327 -1754 255 -1730 c 128,-1,68
 183 -1706 183 -1706 145 -1650 c 1,69,70
 123 -1620 123 -1620 115 -1582 c 128,-1,71
 107 -1544 107 -1544 120.5 -1508.5 c 128,-1,72
 134 -1473 134 -1473 172 -1458 c 0,73,74
 201 -1446 201 -1446 235 -1453.5 c 128,-1,75
 269 -1461 269 -1461 289 -1485 c 1,76,77
 312 -1518 312 -1518 311.5 -1554.5 c 128,-1,78
 311 -1591 311 -1591 282.5 -1619.5 c 128,-1,79
 254 -1648 254 -1648 211 -1648 c 1,80,81
 237 -1674 237 -1674 278.5 -1690 c 128,-1,82
 320 -1706 320 -1706 356 -1696 c 1,83,84
 393 -1684 393 -1684 430 -1628 c 1,85,86
 480 -1555 480 -1555 526 -1409 c 1,87,88
 614 -1117 614 -1117 719 -530 c 0,89,90
 724 -504 724 -504 744 -377.5 c 128,-1,91
 764 -251 764 -251 778 -184 c 1,92,93
 618 -131 618 -131 496 -10 c 128,-1,94
 374 111 374 111 313.5 271.5 c 128,-1,95
 253 432 253 432 268 600 c 1,96,97
 291 831 291 831 439 1012 c 128,-1,98
 587 1193 587 1193 809 1260 c 1,99,100
 972 1306 972 1306 1069 1288 c 1,0,1
1051 1209 m 1,101,102
 859 1209 859 1209 698 1123.5 c 128,-1,103
 537 1038 537 1038 442 877 c 0,104,105
 356 733 356 733 349.5 565 c 128,-1,106
 343 397 343 397 413.5 245 c 128,-1,107
 484 93 484 93 618 -8 c 0,108,109
 712 -78 712 -78 793 -102 c 1,110,111
 801 -29 801 -29 850 230 c 0,112,113
 908 543 908 543 989 922 c 0,114,115
 995 947 995 947 1010 1010 c 128,-1,116
 1025 1073 1025 1073 1034.5 1119 c 128,-1,117
 1044 1165 1044 1165 1051 1209 c 1,101,102
995 -143 m 1,118,119
 1187 -143 1187 -143 1348 -57.5 c 128,-1,120
 1509 28 1509 28 1604 189 c 0,121,122
 1690 333 1690 333 1696.5 500.5 c 128,-1,123
 1703 668 1703 668 1632 820.5 c 128,-1,124
 1561 973 1561 973 1427 1073 c 1,125,126
 1336 1143 1336 1143 1253 1168 c 1,127,128
 1245 1091 1245 1091 1196 836 c 1,129,130
 1137 519 1137 519 1057 144 c 0,131,132
 1051 116 1051 116 1036.5 55 c 128,-1,133
 1022 -6 1022 -6 1012 -53 c 128,-1,134
 1002 -100 1002 -100 995 -143 c 1,118,119
EndSplineSet
EndChar

StartChar: oiint
Encoding: 13 13 16
Width: 1650
GlyphClass: 2
Flags: W
LayerCount: 2
Fore
SplineSet
657 1131 m 1,0,1
 660 1151 660 1151 670 1226.5 c 128,-1,2
 680 1302 680 1302 688 1342 c 0,3,4
 698 1395 698 1395 711.5 1443 c 128,-1,5
 725 1491 725 1491 749 1544 c 128,-1,6
 773 1597 773 1597 803 1637.5 c 128,-1,7
 833 1678 833 1678 877.5 1708.5 c 128,-1,8
 922 1739 922 1739 975 1748 c 1,9,10
 1073 1762 1073 1762 1153.5 1721.5 c 128,-1,11
 1234 1681 1234 1681 1247 1605 c 0,12,13
 1255 1561 1255 1561 1233.5 1527 c 128,-1,14
 1212 1493 1212 1493 1167 1492 c 0,15,16
 1115 1490 1115 1490 1089 1536.5 c 128,-1,17
 1063 1583 1063 1583 1092 1627 c 0,18,19
 1108 1653 1108 1653 1153 1664 c 1,20,21
 1113 1696 1113 1696 1059 1705 c 128,-1,22
 1005 1714 1005 1714 958 1693 c 1,23,24
 932 1679 932 1679 912 1655 c 128,-1,25
 892 1631 892 1631 878.5 1597.5 c 128,-1,26
 865 1564 865 1564 856 1532.5 c 128,-1,27
 847 1501 847 1501 840.5 1456.5 c 128,-1,28
 834 1412 834 1412 831 1381 c 128,-1,29
 828 1350 828 1350 823.5 1302.5 c 128,-1,30
 819 1255 819 1255 817 1232 c 0,31,32
 812 1146 812 1146 809 1131 c 1,33,-1
 1341 1131 l 1,34,35
 1341 1149 1341 1149 1343.5 1169.5 c 128,-1,36
 1346 1190 1346 1190 1351 1217 c 128,-1,37
 1356 1244 1356 1244 1358 1256 c 0,38,39
 1388 1505 1388 1505 1483 1633 c 1,40,41
 1547 1721 1547 1721 1651.5 1745.5 c 128,-1,42
 1756 1770 1756 1770 1851 1713 c 0,43,44
 1922 1671 1922 1671 1931 1598 c 0,45,46
 1936 1550 1936 1550 1907 1517.5 c 128,-1,47
 1878 1485 1878 1485 1831 1494 c 0,48,49
 1787 1502 1787 1502 1768 1540 c 128,-1,50
 1749 1578 1749 1578 1768 1616.5 c 128,-1,51
 1787 1655 1787 1655 1837 1664 c 1,52,-1
 1837 1666 l 1,53,54
 1813 1676 1813 1676 1793.5 1686.5 c 128,-1,55
 1774 1697 1774 1697 1747.5 1703.5 c 128,-1,56
 1721 1710 1721 1710 1694 1707 c 0,57,58
 1663 1704 1663 1704 1637.5 1689.5 c 128,-1,59
 1612 1675 1612 1675 1594 1652 c 128,-1,60
 1576 1629 1576 1629 1561.5 1598.5 c 128,-1,61
 1547 1568 1547 1568 1538.5 1533.5 c 128,-1,62
 1530 1499 1530 1499 1522.5 1461.5 c 128,-1,63
 1515 1424 1515 1424 1512 1386.5 c 128,-1,64
 1509 1349 1509 1349 1505.5 1313 c 128,-1,65
 1502 1277 1502 1277 1501 1246 c 0,66,67
 1496 1149 1496 1149 1491 1123 c 1,68,69
 1592 1107 1592 1107 1680 1048.5 c 128,-1,70
 1768 990 1768 990 1825 910 c 1,71,72
 1927 762 1927 762 1914.5 576 c 128,-1,73
 1902 390 1902 390 1778 259 c 0,74,75
 1708 186 1708 186 1607 141.5 c 128,-1,76
 1506 97 1506 97 1389 97 c 1,77,78
 1384 54 1384 54 1372 -32 c 0,79,80
 1355 -148 1355 -148 1330 -235 c 128,-1,81
 1305 -322 1305 -322 1255 -392 c 0,82,83
 1189 -486 1189 -486 1083.5 -514 c 128,-1,84
 978 -542 978 -542 877 -484 c 1,85,86
 808 -440 808 -440 799 -370 c 0,87,88
 793 -325 793 -325 818.5 -292.5 c 128,-1,89
 844 -260 844 -260 889 -263 c 0,90,91
 938 -266 938 -266 960 -311.5 c 128,-1,92
 982 -357 982 -357 954 -398 c 1,93,94
 938 -424 938 -424 893 -435 c 1,95,96
 933 -467 933 -467 987 -476.5 c 128,-1,97
 1041 -486 1041 -486 1087 -464 c 1,98,99
 1129 -441 1129 -441 1156.5 -388.5 c 128,-1,100
 1184 -336 1184 -336 1194.5 -286.5 c 128,-1,101
 1205 -237 1205 -237 1212 -169 c 1,102,103
 1227 -48 1227 -48 1237 97 c 1,104,-1
 707 97 l 1,105,106
 703 75 703 75 697.5 33.5 c 128,-1,107
 692 -8 692 -8 690 -22 c 0,108,109
 683 -75 683 -75 674.5 -120.5 c 128,-1,110
 666 -166 666 -166 650.5 -223 c 128,-1,111
 635 -280 635 -280 612.5 -325 c 128,-1,112
 590 -370 590 -370 559.5 -412 c 128,-1,113
 529 -454 529 -454 485.5 -481.5 c 128,-1,114
 442 -509 442 -509 389 -519 c 1,115,116
 287 -534 287 -534 207 -492.5 c 128,-1,117
 127 -451 127 -451 117 -372 c 1,118,119
 108 -327 108 -327 133 -294.5 c 128,-1,120
 158 -262 158 -262 205 -263 c 0,121,122
 252 -265 252 -265 273.5 -304.5 c 128,-1,123
 295 -344 295 -344 277.5 -385.5 c 128,-1,124
 260 -427 260 -427 209 -435 c 1,125,-1
 209 -437 l 1,126,127
 272 -469 272 -469 297 -474 c 0,128,129
 343 -482 343 -482 379.5 -469.5 c 128,-1,130
 416 -457 416 -457 440.5 -432.5 c 128,-1,131
 465 -408 465 -408 484 -365 c 128,-1,132
 503 -322 503 -322 513 -280.5 c 128,-1,133
 523 -239 523 -239 531 -181 c 128,-1,134
 539 -123 539 -123 542 -80.5 c 128,-1,135
 545 -38 545 -38 548.5 19.5 c 128,-1,136
 552 77 552 77 555 105 c 1,137,138
 452 122 452 122 365 179.5 c 128,-1,139
 278 237 278 237 221 318 c 1,140,141
 137 442 137 442 131 591 c 128,-1,142
 125 740 125 740 197 871 c 128,-1,143
 269 1002 269 1002 403 1072 c 0,144,145
 518 1131 518 1131 657 1131 c 1,0,1
647 1050 m 1,146,147
 543 1050 543 1050 449 1002 c 1,148,149
 368 962 368 962 310.5 889.5 c 128,-1,150
 253 817 253 817 229 734 c 128,-1,151
 205 651 205 651 215 559.5 c 128,-1,152
 225 468 225 468 272 390 c 1,153,154
 316 315 316 315 392 261 c 128,-1,155
 468 207 468 207 561 187 c 1,156,157
 561 251 561 251 582 456 c 1,158,159
 603 718 603 718 647 1050 c 1,146,147
1329 1050 m 1,160,-1
 844 1050 l 1,161,162
 837 1051 837 1051 824.5 1051 c 128,-1,163
 812 1051 812 1051 807 1045 c 1,164,165
 801 1040 801 1040 800.5 1020 c 128,-1,166
 800 1000 800 1000 801 992 c 1,167,168
 798 961 798 961 794 905 c 128,-1,169
 790 849 790 849 788 828 c 0,170,171
 735 301 735 301 717 179 c 1,172,-1
 1243 179 l 1,173,174
 1249 282 1249 282 1303 841 c 1,175,-1
 1329 1050 l 1,160,-1
1401 179 m 1,176,177
 1498 179 1498 179 1582 217 c 128,-1,178
 1666 255 1666 255 1721 320 c 128,-1,179
 1776 385 1776 385 1807 464.5 c 128,-1,180
 1838 544 1838 544 1835 633 c 128,-1,181
 1832 722 1832 722 1794 802 c 0,182,183
 1710 979 1710 979 1487 1041 c 1,184,185
 1482 966 1482 966 1470 828 c 128,-1,186
 1458 690 1458 690 1456 660 c 1,187,188
 1413 272 1413 272 1401 179 c 1,176,177
EndSplineSet
EndChar

StartChar: dispoiint
Encoding: 14 14 17
Width: 1878
GlyphClass: 2
Flags: W
LayerCount: 2
Fore
SplineSet
776 -194 m 1,0,1
 660 -173 660 -173 528 -71 c 1,2,3
 419 15 419 15 354 115 c 0,4,5
 249 276 249 276 233.5 467 c 128,-1,6
 218 658 218 658 293.5 835 c 128,-1,7
 369 1012 369 1012 520 1131 c 1,8,9
 689 1262 689 1262 899 1286 c 0,10,11
 942 1290 942 1290 1026 1290 c 1,12,13
 1034 1288 1034 1288 1050 1289.5 c 128,-1,14
 1066 1291 1066 1291 1071 1299 c 1,15,16
 1078 1315 1078 1315 1084.5 1350.5 c 128,-1,17
 1091 1386 1091 1386 1094 1397 c 2,18,-1
 1143 1608 l 2,19,20
 1174 1740 1174 1740 1199.5 1852 c 128,-1,21
 1225 1964 1225 1964 1260 2094.5 c 128,-1,22
 1295 2225 1295 2225 1331 2335 c 0,23,24
 1358 2416 1358 2416 1378 2468.5 c 128,-1,25
 1398 2521 1398 2521 1434.5 2589 c 128,-1,26
 1471 2657 1471 2657 1513 2706 c 0,27,28
 1570 2772 1570 2772 1630 2794 c 1,29,30
 1697 2820 1697 2820 1773.5 2799.5 c 128,-1,31
 1850 2779 1850 2779 1894 2722 c 0,32,33
 1920 2689 1920 2689 1928.5 2646 c 128,-1,34
 1937 2603 1937 2603 1919 2565.5 c 128,-1,35
 1901 2528 1901 2528 1855 2517 c 1,36,37
 1791 2504 1791 2504 1752 2557 c 128,-1,38
 1713 2610 1713 2610 1745 2667 c 0,39,40
 1754 2683 1754 2683 1770.5 2693.5 c 128,-1,41
 1787 2704 1787 2704 1798 2707 c 128,-1,42
 1809 2710 1809 2710 1835 2716 c 1,43,44
 1812 2728 1812 2728 1792 2740.5 c 128,-1,45
 1772 2753 1772 2753 1746 2759.5 c 128,-1,46
 1720 2766 1720 2766 1696 2761 c 0,47,48
 1654 2754 1654 2754 1616 2693 c 1,49,50
 1562 2612 1562 2612 1516 2458 c 1,51,52
 1485 2360 1485 2360 1455.5 2236 c 128,-1,53
 1426 2112 1426 2112 1411.5 2038 c 128,-1,54
 1397 1964 1397 1964 1368 1813 c 1,55,56
 1313 1508 1313 1508 1309 1483 c 1,57,58
 1281 1347 1281 1347 1276 1290 c 1,59,-1
 1763 1290 l 1,60,61
 1772 1289 1772 1289 1785 1289 c 128,-1,62
 1798 1289 1798 1289 1804 1295 c 1,63,64
 1811 1298 1811 1298 1817 1323 c 1,65,66
 1821 1345 1821 1345 1833 1397 c 0,67,68
 1875 1585 1875 1585 1903 1694 c 1,69,70
 1938 1848 1938 1848 1990.5 2054.5 c 128,-1,71
 2043 2261 2043 2261 2097 2409 c 0,72,73
 2137 2521 2137 2521 2182 2605.5 c 128,-1,74
 2227 2690 2227 2690 2294 2749 c 0,75,76
 2349 2797 2349 2797 2426 2806 c 128,-1,77
 2503 2815 2503 2815 2571 2778.5 c 128,-1,78
 2639 2742 2639 2742 2662 2669 c 1,79,80
 2672 2627 2672 2627 2664 2588.5 c 128,-1,81
 2656 2550 2656 2550 2623.5 2528.5 c 128,-1,82
 2591 2507 2591 2507 2546 2519 c 0,83,84
 2507 2529 2507 2529 2487.5 2561 c 128,-1,85
 2468 2593 2468 2593 2471.5 2627 c 128,-1,86
 2475 2661 2475 2661 2502.5 2687.5 c 128,-1,87
 2530 2714 2530 2714 2574 2714 c 1,88,-1
 2574 2716 l 1,89,90
 2572 2717 2572 2717 2561.5 2723 c 128,-1,91
 2551 2729 2551 2729 2548.5 2731 c 128,-1,92
 2546 2733 2546 2733 2536 2738 c 128,-1,93
 2526 2743 2526 2743 2522 2745 c 128,-1,94
 2518 2747 2518 2747 2508.5 2751 c 128,-1,95
 2499 2755 2499 2755 2494 2756.5 c 128,-1,96
 2489 2758 2489 2758 2480 2760 c 128,-1,97
 2471 2762 2471 2762 2464.5 2762.5 c 128,-1,98
 2458 2763 2458 2763 2450 2762.5 c 128,-1,99
 2442 2762 2442 2762 2435 2761 c 0,100,101
 2418 2758 2418 2758 2401 2745 c 128,-1,102
 2384 2732 2384 2732 2376.5 2722 c 128,-1,103
 2369 2712 2369 2712 2353 2691 c 1,104,105
 2330 2657 2330 2657 2309.5 2609.5 c 128,-1,106
 2289 2562 2289 2562 2279.5 2533.5 c 128,-1,107
 2270 2505 2270 2505 2251 2446 c 0,108,109
 2211 2315 2211 2315 2175.5 2157.5 c 128,-1,110
 2140 2000 2140 2000 2116 1864.5 c 128,-1,111
 2092 1729 2092 1729 2062 1571 c 0,112,113
 2058 1550 2058 1550 2040.5 1435 c 128,-1,114
 2023 1320 2023 1320 2009 1260 c 1,115,116
 2117 1239 2117 1239 2251 1141 c 1,117,118
 2347 1069 2347 1069 2419 969 c 1,119,120
 2563 761 2563 761 2553.5 505.5 c 128,-1,121
 2544 250 2544 250 2386 53 c 0,122,123
 2310 -43 2310 -43 2202.5 -110 c 128,-1,124
 2095 -177 2095 -177 1974 -205 c 0,125,126
 1887 -225 1887 -225 1788 -225 c 0,127,128
 1787 -225 1787 -225 1767.5 -223.5 c 128,-1,129
 1748 -222 1748 -222 1735.5 -223.5 c 128,-1,130
 1723 -225 1723 -225 1718 -231 c 0,131,132
 1714 -235 1714 -235 1708 -264 c 2,133,-1
 1690 -340 l 2,134,135
 1547 -941 1547 -941 1522 -1038 c 1,136,137
 1447 -1317 1447 -1317 1385 -1453 c 0,138,139
 1236 -1782 1236 -1782 1026 -1737 c 1,140,141
 945 -1723 945 -1723 889.5 -1654.5 c 128,-1,142
 834 -1586 834 -1586 860 -1511 c 1,143,144
 877 -1466 877 -1466 926.5 -1453 c 128,-1,145
 976 -1440 976 -1440 1014 -1468 c 1,146,147
 1049 -1492 1049 -1492 1052.5 -1540 c 128,-1,148
 1056 -1588 1056 -1588 1028 -1618 c 0,149,150
 1001 -1648 1001 -1648 950 -1648 c 1,151,-1
 950 -1650 l 1,152,153
 973 -1663 973 -1663 993 -1675.5 c 128,-1,154
 1013 -1688 1013 -1688 1039 -1694.5 c 128,-1,155
 1065 -1701 1065 -1701 1090 -1696 c 0,156,157
 1131 -1688 1131 -1688 1169 -1630 c 1,158,159
 1220 -1556 1220 -1556 1270 -1397 c 1,160,161
 1302 -1288 1302 -1288 1332 -1158.5 c 128,-1,162
 1362 -1029 1362 -1029 1384 -917.5 c 128,-1,163
 1406 -806 1406 -806 1432 -676 c 1,164,-1
 1479 -405 l 1,165,166
 1506 -274 1506 -274 1509 -225 c 1,167,-1
 1020 -225 l 2,168,169
 1019 -225 1019 -225 1008.5 -224 c 128,-1,170
 998 -223 998 -223 991.5 -224 c 128,-1,171
 985 -225 985 -225 981 -229 c 1,172,173
 976 -232 976 -232 969 -258 c 0,174,175
 966 -271 966 -271 960.5 -297 c 128,-1,176
 955 -323 955 -323 952 -334 c 2,177,-1
 881 -637 l 1,178,179
 849 -767 849 -767 823 -879 c 128,-1,180
 797 -991 797 -991 760.5 -1120 c 128,-1,181
 724 -1249 724 -1249 684 -1356 c 0,182,183
 643 -1466 643 -1466 600 -1546 c 128,-1,184
 557 -1626 557 -1626 492 -1683 c 0,185,186
 437 -1731 437 -1731 359.5 -1740 c 128,-1,187
 282 -1749 282 -1749 214 -1713 c 128,-1,188
 146 -1677 146 -1677 123 -1603 c 0,189,190
 103 -1539 103 -1539 137.5 -1487 c 128,-1,191
 172 -1435 172 -1435 240 -1454 c 0,192,193
 279 -1464 279 -1464 298 -1496 c 128,-1,194
 317 -1528 317 -1528 313.5 -1561.5 c 128,-1,195
 310 -1595 310 -1595 282.5 -1621.5 c 128,-1,196
 255 -1648 255 -1648 211 -1648 c 1,197,-1
 211 -1650 l 1,198,199
 242 -1669 242 -1669 256 -1676.5 c 128,-1,200
 270 -1684 270 -1684 298 -1692.5 c 128,-1,201
 326 -1701 326 -1701 350 -1696 c 0,202,203
 392 -1688 392 -1688 432 -1624 c 1,204,205
 455 -1590 455 -1590 476 -1542.5 c 128,-1,206
 497 -1495 497 -1495 506 -1469 c 128,-1,207
 515 -1443 515 -1443 535 -1382 c 1,208,209
 587 -1207 587 -1207 626 -1024.5 c 128,-1,210
 665 -842 665 -842 713 -558.5 c 128,-1,211
 761 -275 761 -275 776 -194 c 1,0,1
1051 1209 m 1,212,213
 934 1209 934 1209 874 1200 c 1,214,215
 655 1163 655 1163 498 1000 c 1,216,217
 344 837 344 837 317.5 610 c 128,-1,218
 291 383 291 383 406 189 c 1,219,220
 465 82 465 82 566.5 2.5 c 128,-1,221
 668 -77 668 -77 791 -114 c 1,222,223
 796 -63 796 -63 805 -9.5 c 128,-1,224
 814 44 814 44 829.5 124.5 c 128,-1,225
 845 205 845 205 850 230 c 0,226,227
 908 543 908 543 989 922 c 0,228,229
 995 947 995 947 1010 1010 c 128,-1,230
 1025 1073 1025 1073 1034.5 1119 c 128,-1,231
 1044 1165 1044 1165 1051 1209 c 1,212,213
1790 1209 m 1,232,-1
 1303 1209 l 1,233,-1
 1264 1204 l 1,234,235
 1259 1192 1259 1192 1256 1178 c 128,-1,236
 1253 1164 1253 1164 1250 1143.5 c 128,-1,237
 1247 1123 1247 1123 1245 1114 c 0,238,239
 1221 971 1221 971 1192.5 823 c 128,-1,240
 1164 675 1164 675 1122.5 468 c 128,-1,241
 1081 261 1081 261 1065 182 c 2,242,-1
 995 -143 l 1,243,-1
 1483 -143 l 2,244,245
 1485 -143 1485 -143 1491.5 -143.5 c 128,-1,246
 1498 -144 1498 -144 1503 -144 c 128,-1,247
 1508 -144 1508 -144 1513.5 -143 c 128,-1,248
 1519 -142 1519 -142 1522 -139 c 0,249,250
 1525 -137 1525 -137 1530 -114 c 1,251,252
 1533 -88 1533 -88 1540 -51 c 0,253,254
 1615 387 1615 387 1724 897 c 0,255,256
 1727 914 1727 914 1755 1030.5 c 128,-1,257
 1783 1147 1783 1147 1790 1209 c 1,232,-1
1997 1180 m 1,258,259
 1981 1087 1981 1087 1950 916 c 128,-1,260
 1919 745 1919 745 1911 703 c 0,261,262
 1775 38 1775 38 1735 -143 c 1,263,264
 1993 -143 1993 -143 2157 -41 c 0,265,266
 2314 57 2314 57 2397.5 222 c 128,-1,267
 2481 387 2481 387 2472 572 c 128,-1,268
 2463 757 2463 757 2359 910 c 1,269,270
 2244 1083 2244 1083 1997 1180 c 1,258,259
EndSplineSet
EndChar

StartChar: sqint
Encoding: 15 15 18
Width: 966
GlyphClass: 2
Flags: W
LayerCount: 2
Fore
SplineSet
657 1131 m 1,0,1
 661 1155 661 1155 666.5 1197.5 c 128,-1,2
 672 1240 672 1240 674 1252 c 0,3,4
 681 1299 681 1299 687.5 1337 c 128,-1,5
 694 1375 694 1375 706.5 1424.5 c 128,-1,6
 719 1474 719 1474 734 1513 c 128,-1,7
 749 1552 749 1552 772 1594 c 128,-1,8
 795 1636 795 1636 823 1665 c 128,-1,9
 851 1694 851 1694 890 1716.5 c 128,-1,10
 929 1739 929 1739 975 1748 c 1,11,12
 1012 1757 1012 1757 1057 1750 c 1,13,14
 1126 1744 1126 1744 1181.5 1704.5 c 128,-1,15
 1237 1665 1237 1665 1247 1605 c 0,16,17
 1255 1561 1255 1561 1233.5 1527 c 128,-1,18
 1212 1493 1212 1493 1167 1492 c 0,19,20
 1115 1490 1115 1490 1089 1536.5 c 128,-1,21
 1063 1583 1063 1583 1092 1627 c 0,22,23
 1108 1653 1108 1653 1153 1664 c 1,24,25
 1113 1696 1113 1696 1057.5 1705 c 128,-1,26
 1002 1714 1002 1714 956 1693 c 1,27,28
 913 1668 913 1668 884.5 1613 c 128,-1,29
 856 1558 856 1558 845.5 1494.5 c 128,-1,30
 835 1431 835 1431 827 1360 c 128,-1,31
 819 1289 819 1289 817 1232 c 1,32,33
 812 1146 812 1146 809 1131 c 1,34,-1
 1083 1131 l 1,35,36
 1102 1134 1102 1134 1138 1133.5 c 128,-1,37
 1174 1133 1174 1133 1188 1119 c 0,38,39
 1194 1114 1194 1114 1196.5 1105.5 c 128,-1,40
 1199 1097 1199 1097 1200 1093 c 128,-1,41
 1201 1089 1201 1089 1200 1074 c 1,42,-1
 1200 1060 l 1,43,-1
 1200 173 l 2,44,45
 1200 160 1200 160 1200 149 c 128,-1,46
 1200 138 1200 138 1198.5 129.5 c 128,-1,47
 1197 121 1197 121 1194 115 c 128,-1,48
 1191 109 1191 109 1184.5 105 c 128,-1,49
 1178 101 1178 101 1167.5 99 c 128,-1,50
 1157 97 1157 97 1141 97 c 2,51,-1
 707 97 l 1,52,53
 703 73 703 73 697.5 30.5 c 128,-1,54
 692 -12 692 -12 690 -24 c 0,55,56
 684 -70 684 -70 677 -108.5 c 128,-1,57
 670 -147 670 -147 657.5 -196.5 c 128,-1,58
 645 -246 645 -246 629.5 -285 c 128,-1,59
 614 -324 614 -324 590.5 -365.5 c 128,-1,60
 567 -407 567 -407 539 -436.5 c 128,-1,61
 511 -466 511 -466 472 -488.5 c 128,-1,62
 433 -511 433 -511 387 -519 c 0,63,64
 289 -534 289 -534 208.5 -493 c 128,-1,65
 128 -452 128 -452 115 -376 c 1,66,67
 106 -333 106 -333 128 -298.5 c 128,-1,68
 150 -264 150 -264 195 -263 c 0,69,70
 247 -261 247 -261 273 -307.5 c 128,-1,71
 299 -354 299 -354 270 -398 c 0,72,73
 254 -424 254 -424 209 -435 c 1,74,75
 249 -467 249 -467 305.5 -476 c 128,-1,76
 362 -485 362 -485 410 -462 c 1,77,78
 452 -438 452 -438 479.5 -383 c 128,-1,79
 507 -328 507 -328 518 -264.5 c 128,-1,80
 529 -201 529 -201 537 -130 c 128,-1,81
 545 -59 545 -59 547 -3 c 1,82,83
 552 81 552 81 555 97 c 1,84,-1
 281 97 l 1,85,86
 262 94 262 94 227 95 c 128,-1,87
 192 96 192 96 176 110 c 0,88,89
 170 115 170 115 167.5 123.5 c 128,-1,90
 165 132 165 132 164 135.5 c 128,-1,91
 163 139 163 139 164 154 c 1,92,-1
 164 169 l 1,93,-1
 164 1056 l 2,94,95
 164 1069 164 1069 164 1079.5 c 128,-1,96
 164 1090 164 1090 165 1098 c 128,-1,97
 166 1106 166 1106 169.5 1112.5 c 128,-1,98
 173 1119 173 1119 179.5 1123 c 128,-1,99
 186 1127 186 1127 196.5 1129 c 128,-1,100
 207 1131 207 1131 223 1131 c 2,101,-1
 657 1131 l 1,0,1
647 1050 m 1,102,-1
 246 1050 l 1,103,-1
 246 179 l 1,104,-1
 561 179 l 1,105,106
 561 239 561 239 582 456 c 1,107,108
 603 718 603 718 647 1050 c 1,102,-1
1118 1050 m 1,109,-1
 803 1050 l 1,110,111
 803 988 803 988 782 773 c 1,112,113
 761 513 761 513 717 179 c 1,114,-1
 1118 179 l 1,115,-1
 1118 1050 l 1,109,-1
EndSplineSet
EndChar

StartChar: dispsqint
Encoding: 16 16 19
Width: 1138
GlyphClass: 2
Flags: W
LayerCount: 2
Fore
SplineSet
770 -225 m 1,0,-1
 324 -225 l 2,1,2
 291 -225 291 -225 277 -209.5 c 128,-1,3
 263 -194 263 -194 265 -170.5 c 128,-1,4
 267 -147 267 -147 266 -119 c 1,5,-1
 266 1184 l 2,6,7
 266 1190 266 1190 265 1205.5 c 128,-1,8
 264 1221 264 1221 264 1231.5 c 128,-1,9
 264 1242 264 1242 266 1254 c 128,-1,10
 268 1266 268 1266 274 1274 c 0,11,12
 279 1280 279 1280 286 1284 c 128,-1,13
 293 1288 293 1288 300 1289 c 128,-1,14
 307 1290 307 1290 314.5 1290 c 128,-1,15
 322 1290 322 1290 330 1290 c 2,16,-1
 1024 1290 l 1,17,18
 1032 1289 1032 1289 1047 1289 c 128,-1,19
 1062 1289 1062 1289 1067 1295 c 0,20,21
 1075 1303 1075 1303 1075 1321 c 1,22,23
 1076 1326 1076 1326 1090 1383 c 2,24,-1
 1145 1616 l 2,25,26
 1160 1678 1160 1678 1196.5 1836 c 128,-1,27
 1233 1994 1233 1994 1254.5 2079 c 128,-1,28
 1276 2164 1276 2164 1316 2289.5 c 128,-1,29
 1356 2415 1356 2415 1401 2515 c 0,30,31
 1418 2554 1418 2554 1433.5 2585.5 c 128,-1,32
 1449 2617 1449 2617 1473.5 2655 c 128,-1,33
 1498 2693 1498 2693 1523 2720 c 128,-1,34
 1548 2747 1548 2747 1582.5 2770 c 128,-1,35
 1617 2793 1617 2793 1655 2802 c 0,36,37
 1721 2819 1721 2819 1792 2795 c 128,-1,38
 1863 2771 1863 2771 1901 2716 c 1,39,40
 1923 2686 1923 2686 1931 2647.5 c 128,-1,41
 1939 2609 1939 2609 1925.5 2573.5 c 128,-1,42
 1912 2538 1912 2538 1874 2523 c 0,43,44
 1845 2511 1845 2511 1811 2518.5 c 128,-1,45
 1777 2526 1777 2526 1757 2550 c 1,46,47
 1734 2583 1734 2583 1734.5 2619.5 c 128,-1,48
 1735 2656 1735 2656 1763.5 2685 c 128,-1,49
 1792 2714 1792 2714 1835 2714 c 1,50,51
 1809 2737 1809 2737 1782 2749 c 1,52,53
 1724 2771 1724 2771 1690 2761 c 0,54,55
 1649 2748 1649 2748 1618 2695 c 1,56,57
 1565 2621 1565 2621 1524 2482 c 1,58,59
 1490 2379 1490 2379 1459 2249.5 c 128,-1,60
 1428 2120 1428 2120 1412 2039.5 c 128,-1,61
 1396 1959 1396 1959 1366 1802 c 1,62,63
 1343 1696 1343 1696 1315 1547.5 c 128,-1,64
 1287 1399 1287 1399 1276 1290 c 1,65,-1
 1720 1290 l 2,66,67
 1753 1290 1753 1290 1767 1278 c 1,68,69
 1780 1265 1780 1265 1781 1235.5 c 128,-1,70
 1782 1206 1782 1206 1780 1188 c 1,71,-1
 1780 -117 l 2,72,73
 1780 -122 1780 -122 1781.5 -144.5 c 128,-1,74
 1783 -167 1783 -167 1781.5 -182 c 128,-1,75
 1780 -197 1780 -197 1774 -207 c 0,76,77
 1770 -213 1770 -213 1764.5 -216.5 c 128,-1,78
 1759 -220 1759 -220 1753.5 -222 c 128,-1,79
 1748 -224 1748 -224 1741.5 -224.5 c 128,-1,80
 1735 -225 1735 -225 1729 -225 c 128,-1,81
 1723 -225 1723 -225 1716 -225 c 2,82,-1
 1022 -225 l 2,83,84
 1021 -225 1021 -225 1009 -224 c 128,-1,85
 997 -223 997 -223 990 -224 c 128,-1,86
 983 -225 983 -225 979 -229 c 0,87,88
 971 -237 971 -237 971 -256 c 1,89,90
 967 -268 967 -268 962 -291 c 128,-1,91
 957 -314 957 -314 956 -317 c 2,92,-1
 901 -551 l 2,93,94
 886 -613 886 -613 849.5 -771 c 128,-1,95
 813 -929 813 -929 791.5 -1014 c 128,-1,96
 770 -1099 770 -1099 730 -1224.5 c 128,-1,97
 690 -1350 690 -1350 645 -1450 c 0,98,99
 623 -1500 623 -1500 602 -1539 c 128,-1,100
 581 -1578 581 -1578 549.5 -1622 c 128,-1,101
 518 -1666 518 -1666 478 -1695.5 c 128,-1,102
 438 -1725 438 -1725 391 -1737 c 0,103,104
 326 -1754 326 -1754 254.5 -1729.5 c 128,-1,105
 183 -1705 183 -1705 145 -1650 c 1,106,107
 123 -1620 123 -1620 115 -1582 c 128,-1,108
 107 -1544 107 -1544 120.5 -1508.5 c 128,-1,109
 134 -1473 134 -1473 172 -1458 c 0,110,111
 201 -1446 201 -1446 235 -1453.5 c 128,-1,112
 269 -1461 269 -1461 289 -1485 c 1,113,114
 312 -1518 312 -1518 311.5 -1554.5 c 128,-1,115
 311 -1591 311 -1591 282.5 -1619.5 c 128,-1,116
 254 -1648 254 -1648 211 -1648 c 1,117,118
 237 -1672 237 -1672 264 -1683 c 0,119,120
 321 -1706 321 -1706 356 -1696 c 1,121,122
 398 -1681 398 -1681 428 -1630 c 1,123,124
 481 -1556 481 -1556 522 -1417 c 1,125,126
 555 -1314 555 -1314 587 -1183 c 128,-1,127
 619 -1052 619 -1052 634.5 -974.5 c 128,-1,128
 650 -897 650 -897 680 -737 c 1,129,130
 703 -631 703 -631 731 -482.5 c 128,-1,131
 759 -334 759 -334 770 -225 c 1,0,-1
1051 1209 m 1,132,-1
 348 1209 l 1,133,-1
 348 -143 l 1,134,-1
 750 -143 l 1,135,-1
 782 -139 l 1,136,137
 787 -127 787 -127 790 -112.5 c 128,-1,138
 793 -98 793 -98 796 -78 c 128,-1,139
 799 -58 799 -58 801 -49 c 0,140,141
 825 94 825 94 853 240 c 128,-1,142
 881 386 881 386 924 599 c 128,-1,143
 967 812 967 812 981 883 c 1,144,-1
 1051 1209 l 1,132,-1
1698 1209 m 1,145,-1
 1296 1209 l 1,146,-1
 1264 1204 l 1,147,148
 1259 1192 1259 1192 1256 1178 c 128,-1,149
 1253 1164 1253 1164 1250 1143.5 c 128,-1,150
 1247 1123 1247 1123 1245 1114 c 0,151,152
 1221 971 1221 971 1192.5 823 c 128,-1,153
 1164 675 1164 675 1122.5 468 c 128,-1,154
 1081 261 1081 261 1065 182 c 2,155,-1
 995 -143 l 1,156,-1
 1698 -143 l 1,157,-1
 1698 1209 l 1,145,-1
EndSplineSet
EndChar

StartChar: sqiint
Encoding: 17 17 20
Width: 1650
GlyphClass: 2
Flags: W
LayerCount: 2
Fore
SplineSet
657 1131 m 1,0,1
 660 1151 660 1151 670 1226.5 c 128,-1,2
 680 1302 680 1302 688 1342 c 0,3,4
 698 1395 698 1395 711.5 1443 c 128,-1,5
 725 1491 725 1491 749 1544 c 128,-1,6
 773 1597 773 1597 803 1637.5 c 128,-1,7
 833 1678 833 1678 877.5 1708.5 c 128,-1,8
 922 1739 922 1739 975 1748 c 1,9,10
 1073 1762 1073 1762 1153.5 1721.5 c 128,-1,11
 1234 1681 1234 1681 1247 1605 c 0,12,13
 1255 1561 1255 1561 1233.5 1527 c 128,-1,14
 1212 1493 1212 1493 1167 1492 c 0,15,16
 1115 1490 1115 1490 1089 1536.5 c 128,-1,17
 1063 1583 1063 1583 1092 1627 c 0,18,19
 1108 1653 1108 1653 1153 1664 c 1,20,21
 1113 1696 1113 1696 1059 1705 c 128,-1,22
 1005 1714 1005 1714 958 1693 c 1,23,24
 932 1679 932 1679 912 1655 c 128,-1,25
 892 1631 892 1631 878.5 1597.5 c 128,-1,26
 865 1564 865 1564 856 1532.5 c 128,-1,27
 847 1501 847 1501 840.5 1456.5 c 128,-1,28
 834 1412 834 1412 831 1381 c 128,-1,29
 828 1350 828 1350 823.5 1302.5 c 128,-1,30
 819 1255 819 1255 817 1232 c 0,31,32
 812 1146 812 1146 809 1131 c 1,33,-1
 1341 1131 l 1,34,35
 1341 1149 1341 1149 1343.5 1169.5 c 128,-1,36
 1346 1190 1346 1190 1351 1217 c 128,-1,37
 1356 1244 1356 1244 1358 1256 c 0,38,39
 1388 1505 1388 1505 1483 1633 c 1,40,41
 1547 1721 1547 1721 1651.5 1745.5 c 128,-1,42
 1756 1770 1756 1770 1851 1713 c 0,43,44
 1922 1671 1922 1671 1931 1598 c 0,45,46
 1936 1550 1936 1550 1907 1517.5 c 128,-1,47
 1878 1485 1878 1485 1831 1494 c 0,48,49
 1787 1502 1787 1502 1768 1540 c 128,-1,50
 1749 1578 1749 1578 1768 1616.5 c 128,-1,51
 1787 1655 1787 1655 1837 1664 c 1,52,-1
 1837 1666 l 1,53,54
 1813 1676 1813 1676 1793.5 1686.5 c 128,-1,55
 1774 1697 1774 1697 1747 1703.5 c 128,-1,56
 1720 1710 1720 1710 1692 1707 c 0,57,58
 1658 1704 1658 1704 1630.5 1686 c 128,-1,59
 1603 1668 1603 1668 1585 1640 c 128,-1,60
 1567 1612 1567 1612 1553 1575.5 c 128,-1,61
 1539 1539 1539 1539 1531.5 1499 c 128,-1,62
 1524 1459 1524 1459 1517.5 1416 c 128,-1,63
 1511 1373 1511 1373 1509 1333 c 128,-1,64
 1507 1293 1507 1293 1503 1256 c 0,65,66
 1493 1153 1493 1153 1493 1131 c 1,67,-1
 1792 1131 l 1,68,69
 1812 1134 1812 1134 1850.5 1133.5 c 128,-1,70
 1889 1133 1889 1133 1905 1119 c 0,71,72
 1911 1114 1911 1114 1913.5 1105.5 c 128,-1,73
 1916 1097 1916 1097 1917 1093 c 128,-1,74
 1918 1089 1918 1089 1918 1074 c 1,75,-1
 1917 1060 l 1,76,-1
 1917 173 l 2,77,78
 1917 160 1917 160 1917 149 c 128,-1,79
 1917 138 1917 138 1915.5 129.5 c 128,-1,80
 1914 121 1914 121 1911 115 c 128,-1,81
 1908 109 1908 109 1901.5 105 c 128,-1,82
 1895 101 1895 101 1884.5 99 c 128,-1,83
 1874 97 1874 97 1858 97 c 2,84,-1
 1389 97 l 1,85,86
 1384 54 1384 54 1372 -32 c 0,87,88
 1355 -148 1355 -148 1330 -235 c 128,-1,89
 1305 -322 1305 -322 1255 -392 c 0,90,91
 1189 -486 1189 -486 1083.5 -514 c 128,-1,92
 978 -542 978 -542 877 -484 c 1,93,94
 808 -440 808 -440 799 -370 c 0,95,96
 793 -325 793 -325 818.5 -292.5 c 128,-1,97
 844 -260 844 -260 889 -263 c 0,98,99
 938 -266 938 -266 960 -311.5 c 128,-1,100
 982 -357 982 -357 954 -398 c 1,101,102
 938 -424 938 -424 893 -435 c 1,103,104
 933 -467 933 -467 987 -476.5 c 128,-1,105
 1041 -486 1041 -486 1087 -464 c 1,106,107
 1129 -441 1129 -441 1156.5 -388.5 c 128,-1,108
 1184 -336 1184 -336 1194.5 -286.5 c 128,-1,109
 1205 -237 1205 -237 1212 -169 c 1,110,111
 1227 -48 1227 -48 1237 97 c 1,112,-1
 707 97 l 1,113,114
 703 75 703 75 697.5 33.5 c 128,-1,115
 692 -8 692 -8 690 -22 c 0,116,117
 683 -75 683 -75 674.5 -120.5 c 128,-1,118
 666 -166 666 -166 650.5 -223 c 128,-1,119
 635 -280 635 -280 612.5 -325 c 128,-1,120
 590 -370 590 -370 559.5 -412 c 128,-1,121
 529 -454 529 -454 485.5 -481.5 c 128,-1,122
 442 -509 442 -509 389 -519 c 1,123,124
 287 -534 287 -534 207 -492.5 c 128,-1,125
 127 -451 127 -451 117 -372 c 1,126,127
 108 -327 108 -327 133 -294.5 c 128,-1,128
 158 -262 158 -262 205 -263 c 0,129,130
 252 -265 252 -265 273.5 -304.5 c 128,-1,131
 295 -344 295 -344 277.5 -385.5 c 128,-1,132
 260 -427 260 -427 209 -435 c 1,133,-1
 209 -437 l 1,134,135
 228 -448 228 -448 252.5 -459 c 128,-1,136
 277 -470 277 -470 299 -474 c 0,137,138
 334 -480 334 -480 363 -475 c 128,-1,139
 392 -470 392 -470 414 -455.5 c 128,-1,140
 436 -441 436 -441 454 -418.5 c 128,-1,141
 472 -396 472 -396 484 -367.5 c 128,-1,142
 496 -339 496 -339 506 -306 c 128,-1,143
 516 -273 516 -273 521 -237.5 c 128,-1,144
 526 -202 526 -202 531.5 -166 c 128,-1,145
 537 -130 537 -130 539 -94.5 c 128,-1,146
 541 -59 541 -59 545 -26 c 1,147,148
 550 71 550 71 555 97 c 1,149,-1
 254 97 l 1,150,151
 234 94 234 94 195.5 95 c 128,-1,152
 157 96 157 96 141 110 c 0,153,154
 135 115 135 115 132.5 123.5 c 128,-1,155
 130 132 130 132 129 135.5 c 128,-1,156
 128 139 128 139 128 154 c 2,157,-1
 129 169 l 1,158,-1
 129 1056 l 2,159,160
 129 1067 129 1067 129 1076.5 c 128,-1,161
 129 1086 129 1086 129.5 1094 c 128,-1,162
 130 1102 130 1102 132.5 1108 c 128,-1,163
 135 1114 135 1114 139 1118.5 c 128,-1,164
 143 1123 143 1123 149.5 1125.5 c 128,-1,165
 156 1128 156 1128 166 1129.5 c 128,-1,166
 176 1131 176 1131 190 1131 c 2,167,-1
 657 1131 l 1,0,1
647 1050 m 1,168,-1
 211 1050 l 1,169,-1
 211 179 l 1,170,-1
 530 179 l 2,171,172
 553 179 553 179 557 183 c 0,173,174
 563 188 563 188 563.5 208 c 128,-1,175
 564 228 564 228 563 236 c 0,176,177
 563 238 563 238 575 400 c 1,178,179
 581 453 581 453 595.5 600.5 c 128,-1,180
 610 748 610 748 621.5 850.5 c 128,-1,181
 633 953 633 953 647 1050 c 1,168,-1
1329 1050 m 1,182,-1
 844 1050 l 1,183,184
 837 1051 837 1051 824.5 1051 c 128,-1,185
 812 1051 812 1051 807 1045 c 1,186,187
 801 1040 801 1040 800.5 1020 c 128,-1,188
 800 1000 800 1000 801 992 c 1,189,190
 798 961 798 961 794 905 c 128,-1,191
 790 849 790 849 788 828 c 0,192,193
 735 301 735 301 717 179 c 1,194,-1
 1243 179 l 1,195,196
 1249 282 1249 282 1303 841 c 1,197,-1
 1329 1050 l 1,182,-1
1835 1050 m 1,198,-1
 1487 1050 l 1,199,200
 1440 492 1440 492 1401 179 c 1,201,-1
 1835 179 l 1,202,-1
 1835 1050 l 1,198,-1
EndSplineSet
EndChar

StartChar: dispsqiint
Encoding: 18 18 21
Width: 1878
GlyphClass: 2
Flags: W
LayerCount: 2
Fore
SplineSet
770 -225 m 1,0,-1
 291 -225 l 2,1,2
 256 -225 256 -225 242 -213 c 1,3,4
 229 -200 229 -200 228 -170 c 128,-1,5
 227 -140 227 -140 229 -123 c 1,6,-1
 229 1184 l 1,7,8
 227 1202 227 1202 227 1231 c 128,-1,9
 227 1260 227 1260 238 1274 c 0,10,11
 250 1290 250 1290 295 1290 c 2,12,-1
 1022 1290 l 1,13,14
 1030 1289 1030 1289 1045.5 1289 c 128,-1,15
 1061 1289 1061 1289 1067 1295 c 0,16,17
 1071 1299 1071 1299 1077 1323 c 2,18,-1
 1094 1395 l 1,19,-1
 1157 1665 l 2,20,21
 1171 1721 1171 1721 1202.5 1855.5 c 128,-1,22
 1234 1990 1234 1990 1252.5 2065 c 128,-1,23
 1271 2140 1271 2140 1304 2249 c 128,-1,24
 1337 2358 1337 2358 1372 2446 c 0,25,26
 1414 2554 1414 2554 1457.5 2631 c 128,-1,27
 1501 2708 1501 2708 1567 2759 c 0,28,29
 1631 2809 1631 2809 1717.5 2808 c 128,-1,30
 1804 2807 1804 2807 1866 2753 c 0,31,32
 1896 2726 1896 2726 1915.5 2686 c 128,-1,33
 1935 2646 1935 2646 1931 2602 c 128,-1,34
 1927 2558 1927 2558 1890 2532 c 1,35,36
 1856 2510 1856 2510 1818.5 2516.5 c 128,-1,37
 1781 2523 1781 2523 1759.5 2549 c 128,-1,38
 1738 2575 1738 2575 1732 2610 c 128,-1,39
 1726 2645 1726 2645 1755 2679 c 0,40,41
 1765 2692 1765 2692 1780 2699.5 c 128,-1,42
 1795 2707 1795 2707 1803.5 2709.5 c 128,-1,43
 1812 2712 1812 2712 1835 2716 c 1,44,45
 1812 2728 1812 2728 1792 2740.5 c 128,-1,46
 1772 2753 1772 2753 1746 2759.5 c 128,-1,47
 1720 2766 1720 2766 1696 2761 c 0,48,49
 1654 2754 1654 2754 1616 2693 c 1,50,51
 1562 2612 1562 2612 1516 2458 c 1,52,53
 1485 2360 1485 2360 1455.5 2236 c 128,-1,54
 1426 2112 1426 2112 1411.5 2038 c 128,-1,55
 1397 1964 1397 1964 1368 1813 c 1,56,57
 1313 1508 1313 1508 1309 1483 c 1,58,59
 1281 1347 1281 1347 1276 1290 c 1,60,-1
 1763 1290 l 1,61,62
 1772 1289 1772 1289 1785 1289 c 128,-1,63
 1798 1289 1798 1289 1804 1295 c 1,64,65
 1811 1298 1811 1298 1817 1323 c 1,66,67
 1821 1345 1821 1345 1833 1397 c 0,68,69
 1875 1585 1875 1585 1903 1694 c 1,70,71
 1938 1848 1938 1848 1990.5 2054.5 c 128,-1,72
 2043 2261 2043 2261 2097 2409 c 0,73,74
 2137 2521 2137 2521 2182 2605.5 c 128,-1,75
 2227 2690 2227 2690 2294 2749 c 0,76,77
 2349 2797 2349 2797 2426 2806 c 128,-1,78
 2503 2815 2503 2815 2571 2778.5 c 128,-1,79
 2639 2742 2639 2742 2662 2669 c 1,80,81
 2672 2627 2672 2627 2664 2588.5 c 128,-1,82
 2656 2550 2656 2550 2623.5 2528.5 c 128,-1,83
 2591 2507 2591 2507 2546 2519 c 0,84,85
 2507 2529 2507 2529 2487.5 2561 c 128,-1,86
 2468 2593 2468 2593 2471.5 2627 c 128,-1,87
 2475 2661 2475 2661 2502.5 2687.5 c 128,-1,88
 2530 2714 2530 2714 2574 2714 c 1,89,-1
 2574 2716 l 1,90,91
 2572 2717 2572 2717 2561.5 2723 c 128,-1,92
 2551 2729 2551 2729 2548.5 2731 c 128,-1,93
 2546 2733 2546 2733 2536 2738 c 128,-1,94
 2526 2743 2526 2743 2522 2745 c 128,-1,95
 2518 2747 2518 2747 2508.5 2751 c 128,-1,96
 2499 2755 2499 2755 2494 2756.5 c 128,-1,97
 2489 2758 2489 2758 2480 2760 c 128,-1,98
 2471 2762 2471 2762 2464.5 2762.5 c 128,-1,99
 2458 2763 2458 2763 2450 2762.5 c 128,-1,100
 2442 2762 2442 2762 2435 2761 c 0,101,102
 2395 2754 2395 2754 2355 2693 c 1,103,104
 2302 2616 2302 2616 2255 2458 c 1,105,106
 2235 2396 2235 2396 2217 2327 c 128,-1,107
 2199 2258 2199 2258 2184.5 2194 c 128,-1,108
 2170 2130 2170 2130 2155.5 2060.5 c 128,-1,109
 2141 1991 2141 1991 2129 1926.5 c 128,-1,110
 2117 1862 2117 1862 2103 1792 c 1,111,-1
 2042 1450 l 2,112,113
 2039 1431 2039 1431 2028.5 1376 c 128,-1,114
 2018 1321 2018 1321 2015 1290 c 1,115,-1
 2494 1290 l 2,116,117
 2531 1290 2531 1290 2544 1278 c 0,118,119
 2557 1265 2557 1265 2557.5 1235.5 c 128,-1,120
 2558 1206 2558 1206 2556 1188 c 1,121,-1
 2556 -121 l 2,122,123
 2556 -126 2556 -126 2557 -141 c 128,-1,124
 2558 -156 2558 -156 2558 -166 c 128,-1,125
 2558 -176 2558 -176 2556 -188.5 c 128,-1,126
 2554 -201 2554 -201 2548 -209 c 0,127,128
 2535 -225 2535 -225 2490 -225 c 2,129,-1
 1763 -225 l 2,130,131
 1762 -225 1762 -225 1750 -224 c 128,-1,132
 1738 -223 1738 -223 1730.5 -224 c 128,-1,133
 1723 -225 1723 -225 1718 -229 c 0,134,135
 1714 -233 1714 -233 1708 -258 c 0,136,137
 1687 -362 1687 -362 1660.5 -475 c 128,-1,138
 1634 -588 1634 -588 1597 -735.5 c 128,-1,139
 1560 -883 1560 -883 1544 -950 c 0,140,141
 1462 -1278 1462 -1278 1382 -1458 c 0,142,143
 1359 -1508 1359 -1508 1337.5 -1547 c 128,-1,144
 1316 -1586 1316 -1586 1284 -1629 c 128,-1,145
 1252 -1672 1252 -1672 1211.5 -1700.5 c 128,-1,146
 1171 -1729 1171 -1729 1124 -1739 c 0,147,148
 1058 -1753 1058 -1753 989.5 -1727.5 c 128,-1,149
 921 -1702 921 -1702 885 -1648 c 0,150,151
 864 -1617 864 -1617 857 -1579.5 c 128,-1,152
 850 -1542 850 -1542 864 -1506.5 c 128,-1,153
 878 -1471 878 -1471 915 -1456 c 1,154,155
 959 -1440 959 -1440 994.5 -1458.5 c 128,-1,156
 1030 -1477 1030 -1477 1044 -1510.5 c 128,-1,157
 1058 -1544 1058 -1544 1047.5 -1582 c 128,-1,158
 1037 -1620 1037 -1620 999 -1638 c 0,159,160
 979 -1648 979 -1648 950 -1648 c 1,161,-1
 950 -1650 l 1,162,163
 973 -1663 973 -1663 993 -1675.5 c 128,-1,164
 1013 -1688 1013 -1688 1039 -1694.5 c 128,-1,165
 1065 -1701 1065 -1701 1090 -1696 c 0,166,167
 1131 -1688 1131 -1688 1169 -1630 c 1,168,169
 1220 -1556 1220 -1556 1270 -1397 c 1,170,171
 1302 -1288 1302 -1288 1332 -1158.5 c 128,-1,172
 1362 -1029 1362 -1029 1384 -917.5 c 128,-1,173
 1406 -806 1406 -806 1432 -676 c 1,174,-1
 1479 -405 l 1,175,176
 1506 -274 1506 -274 1509 -225 c 1,177,-1
 1020 -225 l 2,178,179
 1019 -225 1019 -225 1008.5 -224 c 128,-1,180
 998 -223 998 -223 991.5 -224 c 128,-1,181
 985 -225 985 -225 981 -229 c 1,182,183
 976 -232 976 -232 969 -258 c 0,184,185
 966 -271 966 -271 960.5 -297 c 128,-1,186
 955 -323 955 -323 952 -334 c 2,187,-1
 881 -637 l 1,188,189
 849 -767 849 -767 823 -879 c 128,-1,190
 797 -991 797 -991 760.5 -1120 c 128,-1,191
 724 -1249 724 -1249 684 -1356 c 0,192,193
 643 -1466 643 -1466 600 -1546 c 128,-1,194
 557 -1626 557 -1626 492 -1683 c 0,195,196
 437 -1731 437 -1731 359.5 -1740 c 128,-1,197
 282 -1749 282 -1749 214 -1713 c 128,-1,198
 146 -1677 146 -1677 123 -1603 c 0,199,200
 103 -1539 103 -1539 137.5 -1487 c 128,-1,201
 172 -1435 172 -1435 240 -1454 c 0,202,203
 279 -1464 279 -1464 298 -1496 c 128,-1,204
 317 -1528 317 -1528 313.5 -1561.5 c 128,-1,205
 310 -1595 310 -1595 282.5 -1621.5 c 128,-1,206
 255 -1648 255 -1648 211 -1648 c 1,207,-1
 211 -1650 l 1,208,209
 242 -1669 242 -1669 256 -1676.5 c 128,-1,210
 270 -1684 270 -1684 298 -1692.5 c 128,-1,211
 326 -1701 326 -1701 350 -1696 c 0,212,213
 394 -1687 394 -1687 432 -1626 c 0,214,215
 485 -1540 485 -1540 530 -1392 c 1,216,217
 594 -1190 594 -1190 678 -747 c 1,218,219
 730 -463 730 -463 737 -418 c 1,220,221
 765 -282 765 -282 770 -225 c 1,0,-1
1051 1209 m 1,222,-1
 311 1209 l 1,223,-1
 311 -143 l 1,224,-1
 748 -143 l 1,225,-1
 782 -139 l 1,226,227
 787 -127 787 -127 790 -112.5 c 128,-1,228
 793 -98 793 -98 796 -78 c 128,-1,229
 799 -58 799 -58 801 -49 c 0,230,231
 825 94 825 94 853 240 c 128,-1,232
 881 386 881 386 924 599 c 128,-1,233
 967 812 967 812 981 883 c 1,234,-1
 1051 1209 l 1,222,-1
1790 1209 m 1,235,-1
 1303 1209 l 1,236,-1
 1264 1204 l 1,237,238
 1259 1192 1259 1192 1256 1178 c 128,-1,239
 1253 1164 1253 1164 1250 1143.5 c 128,-1,240
 1247 1123 1247 1123 1245 1114 c 0,241,242
 1221 971 1221 971 1192.5 823 c 128,-1,243
 1164 675 1164 675 1122.5 468 c 128,-1,244
 1081 261 1081 261 1065 182 c 2,245,-1
 995 -143 l 1,246,-1
 1483 -143 l 2,247,248
 1485 -143 1485 -143 1491.5 -143.5 c 128,-1,249
 1498 -144 1498 -144 1503 -144 c 128,-1,250
 1508 -144 1508 -144 1513.5 -143 c 128,-1,251
 1519 -142 1519 -142 1522 -139 c 0,252,253
 1525 -137 1525 -137 1530 -114 c 1,254,255
 1533 -88 1533 -88 1540 -51 c 0,256,257
 1615 387 1615 387 1724 897 c 0,258,259
 1727 914 1727 914 1755 1030.5 c 128,-1,260
 1783 1147 1783 1147 1790 1209 c 1,235,-1
2474 1209 m 1,261,-1
 2038 1209 l 1,262,-1
 2003 1204 l 1,263,264
 1999 1192 1999 1192 1996 1177.5 c 128,-1,265
 1993 1163 1993 1163 1990 1143.5 c 128,-1,266
 1987 1124 1987 1124 1985 1114 c 0,267,268
 1961 969 1961 969 1930.5 812 c 128,-1,269
 1900 655 1900 655 1860 458.5 c 128,-1,270
 1820 262 1820 262 1800 162 c 1,271,-1
 1735 -143 l 1,272,-1
 2474 -143 l 1,273,-1
 2474 1209 l 1,261,-1
EndSplineSet
EndChar

StartChar: dotsintcopy
Encoding: 19 19 22
Width: 3014
GlyphClass: 2
Flags: W
LayerCount: 2
Fore
SplineSet
211 -435 m 1,0,1
 263 -478 263 -478 344 -478 c 1,2,3
 377 -477 377 -477 404 -462 c 128,-1,4
 431 -447 431 -447 449 -426.5 c 128,-1,5
 467 -406 467 -406 482 -370.5 c 128,-1,6
 497 -335 497 -335 505.5 -307 c 128,-1,7
 514 -279 514 -279 521 -234 c 128,-1,8
 528 -189 528 -189 530.5 -164 c 128,-1,9
 533 -139 533 -139 537 -97 c 0,10,11
 544 -11 544 -11 557.5 180 c 128,-1,12
 571 371 571 371 580 472 c 0,13,14
 595 635 595 635 647 1064 c 1,15,16
 653 1132 653 1132 663.5 1210.5 c 128,-1,17
 674 1289 674 1289 687 1359.5 c 128,-1,18
 700 1430 700 1430 728.5 1503 c 128,-1,19
 757 1576 757 1576 799 1633 c 0,20,21
 860 1715 860 1715 955 1741.5 c 128,-1,22
 1050 1768 1050 1768 1143 1725 c 0,23,24
 1198 1699 1198 1699 1225 1658 c 1,25,26
 1246 1624 1246 1624 1246.5 1584 c 128,-1,27
 1247 1544 1247 1544 1222.5 1516 c 128,-1,28
 1198 1488 1198 1488 1153 1492 c 0,29,30
 1104 1496 1104 1496 1083.5 1541 c 128,-1,31
 1063 1586 1063 1586 1090 1627 c 0,32,33
 1106 1653 1106 1653 1151 1664 c 1,34,35
 1099 1707 1099 1707 1018 1707 c 1,36,37
 985 1706 985 1706 957.5 1691.5 c 128,-1,38
 930 1677 930 1677 911.5 1656.5 c 128,-1,39
 893 1636 893 1636 878 1601 c 128,-1,40
 863 1566 863 1566 854.5 1537.5 c 128,-1,41
 846 1509 846 1509 839 1464.5 c 128,-1,42
 832 1420 832 1420 829.5 1394 c 128,-1,43
 827 1368 827 1368 823 1326 c 0,44,45
 815 1234 815 1234 803 1059 c 128,-1,46
 791 884 791 884 784 804 c 0,47,48
 758 486 758 486 711 142 c 0,49,50
 707 113 707 113 697 33 c 128,-1,51
 687 -47 687 -47 679.5 -89 c 128,-1,52
 672 -131 672 -131 657 -195.5 c 128,-1,53
 642 -260 642 -260 618 -311 c 128,-1,54
 594 -362 594 -362 561 -407 c 0,55,56
 500 -488 500 -488 406 -514 c 128,-1,57
 312 -540 312 -540 219 -497 c 1,58,59
 164 -469 164 -469 137 -429 c 1,60,61
 116 -396 116 -396 115.5 -356 c 128,-1,62
 115 -316 115 -316 139.5 -287.5 c 128,-1,63
 164 -259 164 -259 209 -263 c 0,64,65
 257 -267 257 -267 278 -312 c 128,-1,66
 299 -357 299 -357 272 -398 c 0,67,68
 256 -424 256 -424 211 -435 c 1,0,1
2259 -435 m 1,69,70
 2311 -478 2311 -478 2392 -478 c 1,71,72
 2425 -477 2425 -477 2452 -462 c 128,-1,73
 2479 -447 2479 -447 2497 -426.5 c 128,-1,74
 2515 -406 2515 -406 2530 -370.5 c 128,-1,75
 2545 -335 2545 -335 2553.5 -307 c 128,-1,76
 2562 -279 2562 -279 2569 -234 c 128,-1,77
 2576 -189 2576 -189 2578.5 -164 c 128,-1,78
 2581 -139 2581 -139 2585 -97 c 0,79,80
 2594 0 2594 0 2605.5 177.5 c 128,-1,81
 2617 355 2617 355 2623 425 c 0,82,83
 2653 769 2653 769 2697 1076 c 0,84,85
 2712 1178 2712 1178 2721 1269 c 128,-1,86
 2730 1360 2730 1360 2761.5 1460.5 c 128,-1,87
 2793 1561 2793 1561 2847 1633 c 0,88,89
 2908 1715 2908 1715 3003 1741.5 c 128,-1,90
 3098 1768 3098 1768 3191 1725 c 0,91,92
 3246 1699 3246 1699 3273 1658 c 1,93,94
 3294 1624 3294 1624 3294.5 1584 c 128,-1,95
 3295 1544 3295 1544 3270.5 1516 c 128,-1,96
 3246 1488 3246 1488 3201 1492 c 0,97,98
 3152 1496 3152 1496 3131.5 1541 c 128,-1,99
 3111 1586 3111 1586 3138 1627 c 0,100,101
 3154 1653 3154 1653 3199 1664 c 1,102,103
 3147 1707 3147 1707 3066 1707 c 1,104,105
 3033 1706 3033 1706 3005.5 1691.5 c 128,-1,106
 2978 1677 2978 1677 2959.5 1656.5 c 128,-1,107
 2941 1636 2941 1636 2926 1601 c 128,-1,108
 2911 1566 2911 1566 2902.5 1537.5 c 128,-1,109
 2894 1509 2894 1509 2887 1464.5 c 128,-1,110
 2880 1420 2880 1420 2877.5 1394 c 128,-1,111
 2875 1368 2875 1368 2871 1326 c 0,112,113
 2864 1241 2864 1241 2851.5 1058 c 128,-1,114
 2839 875 2839 875 2830 779 c 0,115,116
 2806 498 2806 498 2759 142 c 0,117,118
 2755 113 2755 113 2745 33 c 128,-1,119
 2735 -47 2735 -47 2727.5 -89 c 128,-1,120
 2720 -131 2720 -131 2705 -195.5 c 128,-1,121
 2690 -260 2690 -260 2666 -311 c 128,-1,122
 2642 -362 2642 -362 2609 -407 c 0,123,124
 2548 -488 2548 -488 2454 -514 c 128,-1,125
 2360 -540 2360 -540 2267 -497 c 1,126,127
 2212 -469 2212 -469 2185 -429 c 1,128,129
 2164 -396 2164 -396 2163.5 -356 c 128,-1,130
 2163 -316 2163 -316 2187.5 -287.5 c 128,-1,131
 2212 -259 2212 -259 2257 -263 c 0,132,133
 2305 -267 2305 -267 2326 -312 c 128,-1,134
 2347 -357 2347 -357 2320 -398 c 0,135,136
 2304 -424 2304 -424 2259 -435 c 1,69,70
1192 722 m 0,137,138
 1247 723 1247 723 1278 682 c 128,-1,139
 1309 641 1309 641 1299.5 590.5 c 128,-1,140
 1290 540 1290 540 1241 517 c 1,141,142
 1223 507 1223 507 1196 507 c 0,143,144
 1155 506 1155 506 1126 531 c 128,-1,145
 1097 556 1097 556 1089 589.5 c 128,-1,146
 1081 623 1081 623 1095.5 658.5 c 128,-1,147
 1110 694 1110 694 1147 712 c 1,148,149
 1164 722 1164 722 1192 722 c 0,137,138
1704 722 m 0,150,151
 1759 723 1759 723 1790 682 c 128,-1,152
 1821 641 1821 641 1811.5 590.5 c 128,-1,153
 1802 540 1802 540 1753 517 c 1,154,155
 1736 507 1736 507 1708 507 c 0,156,157
 1667 506 1667 506 1638 531 c 128,-1,158
 1609 556 1609 556 1601 589.5 c 128,-1,159
 1593 623 1593 623 1607.5 658.5 c 128,-1,160
 1622 694 1622 694 1659 712 c 1,161,162
 1676 722 1676 722 1704 722 c 0,150,151
2216 722 m 0,163,164
 2270 723 2270 723 2301 682 c 128,-1,165
 2332 641 2332 641 2323 590.5 c 128,-1,166
 2314 540 2314 540 2265 517 c 0,167,168
 2242 507 2242 507 2220 507 c 0,169,170
 2179 506 2179 506 2150 531 c 128,-1,171
 2121 556 2121 556 2113 589.5 c 128,-1,172
 2105 623 2105 623 2119.5 658.5 c 128,-1,173
 2134 694 2134 694 2171 712 c 1,174,175
 2188 722 2188 722 2216 722 c 0,163,164
EndSplineSet
EndChar

StartChar: dispdotsintcopy
Encoding: 20 20 23
Width: 3356
GlyphClass: 2
Flags: W
LayerCount: 2
Fore
SplineSet
211 -1648 m 1,0,1
 238 -1673 238 -1673 264 -1681 c 1,2,3
 317 -1707 317 -1707 354 -1696 c 0,4,5
 384 -1688 384 -1688 416 -1648 c 1,6,7
 451 -1602 451 -1602 492 -1507 c 1,8,9
 538 -1387 538 -1387 576 -1238 c 128,-1,10
 614 -1089 614 -1089 637.5 -960.5 c 128,-1,11
 661 -832 661 -832 690 -684 c 0,12,13
 724 -509 724 -509 781.5 -169 c 128,-1,14
 839 171 839 171 870 336 c 0,15,16
 1023 1142 1023 1142 1227 1954 c 0,17,18
 1263 2098 1263 2098 1283.5 2174.5 c 128,-1,19
 1304 2251 1304 2251 1345 2369 c 128,-1,20
 1386 2487 1386 2487 1432 2579 c 0,21,22
 1523 2764 1523 2764 1651 2802 c 1,23,24
 1717 2819 1717 2819 1788 2795.5 c 128,-1,25
 1859 2772 1859 2772 1898 2718 c 0,26,27
 1918 2690 1918 2690 1926.5 2655 c 128,-1,28
 1935 2620 1935 2620 1926 2584 c 128,-1,29
 1917 2548 1917 2548 1886 2529 c 0,30,31
 1852 2509 1852 2509 1816 2516.5 c 128,-1,32
 1780 2524 1780 2524 1759 2549.5 c 128,-1,33
 1738 2575 1738 2575 1732 2609 c 128,-1,34
 1726 2643 1726 2643 1753 2677 c 0,35,36
 1763 2690 1763 2690 1776.5 2698 c 128,-1,37
 1790 2706 1790 2706 1804 2709 c 128,-1,38
 1818 2712 1818 2712 1835 2716 c 1,39,40
 1812 2729 1812 2729 1792.5 2740.5 c 128,-1,41
 1773 2752 1773 2752 1747.5 2759 c 128,-1,42
 1722 2766 1722 2766 1698 2763 c 1,43,44
 1661 2756 1661 2756 1624 2706 c 0,45,46
 1576 2639 1576 2639 1530 2505 c 1,47,48
 1484 2366 1484 2366 1444.5 2197.5 c 128,-1,49
 1405 2029 1405 2029 1379.5 1883.5 c 128,-1,50
 1354 1738 1354 1738 1323 1569 c 0,51,52
 1301 1449 1301 1449 1253 1164.5 c 128,-1,53
 1205 880 1205 880 1176 727 c 0,54,55
 1012 -125 1012 -125 801 -960 c 1,56,57
 769 -1091 769 -1091 747.5 -1170 c 128,-1,58
 726 -1249 726 -1249 683.5 -1360.5 c 128,-1,59
 641 -1472 641 -1472 592 -1556 c 1,60,61
 494 -1720 494 -1720 373 -1741 c 1,62,63
 308 -1750 308 -1750 241.5 -1724 c 128,-1,64
 175 -1698 175 -1698 141 -1644 c 0,65,66
 121 -1613 121 -1613 115 -1575.5 c 128,-1,67
 109 -1538 109 -1538 124 -1503.5 c 128,-1,68
 139 -1469 139 -1469 178 -1456 c 0,69,70
 205 -1446 205 -1446 237 -1453 c 128,-1,71
 269 -1460 269 -1460 289 -1483 c 1,72,73
 313 -1516 313 -1516 314 -1553 c 128,-1,74
 315 -1590 315 -1590 286.5 -1619 c 128,-1,75
 258 -1648 258 -1648 211 -1648 c 1,0,1
2429 -1650 m 1,76,77
 2444 -1659 2444 -1659 2461 -1668.5 c 128,-1,78
 2478 -1678 2478 -1678 2493.5 -1685.5 c 128,-1,79
 2509 -1693 2509 -1693 2528 -1696.5 c 128,-1,80
 2547 -1700 2547 -1700 2566 -1698 c 1,81,82
 2602 -1690 2602 -1690 2640 -1640 c 0,83,84
 2689 -1575 2689 -1575 2732 -1444 c 1,85,86
 2787 -1283 2787 -1283 2845 -1005 c 0,87,88
 2892 -782 2892 -782 2939 -520 c 1,89,90
 3072 253 3072 253 3192.5 854.5 c 128,-1,91
 3313 1456 3313 1456 3463 2026 c 0,92,93
 3480 2088 3480 2088 3495 2146.5 c 128,-1,94
 3510 2205 3510 2205 3529 2267.5 c 128,-1,95
 3548 2330 3548 2330 3567.5 2386.5 c 128,-1,96
 3587 2443 3587 2443 3613.5 2503 c 128,-1,97
 3640 2563 3640 2563 3670 2615 c 0,98,99
 3765 2784 3765 2784 3887 2806 c 0,100,101
 3952 2817 3952 2817 4019 2791 c 128,-1,102
 4086 2765 4086 2765 4121 2712 c 0,103,104
 4141 2680 4141 2680 4147.5 2642.5 c 128,-1,105
 4154 2605 4154 2605 4140 2570 c 128,-1,106
 4126 2535 4126 2535 4088 2521 c 0,107,108
 4059 2510 4059 2510 4027 2517.5 c 128,-1,109
 3995 2525 3995 2525 3975 2548 c 1,110,111
 3951 2581 3951 2581 3950 2618 c 128,-1,112
 3949 2655 3949 2655 3977.5 2684.5 c 128,-1,113
 4006 2714 4006 2714 4053 2714 c 1,114,115
 4025 2738 4025 2738 4000 2747 c 1,116,117
 3946 2771 3946 2771 3910 2761 c 0,118,119
 3882 2754 3882 2754 3848 2714 c 1,120,121
 3812 2667 3812 2667 3770 2562 c 1,122,123
 3705 2393 3705 2393 3650 2120 c 1,124,125
 3591 1857 3591 1857 3506 1361.5 c 128,-1,126
 3421 866 3421 866 3391 713 c 0,127,128
 3241 -72 3241 -72 3027 -934 c 0,129,130
 2978 -1131 2978 -1131 2932.5 -1273.5 c 128,-1,131
 2887 -1416 2887 -1416 2818 -1542 c 0,132,133
 2720 -1722 2720 -1722 2585 -1741 c 0,134,135
 2521 -1750 2521 -1750 2455.5 -1723 c 128,-1,136
 2390 -1696 2390 -1696 2359 -1642 c 1,137,138
 2339 -1610 2339 -1610 2333.5 -1573 c 128,-1,139
 2328 -1536 2328 -1536 2343.5 -1502.5 c 128,-1,140
 2359 -1469 2359 -1469 2398 -1456 c 0,141,142
 2434 -1445 2434 -1445 2463.5 -1453 c 128,-1,143
 2493 -1461 2493 -1461 2509.5 -1486.5 c 128,-1,144
 2526 -1512 2526 -1512 2531 -1540 c 128,-1,145
 2536 -1568 2536 -1568 2522 -1596 c 128,-1,146
 2508 -1624 2508 -1624 2478 -1638 c 0,147,148
 2458 -1648 2458 -1648 2429 -1648 c 1,149,-1
 2429 -1650 l 1,76,77
1604 639 m 0,150,151
 1657 648 1657 648 1693.5 612 c 128,-1,152
 1730 576 1730 576 1728 524.5 c 128,-1,153
 1726 473 1726 473 1681 443 c 0,154,155
 1659 429 1659 429 1636 426 c 0,156,157
 1583 417 1583 417 1546.5 453 c 128,-1,158
 1510 489 1510 489 1512 540.5 c 128,-1,159
 1514 592 1514 592 1559 623 c 1,160,161
 1583 636 1583 636 1604 639 c 0,150,151
2116 639 m 0,162,163
 2169 648 2169 648 2205.5 612 c 128,-1,164
 2242 576 2242 576 2240 524.5 c 128,-1,165
 2238 473 2238 473 2193 443 c 0,166,167
 2171 429 2171 429 2148 426 c 0,168,169
 2095 417 2095 417 2058.5 453 c 128,-1,170
 2022 489 2022 489 2024 540.5 c 128,-1,171
 2026 592 2026 592 2071 623 c 1,172,173
 2095 636 2095 636 2116 639 c 0,162,163
2628 639 m 0,174,175
 2681 648 2681 648 2717.5 612 c 128,-1,176
 2754 576 2754 576 2752 524.5 c 128,-1,177
 2750 473 2750 473 2705 443 c 0,178,179
 2683 429 2683 429 2660 426 c 0,180,181
 2607 417 2607 417 2570.5 453 c 128,-1,182
 2534 489 2534 489 2536 540.5 c 128,-1,183
 2538 592 2538 592 2583 623 c 1,184,185
 2607 636 2607 636 2628 639 c 0,174,175
EndSplineSet
EndChar

StartChar: ointctrclockwise
Encoding: 23 23 26
Width: 966
GlyphClass: 2
Flags: W
LayerCount: 2
Fore
SplineSet
657 1131 m 1,0,1
 661 1155 661 1155 666.5 1197.5 c 128,-1,2
 672 1240 672 1240 674 1252 c 0,3,4
 681 1299 681 1299 687.5 1337 c 128,-1,5
 694 1375 694 1375 706.5 1424.5 c 128,-1,6
 719 1474 719 1474 734 1513 c 128,-1,7
 749 1552 749 1552 772 1594 c 128,-1,8
 795 1636 795 1636 823 1665 c 128,-1,9
 851 1694 851 1694 890 1716.5 c 128,-1,10
 929 1739 929 1739 975 1748 c 1,11,12
 1012 1757 1012 1757 1057 1750 c 1,13,14
 1126 1744 1126 1744 1181.5 1704.5 c 128,-1,15
 1237 1665 1237 1665 1247 1605 c 0,16,17
 1255 1561 1255 1561 1233.5 1527 c 128,-1,18
 1212 1493 1212 1493 1167 1492 c 0,19,20
 1115 1490 1115 1490 1089 1536.5 c 128,-1,21
 1063 1583 1063 1583 1092 1627 c 0,22,23
 1108 1653 1108 1653 1153 1664 c 1,24,25
 1113 1696 1113 1696 1057.5 1705 c 128,-1,26
 1002 1714 1002 1714 956 1693 c 1,27,28
 921 1673 921 1673 896.5 1635.5 c 128,-1,29
 872 1598 872 1598 858.5 1538.5 c 128,-1,30
 845 1479 845 1479 839.5 1443 c 128,-1,31
 834 1407 834 1407 827 1338 c 0,32,33
 809 1174 809 1174 809 1115 c 1,34,35
 936 1092 936 1092 1038 993 c 128,-1,36
 1140 894 1140 894 1180 763 c 1,37,38
 1191 710 1191 710 1194 703 c 0,39,40
 1201 691 1201 691 1221 670 c 128,-1,41
 1241 649 1241 649 1243 646 c 2,42,-1
 1366 505 l 2,43,44
 1368 502 1368 502 1375 493.5 c 128,-1,45
 1382 485 1382 485 1385 480.5 c 128,-1,46
 1388 476 1388 476 1391 468.5 c 128,-1,47
 1394 461 1394 461 1391.5 454.5 c 128,-1,48
 1389 448 1389 448 1382 441 c 1,49,50
 1374 435 1374 435 1366.5 434 c 128,-1,51
 1359 433 1359 433 1350.5 439 c 128,-1,52
 1342 445 1342 445 1338 448.5 c 128,-1,53
 1334 452 1334 452 1325 462 c 1,54,55
 1306 479 1306 479 1263.5 518 c 128,-1,56
 1221 557 1221 557 1198 576 c 1,57,58
 1198 509 1198 509 1165 427 c 0,59,60
 1109 284 1109 284 985.5 196 c 128,-1,61
 862 108 862 108 707 97 c 1,62,63
 703 73 703 73 697.5 30.5 c 128,-1,64
 692 -12 692 -12 690 -24 c 0,65,66
 684 -70 684 -70 677 -108.5 c 128,-1,67
 670 -147 670 -147 657.5 -196.5 c 128,-1,68
 645 -246 645 -246 629.5 -285 c 128,-1,69
 614 -324 614 -324 590.5 -365.5 c 128,-1,70
 567 -407 567 -407 539 -436.5 c 128,-1,71
 511 -466 511 -466 472 -488.5 c 128,-1,72
 433 -511 433 -511 387 -519 c 0,73,74
 289 -534 289 -534 208.5 -493 c 128,-1,75
 128 -452 128 -452 115 -376 c 1,76,77
 106 -333 106 -333 128 -298.5 c 128,-1,78
 150 -264 150 -264 195 -263 c 0,79,80
 247 -261 247 -261 273 -307.5 c 128,-1,81
 299 -354 299 -354 270 -398 c 0,82,83
 254 -424 254 -424 209 -435 c 1,84,85
 249 -467 249 -467 305.5 -476 c 128,-1,86
 362 -485 362 -485 410 -462 c 1,87,88
 438 -446 438 -446 459 -414.5 c 128,-1,89
 480 -383 480 -383 492.5 -351.5 c 128,-1,90
 505 -320 505 -320 514.5 -270.5 c 128,-1,91
 524 -221 524 -221 528 -191 c 128,-1,92
 532 -161 532 -161 537 -110 c 0,93,94
 555 56 555 56 555 114 c 1,95,96
 497 124 497 124 420 167 c 1,97,98
 251 265 251 265 190 456 c 128,-1,99
 129 647 129 647 207 824 c 0,100,101
 266 959 266 959 387 1039.5 c 128,-1,102
 508 1120 508 1120 657 1131 c 1,0,1
647 1047 m 1,103,104
 517 1044 517 1044 415 961 c 128,-1,105
 313 878 313 878 270.5 754 c 128,-1,106
 228 630 228 630 258 507 c 1,107,108
 287 395 287 395 368 313.5 c 128,-1,109
 449 232 449 232 561 196 c 1,110,111
 577 376 577 376 600.5 625 c 128,-1,112
 624 874 624 874 647 1047 c 1,103,104
805 1033 m 1,113,114
 801 1020 801 1020 800 1005 c 128,-1,115
 799 990 799 990 798.5 969.5 c 128,-1,116
 798 949 798 949 797 941 c 0,117,118
 760 428 760 428 717 181 c 1,119,120
 829 184 829 184 929 254.5 c 128,-1,121
 1029 325 1029 325 1077 429 c 0,122,123
 1089 453 1089 453 1097 481.5 c 128,-1,124
 1105 510 1105 510 1108.5 534.5 c 128,-1,125
 1112 559 1112 559 1118 589 c 1,126,127
 1096 573 1096 573 1073 552 c 128,-1,128
 1050 531 1050 531 1023 504.5 c 128,-1,129
 996 478 996 478 981 464 c 0,130,131
 978 462 978 462 972.5 456.5 c 128,-1,132
 967 451 967 451 963.5 448.5 c 128,-1,133
 960 446 960 446 954.5 442 c 128,-1,134
 949 438 949 438 945.5 437.5 c 128,-1,135
 942 437 942 437 937 437 c 128,-1,136
 932 437 932 437 927.5 440 c 128,-1,137
 923 443 923 443 918 449 c 0,138,139
 913 454 913 454 913 461 c 128,-1,140
 913 468 913 468 915.5 474 c 128,-1,141
 918 480 918 480 923 487 c 128,-1,142
 928 494 928 494 932.5 499 c 128,-1,143
 937 504 937 504 943.5 510 c 128,-1,144
 950 516 950 516 952 519 c 2,145,-1
 1059 640 l 2,146,147
 1062 644 1062 644 1074.5 656 c 128,-1,148
 1087 668 1087 668 1094.5 678 c 128,-1,149
 1102 688 1102 688 1106 697 c 0,150,151
 1109 705 1109 705 1104 730 c 1,152,153
 1094 765 1094 765 1073 808 c 0,154,155
 1002 957 1002 957 805 1033 c 1,113,114
EndSplineSet
EndChar

StartChar: dispointctrclockwise
Encoding: 24 24 27
Width: 1138
GlyphClass: 2
Flags: W
LayerCount: 2
Fore
SplineSet
1069 1288 m 1,0,1
 1087 1378 1087 1378 1108.5 1472 c 128,-1,2
 1130 1566 1130 1566 1163.5 1700.5 c 128,-1,3
 1197 1835 1197 1835 1208 1882 c 0,4,5
 1234 1984 1234 1984 1255 2071.5 c 128,-1,6
 1276 2159 1276 2159 1306.5 2259.5 c 128,-1,7
 1337 2360 1337 2360 1370 2443 c 0,8,9
 1387 2487 1387 2487 1399 2514 c 128,-1,10
 1411 2541 1411 2541 1432 2585 c 128,-1,11
 1453 2629 1453 2629 1473.5 2658 c 128,-1,12
 1494 2687 1494 2687 1521 2718.5 c 128,-1,13
 1548 2750 1548 2750 1581 2771 c 128,-1,14
 1614 2792 1614 2792 1651 2802 c 0,15,16
 1719 2819 1719 2819 1791 2795.5 c 128,-1,17
 1863 2772 1863 2772 1901 2716 c 1,18,19
 1923 2686 1923 2686 1931 2647.5 c 128,-1,20
 1939 2609 1939 2609 1925.5 2573.5 c 128,-1,21
 1912 2538 1912 2538 1874 2523 c 0,22,23
 1845 2511 1845 2511 1811 2518.5 c 128,-1,24
 1777 2526 1777 2526 1757 2550 c 1,25,26
 1734 2583 1734 2583 1734.5 2619.5 c 128,-1,27
 1735 2656 1735 2656 1763.5 2685 c 128,-1,28
 1792 2714 1792 2714 1835 2714 c 1,29,30
 1809 2740 1809 2740 1767.5 2755.5 c 128,-1,31
 1726 2771 1726 2771 1690 2761 c 0,32,33
 1654 2750 1654 2750 1616 2693 c 1,34,35
 1567 2622 1567 2622 1520 2474 c 1,36,37
 1480 2340 1480 2340 1442 2175 c 128,-1,38
 1404 2010 1404 2010 1383 1899.5 c 128,-1,39
 1362 1789 1362 1789 1327 1596 c 0,40,41
 1323 1573 1323 1573 1302.5 1445 c 128,-1,42
 1282 1317 1282 1317 1268 1249 c 1,43,44
 1440 1192 1440 1192 1568.5 1059 c 128,-1,45
 1697 926 1697 926 1749 744 c 0,46,47
 1751 738 1751 738 1757.5 705 c 128,-1,48
 1764 672 1764 672 1772 658 c 0,49,50
 1776 651 1776 651 1781 644.5 c 128,-1,51
 1786 638 1786 638 1793.5 630.5 c 128,-1,52
 1801 623 1801 623 1804 619 c 2,53,-1
 1866 549 l 1,54,-1
 2040 357 l 2,55,56
 2041 356 2041 356 2052.5 344 c 128,-1,57
 2064 332 2064 332 2067.5 326 c 128,-1,58
 2071 320 2071 320 2076 310 c 128,-1,59
 2081 300 2081 300 2077 292 c 128,-1,60
 2073 284 2073 284 2062 277 c 0,61,62
 2046 267 2046 267 2020 290.5 c 128,-1,63
 1994 314 1994 314 1985 328 c 1,64,65
 1966 346 1966 346 1922 389 c 128,-1,66
 1878 432 1878 432 1845 463.5 c 128,-1,67
 1812 495 1812 495 1780 522 c 1,68,69
 1780 278 1780 278 1627 77.5 c 128,-1,70
 1474 -123 1474 -123 1239 -194 c 1,71,72
 1075 -242 1075 -242 977 -223 c 1,73,74
 959 -312 959 -312 937 -407.5 c 128,-1,75
 915 -503 915 -503 883 -633.5 c 128,-1,76
 851 -764 851 -764 838 -817 c 0,77,78
 812 -919 812 -919 791 -1006 c 128,-1,79
 770 -1093 770 -1093 739.5 -1194 c 128,-1,80
 709 -1295 709 -1295 676 -1378 c 0,81,82
 654 -1432 654 -1432 640.5 -1464 c 128,-1,83
 627 -1496 627 -1496 599 -1548 c 128,-1,84
 571 -1600 571 -1600 544.5 -1632 c 128,-1,85
 518 -1664 518 -1664 478.5 -1694.5 c 128,-1,86
 439 -1725 439 -1725 395 -1737 c 0,87,88
 327 -1754 327 -1754 255 -1730 c 128,-1,89
 183 -1706 183 -1706 145 -1650 c 1,90,91
 123 -1620 123 -1620 115 -1582 c 128,-1,92
 107 -1544 107 -1544 120.5 -1508.5 c 128,-1,93
 134 -1473 134 -1473 172 -1458 c 0,94,95
 201 -1446 201 -1446 235 -1453.5 c 128,-1,96
 269 -1461 269 -1461 289 -1485 c 1,97,98
 312 -1518 312 -1518 311.5 -1554.5 c 128,-1,99
 311 -1591 311 -1591 282.5 -1619.5 c 128,-1,100
 254 -1648 254 -1648 211 -1648 c 1,101,102
 237 -1674 237 -1674 278.5 -1690 c 128,-1,103
 320 -1706 320 -1706 356 -1696 c 1,104,105
 393 -1684 393 -1684 430 -1628 c 1,106,107
 480 -1555 480 -1555 526 -1409 c 1,108,109
 614 -1117 614 -1117 719 -530 c 0,110,111
 724 -504 724 -504 744 -377.5 c 128,-1,112
 764 -251 764 -251 778 -184 c 1,113,114
 618 -131 618 -131 496 -10 c 128,-1,115
 374 111 374 111 313.5 271.5 c 128,-1,116
 253 432 253 432 268 600 c 1,117,118
 291 831 291 831 439 1012 c 128,-1,119
 587 1193 587 1193 809 1260 c 1,120,121
 972 1306 972 1306 1069 1288 c 1,0,1
1051 1209 m 1,122,123
 859 1209 859 1209 698 1123.5 c 128,-1,124
 537 1038 537 1038 442 877 c 0,125,126
 356 733 356 733 349.5 565 c 128,-1,127
 343 397 343 397 413.5 245 c 128,-1,128
 484 93 484 93 618 -8 c 0,129,130
 712 -78 712 -78 793 -102 c 1,131,132
 801 -29 801 -29 850 230 c 0,133,134
 908 543 908 543 989 922 c 0,135,136
 995 947 995 947 1010 1010 c 128,-1,137
 1025 1073 1025 1073 1034.5 1119 c 128,-1,138
 1044 1165 1044 1165 1051 1209 c 1,122,123
1698 541 m 1,139,140
 1662 513 1662 513 1625.5 478.5 c 128,-1,141
 1589 444 1589 444 1543 397.5 c 128,-1,142
 1497 351 1497 351 1475 330 c 0,143,144
 1471 326 1471 326 1461 315 c 128,-1,145
 1451 304 1451 304 1442.5 296.5 c 128,-1,146
 1434 289 1434 289 1424 282 c 128,-1,147
 1414 275 1414 275 1404 275.5 c 128,-1,148
 1394 276 1394 276 1386 285 c 1,149,150
 1378 291 1378 291 1380 301 c 128,-1,151
 1382 311 1382 311 1385.5 319 c 128,-1,152
 1389 327 1389 327 1398.5 337.5 c 128,-1,153
 1408 348 1408 348 1415 355 c 128,-1,154
 1422 362 1422 362 1431.5 371 c 128,-1,155
 1441 380 1441 380 1444 383 c 2,156,-1
 1608 565 l 2,157,158
 1613 570 1613 570 1632.5 589 c 128,-1,159
 1652 608 1652 608 1664 621.5 c 128,-1,160
 1676 635 1676 635 1683 649 c 1,161,162
 1685 659 1685 659 1685.5 663.5 c 128,-1,163
 1686 668 1686 668 1682.5 680 c 128,-1,164
 1679 692 1679 692 1679 694 c 0,165,166
 1665 753 1665 753 1638 811 c 1,167,168
 1583 935 1583 935 1480 1032.5 c 128,-1,169
 1377 1130 1377 1130 1253 1168 c 1,170,171
 1245 1091 1245 1091 1196 836 c 1,172,173
 1137 519 1137 519 1057 144 c 0,174,175
 1051 116 1051 116 1036.5 55 c 128,-1,176
 1022 -6 1022 -6 1012 -53 c 128,-1,177
 1002 -100 1002 -100 995 -143 c 1,178,179
 1153 -143 1153 -143 1274 -96 c 1,180,181
 1467 -19 1467 -19 1582.5 156.5 c 128,-1,182
 1698 332 1698 332 1698 541 c 1,139,140
EndSplineSet
EndChar

StartChar: ointclockwise
Encoding: 25 25 28
Width: 966
GlyphClass: 2
Flags: W
LayerCount: 2
Fore
SplineSet
657 1131 m 1,0,1
 661 1155 661 1155 666.5 1197.5 c 128,-1,2
 672 1240 672 1240 674 1252 c 0,3,4
 681 1299 681 1299 687.5 1337 c 128,-1,5
 694 1375 694 1375 706.5 1424.5 c 128,-1,6
 719 1474 719 1474 734 1513 c 128,-1,7
 749 1552 749 1552 772 1594 c 128,-1,8
 795 1636 795 1636 823 1665 c 128,-1,9
 851 1694 851 1694 890 1716.5 c 128,-1,10
 929 1739 929 1739 975 1748 c 1,11,12
 1012 1757 1012 1757 1057 1750 c 1,13,14
 1126 1744 1126 1744 1181.5 1704.5 c 128,-1,15
 1237 1665 1237 1665 1247 1605 c 0,16,17
 1255 1561 1255 1561 1233.5 1527 c 128,-1,18
 1212 1493 1212 1493 1167 1492 c 0,19,20
 1115 1490 1115 1490 1089 1536.5 c 128,-1,21
 1063 1583 1063 1583 1092 1627 c 0,22,23
 1108 1653 1108 1653 1153 1664 c 1,24,25
 1113 1696 1113 1696 1057.5 1705 c 128,-1,26
 1002 1714 1002 1714 956 1693 c 1,27,28
 921 1673 921 1673 896.5 1635.5 c 128,-1,29
 872 1598 872 1598 858.5 1538.5 c 128,-1,30
 845 1479 845 1479 839.5 1443 c 128,-1,31
 834 1407 834 1407 827 1338 c 0,32,33
 809 1174 809 1174 809 1115 c 1,34,35
 862 1106 862 1106 944 1062 c 1,36,37
 1113 964 1113 964 1174 773 c 128,-1,38
 1235 582 1235 582 1157 404 c 0,39,40
 1098 270 1098 270 977 189 c 128,-1,41
 856 108 856 108 707 97 c 1,42,43
 703 73 703 73 697.5 30.5 c 128,-1,44
 692 -12 692 -12 690 -24 c 0,45,46
 684 -70 684 -70 677 -108.5 c 128,-1,47
 670 -147 670 -147 657.5 -196.5 c 128,-1,48
 645 -246 645 -246 629.5 -285 c 128,-1,49
 614 -324 614 -324 590.5 -365.5 c 128,-1,50
 567 -407 567 -407 539 -436.5 c 128,-1,51
 511 -466 511 -466 472 -488.5 c 128,-1,52
 433 -511 433 -511 387 -519 c 0,53,54
 289 -534 289 -534 208.5 -493 c 128,-1,55
 128 -452 128 -452 115 -376 c 1,56,57
 106 -333 106 -333 128 -298.5 c 128,-1,58
 150 -264 150 -264 195 -263 c 0,59,60
 247 -261 247 -261 273 -307.5 c 128,-1,61
 299 -354 299 -354 270 -398 c 0,62,63
 254 -424 254 -424 209 -435 c 1,64,65
 249 -467 249 -467 305.5 -476 c 128,-1,66
 362 -485 362 -485 410 -462 c 1,67,68
 438 -446 438 -446 459 -414.5 c 128,-1,69
 480 -383 480 -383 492.5 -351.5 c 128,-1,70
 505 -320 505 -320 514.5 -270.5 c 128,-1,71
 524 -221 524 -221 528 -191 c 128,-1,72
 532 -161 532 -161 537 -110 c 0,73,74
 555 56 555 56 555 114 c 1,75,76
 491 125 491 125 422 167 c 1,77,78
 313 229 313 229 240 341.5 c 128,-1,79
 167 454 167 454 166 576 c 1,80,81
 143 557 143 557 100.5 518 c 128,-1,82
 58 479 58 479 39 462 c 1,83,84
 31 453 31 453 26 448.5 c 128,-1,85
 21 444 21 444 12.5 439 c 128,-1,86
 4 434 4 434 -4 435 c 128,-1,87
 -12 436 -12 436 -20 443 c 1,88,89
 -30 454 -30 454 -27.5 467.5 c 128,-1,90
 -25 481 -25 481 -14.5 490.5 c 128,-1,91
 -4 500 -4 500 4 511 c 1,92,-1
 147 675 l 2,93,94
 159 688 159 688 166 703.5 c 128,-1,95
 173 719 173 719 177 734.5 c 128,-1,96
 181 750 181 750 186 769 c 1,97,98
 210 834 210 834 231 871 c 0,99,100
 298 987 298 987 410.5 1054.5 c 128,-1,101
 523 1122 523 1122 657 1131 c 1,0,1
647 1047 m 1,102,103
 519 1046 519 1046 411 955.5 c 128,-1,104
 303 865 303 865 262 736 c 1,105,106
 256 706 256 706 258 699 c 0,107,108
 261 690 261 690 268 680.5 c 128,-1,109
 275 671 275 671 287.5 658 c 128,-1,110
 300 645 300 645 303 642 c 2,111,-1
 412 519 l 2,112,113
 414 517 414 517 424.5 506.5 c 128,-1,114
 435 496 435 496 439 490 c 128,-1,115
 443 484 443 484 448 474.5 c 128,-1,116
 453 465 453 465 451 457 c 128,-1,117
 449 449 449 449 440 441 c 0,118,119
 434 436 434 436 427.5 435.5 c 128,-1,120
 421 435 421 435 415 438 c 128,-1,121
 409 441 409 441 404 445 c 128,-1,122
 399 449 399 449 392.5 455 c 128,-1,123
 386 461 386 461 383 464 c 0,124,125
 368 478 368 478 341 504.5 c 128,-1,126
 314 531 314 531 291 552 c 128,-1,127
 268 573 268 573 246 589 c 1,128,129
 249 575 249 575 252.5 550 c 128,-1,130
 256 525 256 525 260 504.5 c 128,-1,131
 264 484 264 484 270 466 c 1,132,133
 309 367 309 367 384 297.5 c 128,-1,134
 459 228 459 228 561 196 c 1,135,136
 577 376 577 376 600.5 625 c 128,-1,137
 624 874 624 874 647 1047 c 1,102,103
805 1033 m 1,138,139
 801 1020 801 1020 800 1005 c 128,-1,140
 799 990 799 990 798.5 969.5 c 128,-1,141
 798 949 798 949 797 941 c 0,142,143
 760 428 760 428 717 181 c 1,144,145
 768 181 768 181 838 208 c 0,146,147
 918 238 918 238 980 296.5 c 128,-1,148
 1042 355 1042 355 1075.5 428.5 c 128,-1,149
 1109 502 1109 502 1117 586.5 c 128,-1,150
 1125 671 1125 671 1096 753 c 1,151,152
 1047 901 1047 901 913 984 c 1,153,154
 886 1002 886 1002 805 1033 c 1,138,139
EndSplineSet
EndChar

StartChar: dispointclockwise
Encoding: 26 26 29
Width: 1138
GlyphClass: 2
Flags: W
LayerCount: 2
Fore
SplineSet
1069 1288 m 1,0,1
 1087 1378 1087 1378 1108.5 1472 c 128,-1,2
 1130 1566 1130 1566 1163.5 1700.5 c 128,-1,3
 1197 1835 1197 1835 1208 1882 c 0,4,5
 1234 1984 1234 1984 1255 2071.5 c 128,-1,6
 1276 2159 1276 2159 1306.5 2259.5 c 128,-1,7
 1337 2360 1337 2360 1370 2443 c 0,8,9
 1387 2487 1387 2487 1399 2514 c 128,-1,10
 1411 2541 1411 2541 1432 2585 c 128,-1,11
 1453 2629 1453 2629 1473.5 2658 c 128,-1,12
 1494 2687 1494 2687 1521 2718.5 c 128,-1,13
 1548 2750 1548 2750 1581 2771 c 128,-1,14
 1614 2792 1614 2792 1651 2802 c 0,15,16
 1719 2819 1719 2819 1791 2795.5 c 128,-1,17
 1863 2772 1863 2772 1901 2716 c 1,18,19
 1923 2686 1923 2686 1931 2647.5 c 128,-1,20
 1939 2609 1939 2609 1925.5 2573.5 c 128,-1,21
 1912 2538 1912 2538 1874 2523 c 0,22,23
 1845 2511 1845 2511 1811 2518.5 c 128,-1,24
 1777 2526 1777 2526 1757 2550 c 1,25,26
 1734 2583 1734 2583 1734.5 2619.5 c 128,-1,27
 1735 2656 1735 2656 1763.5 2685 c 128,-1,28
 1792 2714 1792 2714 1835 2714 c 1,29,30
 1809 2740 1809 2740 1767.5 2755.5 c 128,-1,31
 1726 2771 1726 2771 1690 2761 c 0,32,33
 1654 2750 1654 2750 1616 2693 c 1,34,35
 1567 2622 1567 2622 1520 2474 c 1,36,37
 1480 2340 1480 2340 1442 2175 c 128,-1,38
 1404 2010 1404 2010 1383 1899.5 c 128,-1,39
 1362 1789 1362 1789 1327 1596 c 0,40,41
 1323 1573 1323 1573 1302.5 1445 c 128,-1,42
 1282 1317 1282 1317 1268 1249 c 1,43,44
 1428 1196 1428 1196 1550 1075 c 128,-1,45
 1672 954 1672 954 1732.5 793.5 c 128,-1,46
 1793 633 1793 633 1778 465 c 1,47,48
 1755 234 1755 234 1607 53.5 c 128,-1,49
 1459 -127 1459 -127 1237 -194 c 1,50,51
 1079 -240 1079 -240 977 -223 c 1,52,53
 959 -312 959 -312 937 -407.5 c 128,-1,54
 915 -503 915 -503 883 -633.5 c 128,-1,55
 851 -764 851 -764 838 -817 c 0,56,57
 812 -919 812 -919 791 -1006 c 128,-1,58
 770 -1093 770 -1093 739.5 -1194 c 128,-1,59
 709 -1295 709 -1295 676 -1378 c 0,60,61
 654 -1432 654 -1432 640.5 -1464 c 128,-1,62
 627 -1496 627 -1496 599 -1548 c 128,-1,63
 571 -1600 571 -1600 544.5 -1632 c 128,-1,64
 518 -1664 518 -1664 478.5 -1694.5 c 128,-1,65
 439 -1725 439 -1725 395 -1737 c 0,66,67
 327 -1754 327 -1754 255 -1730 c 128,-1,68
 183 -1706 183 -1706 145 -1650 c 1,69,70
 123 -1620 123 -1620 115 -1582 c 128,-1,71
 107 -1544 107 -1544 120.5 -1508.5 c 128,-1,72
 134 -1473 134 -1473 172 -1458 c 0,73,74
 201 -1446 201 -1446 235 -1453.5 c 128,-1,75
 269 -1461 269 -1461 289 -1485 c 1,76,77
 312 -1518 312 -1518 311.5 -1554.5 c 128,-1,78
 311 -1591 311 -1591 282.5 -1619.5 c 128,-1,79
 254 -1648 254 -1648 211 -1648 c 1,80,81
 237 -1674 237 -1674 278.5 -1690 c 128,-1,82
 320 -1706 320 -1706 356 -1696 c 1,83,84
 393 -1684 393 -1684 430 -1628 c 1,85,86
 480 -1555 480 -1555 526 -1409 c 1,87,88
 614 -1117 614 -1117 719 -530 c 0,89,90
 724 -504 724 -504 744 -377.5 c 128,-1,91
 764 -251 764 -251 778 -184 c 1,92,93
 555 -110 555 -110 410.5 89 c 128,-1,94
 266 288 266 288 266 522 c 1,95,96
 234 495 234 495 201 463.5 c 128,-1,97
 168 432 168 432 124 389 c 128,-1,98
 80 346 80 346 61 328 c 0,99,100
 59 326 59 326 51.5 317.5 c 128,-1,101
 44 309 44 309 39 303.5 c 128,-1,102
 34 298 34 298 25 290 c 128,-1,103
 16 282 16 282 10.5 279.5 c 128,-1,104
 5 277 5 277 -4 274.5 c 128,-1,105
 -13 272 -13 272 -18 279 c 1,106,107
 -30 287 -30 287 -32 297.5 c 128,-1,108
 -34 308 -34 308 -25.5 320.5 c 128,-1,109
 -17 333 -17 333 -10 341.5 c 128,-1,110
 -3 350 -3 350 11 363.5 c 128,-1,111
 25 377 25 377 27 379 c 2,112,-1
 264 643 l 2,113,114
 274 655 274 655 280 673 c 128,-1,115
 286 691 286 691 290 714.5 c 128,-1,116
 294 738 294 738 297 748 c 0,117,118
 362 954 362 954 516.5 1095 c 128,-1,119
 671 1236 671 1236 877 1276 c 1,120,121
 1004 1302 1004 1302 1069 1288 c 1,0,1
1051 1209 m 1,122,123
 812 1209 812 1209 624.5 1075.5 c 128,-1,124
 437 942 437 942 373 715 c 0,125,126
 372 711 372 711 367.5 698 c 128,-1,127
 363 685 363 685 361 674.5 c 128,-1,128
 359 664 359 664 360 656 c 0,129,130
 361 649 361 649 381 629 c 0,131,132
 382 628 382 628 428 576 c 2,133,-1
 602 383 l 2,134,135
 605 380 605 380 618.5 367 c 128,-1,136
 632 354 632 354 640.5 345 c 128,-1,137
 649 336 649 336 657.5 323.5 c 128,-1,138
 666 311 666 311 665 300 c 128,-1,139
 664 289 664 289 653 281 c 1,140,141
 643 277 643 277 636 276.5 c 128,-1,142
 629 276 629 276 617 285 c 128,-1,143
 605 294 605 294 598 301 c 128,-1,144
 591 308 591 308 581.5 318.5 c 128,-1,145
 572 329 572 329 569 332 c 0,146,147
 525 377 525 377 461 439.5 c 128,-1,148
 397 502 397 502 348 541 c 1,149,150
 348 403 348 403 401.5 272 c 128,-1,151
 455 141 455 141 557.5 40 c 128,-1,152
 660 -61 660 -61 793 -102 c 1,153,154
 801 -29 801 -29 850 230 c 0,155,156
 908 543 908 543 989 922 c 0,157,158
 995 947 995 947 1010 1010 c 128,-1,159
 1025 1073 1025 1073 1034.5 1119 c 128,-1,160
 1044 1165 1044 1165 1051 1209 c 1,122,123
995 -143 m 1,161,162
 1187 -143 1187 -143 1348 -57.5 c 128,-1,163
 1509 28 1509 28 1604 189 c 0,164,165
 1690 333 1690 333 1696.5 500.5 c 128,-1,166
 1703 668 1703 668 1632 820.5 c 128,-1,167
 1561 973 1561 973 1427 1073 c 1,168,169
 1336 1143 1336 1143 1253 1168 c 1,170,171
 1245 1091 1245 1091 1196 836 c 1,172,173
 1137 519 1137 519 1057 144 c 0,174,175
 1051 116 1051 116 1036.5 55 c 128,-1,176
 1022 -6 1022 -6 1012 -53 c 128,-1,177
 1002 -100 1002 -100 995 -143 c 1,161,162
EndSplineSet
EndChar

StartChar: varointclockwise
Encoding: 27 27 30
Width: 966
GlyphClass: 3
Flags: W
LayerCount: 2
Fore
SplineSet
657 1131 m 1,0,1
 661 1155 661 1155 666.5 1197.5 c 128,-1,2
 672 1240 672 1240 674 1252 c 0,3,4
 681 1299 681 1299 687.5 1337 c 128,-1,5
 694 1375 694 1375 706.5 1424.5 c 128,-1,6
 719 1474 719 1474 734 1513 c 128,-1,7
 749 1552 749 1552 772 1594 c 128,-1,8
 795 1636 795 1636 823 1665 c 128,-1,9
 851 1694 851 1694 890 1716.5 c 128,-1,10
 929 1739 929 1739 975 1748 c 1,11,12
 1012 1757 1012 1757 1057 1750 c 1,13,14
 1126 1744 1126 1744 1181.5 1704.5 c 128,-1,15
 1237 1665 1237 1665 1247 1605 c 0,16,17
 1255 1561 1255 1561 1233.5 1527 c 128,-1,18
 1212 1493 1212 1493 1167 1492 c 0,19,20
 1115 1490 1115 1490 1089 1536.5 c 128,-1,21
 1063 1583 1063 1583 1092 1627 c 0,22,23
 1108 1653 1108 1653 1153 1664 c 1,24,25
 1113 1696 1113 1696 1057.5 1705 c 128,-1,26
 1002 1714 1002 1714 956 1693 c 1,27,28
 921 1673 921 1673 896.5 1635.5 c 128,-1,29
 872 1598 872 1598 858.5 1538.5 c 128,-1,30
 845 1479 845 1479 839.5 1443 c 128,-1,31
 834 1407 834 1407 827 1338 c 0,32,33
 809 1174 809 1174 809 1115 c 1,34,35
 869 1105 869 1105 942 1062 c 1,36,37
 1053 999 1053 999 1125.5 885 c 128,-1,38
 1198 771 1198 771 1198 648 c 1,39,40
 1217 666 1217 666 1239.5 685.5 c 128,-1,41
 1262 705 1262 705 1290 728.5 c 128,-1,42
 1318 752 1318 752 1333 765 c 1,43,44
 1341 775 1341 775 1358.5 787.5 c 128,-1,45
 1376 800 1376 800 1386 789 c 1,46,47
 1392 784 1392 784 1392.5 777 c 128,-1,48
 1393 770 1393 770 1388.5 762.5 c 128,-1,49
 1384 755 1384 755 1379.5 749 c 128,-1,50
 1375 743 1375 743 1368.5 736 c 128,-1,51
 1362 729 1362 729 1360 726 c 2,52,-1
 1221 560 l 2,53,54
 1203 539 1203 539 1193.5 512.5 c 128,-1,55
 1184 486 1184 486 1178 460 c 1,56,57
 1155 397 1155 397 1135 359 c 1,58,59
 1068 243 1068 243 955 175 c 128,-1,60
 842 107 842 107 707 97 c 1,61,62
 703 73 703 73 697.5 30.5 c 128,-1,63
 692 -12 692 -12 690 -24 c 0,64,65
 684 -70 684 -70 677 -108.5 c 128,-1,66
 670 -147 670 -147 657.5 -196.5 c 128,-1,67
 645 -246 645 -246 629.5 -285 c 128,-1,68
 614 -324 614 -324 590.5 -365.5 c 128,-1,69
 567 -407 567 -407 539 -436.5 c 128,-1,70
 511 -466 511 -466 472 -488.5 c 128,-1,71
 433 -511 433 -511 387 -519 c 0,72,73
 289 -534 289 -534 208.5 -493 c 128,-1,74
 128 -452 128 -452 115 -376 c 1,75,76
 106 -333 106 -333 128 -298.5 c 128,-1,77
 150 -264 150 -264 195 -263 c 0,78,79
 247 -261 247 -261 273 -307.5 c 128,-1,80
 299 -354 299 -354 270 -398 c 0,81,82
 254 -424 254 -424 209 -435 c 1,83,84
 249 -467 249 -467 305.5 -476 c 128,-1,85
 362 -485 362 -485 410 -462 c 1,86,87
 438 -446 438 -446 459 -414.5 c 128,-1,88
 480 -383 480 -383 492.5 -351.5 c 128,-1,89
 505 -320 505 -320 514.5 -270.5 c 128,-1,90
 524 -221 524 -221 528 -191 c 128,-1,91
 532 -161 532 -161 537 -110 c 0,92,93
 555 56 555 56 555 114 c 1,94,95
 497 124 497 124 420 167 c 1,96,97
 251 265 251 265 190 456 c 128,-1,98
 129 647 129 647 207 824 c 0,99,100
 266 959 266 959 387 1039.5 c 128,-1,101
 508 1120 508 1120 657 1131 c 1,0,1
647 1047 m 1,102,103
 517 1044 517 1044 415 961 c 128,-1,104
 313 878 313 878 270.5 754 c 128,-1,105
 228 630 228 630 258 507 c 1,106,107
 287 395 287 395 368 313.5 c 128,-1,108
 449 232 449 232 561 196 c 1,109,110
 577 376 577 376 600.5 625 c 128,-1,111
 624 874 624 874 647 1047 c 1,102,103
805 1033 m 1,112,113
 801 1020 801 1020 800 1005 c 128,-1,114
 799 990 799 990 798.5 969.5 c 128,-1,115
 798 949 798 949 797 941 c 0,116,117
 760 428 760 428 717 181 c 1,118,119
 844 182 844 182 952.5 272.5 c 128,-1,120
 1061 363 1061 363 1102 492 c 0,121,122
 1103 495 1103 495 1105 505 c 128,-1,123
 1107 515 1107 515 1107 518.5 c 128,-1,124
 1107 522 1107 522 1106 531 c 1,125,126
 1103 541 1103 541 1095.5 551 c 128,-1,127
 1088 561 1088 561 1076 573.5 c 128,-1,128
 1064 586 1064 586 1059 591 c 2,129,-1
 950 720 l 2,130,131
 948 723 948 723 940.5 731 c 128,-1,132
 933 739 933 739 927.5 745.5 c 128,-1,133
 922 752 922 752 916.5 761 c 128,-1,134
 911 770 911 770 911.5 776 c 128,-1,135
 912 782 912 782 918 789 c 1,136,137
 926 796 926 796 937.5 791 c 128,-1,138
 949 786 949 786 957.5 777 c 128,-1,139
 966 768 966 768 973 761 c 0,140,141
 1094 655 1094 655 1118 638 c 1,142,143
 1105 729 1105 729 1094 759 c 0,144,145
 1041 906 1041 906 913 984 c 1,146,147
 886 1002 886 1002 805 1033 c 1,112,113
EndSplineSet
Ligature2: "'liga' Ligature standard in Latin lookup 0 subtable" f f
EndChar

StartChar: dispvarointclockwise
Encoding: 28 28 31
Width: 1138
GlyphClass: 3
Flags: W
LayerCount: 2
Fore
SplineSet
1069 1288 m 1,0,1
 1087 1378 1087 1378 1108.5 1472 c 128,-1,2
 1130 1566 1130 1566 1163.5 1700.5 c 128,-1,3
 1197 1835 1197 1835 1208 1882 c 0,4,5
 1234 1984 1234 1984 1255 2071.5 c 128,-1,6
 1276 2159 1276 2159 1306.5 2259.5 c 128,-1,7
 1337 2360 1337 2360 1370 2443 c 0,8,9
 1387 2487 1387 2487 1399 2514 c 128,-1,10
 1411 2541 1411 2541 1432 2585 c 128,-1,11
 1453 2629 1453 2629 1473.5 2658 c 128,-1,12
 1494 2687 1494 2687 1521 2718.5 c 128,-1,13
 1548 2750 1548 2750 1581 2771 c 128,-1,14
 1614 2792 1614 2792 1651 2802 c 0,15,16
 1719 2819 1719 2819 1791 2795.5 c 128,-1,17
 1863 2772 1863 2772 1901 2716 c 1,18,19
 1923 2686 1923 2686 1931 2647.5 c 128,-1,20
 1939 2609 1939 2609 1925.5 2573.5 c 128,-1,21
 1912 2538 1912 2538 1874 2523 c 0,22,23
 1845 2511 1845 2511 1811 2518.5 c 128,-1,24
 1777 2526 1777 2526 1757 2550 c 1,25,26
 1734 2583 1734 2583 1734.5 2619.5 c 128,-1,27
 1735 2656 1735 2656 1763.5 2685 c 128,-1,28
 1792 2714 1792 2714 1835 2714 c 1,29,30
 1809 2740 1809 2740 1767.5 2755.5 c 128,-1,31
 1726 2771 1726 2771 1690 2761 c 0,32,33
 1654 2750 1654 2750 1616 2693 c 1,34,35
 1567 2622 1567 2622 1520 2474 c 1,36,37
 1480 2340 1480 2340 1442 2175 c 128,-1,38
 1404 2010 1404 2010 1383 1899.5 c 128,-1,39
 1362 1789 1362 1789 1327 1596 c 0,40,41
 1323 1573 1323 1573 1302.5 1445 c 128,-1,42
 1282 1317 1282 1317 1268 1249 c 1,43,44
 1492 1176 1492 1176 1636 976.5 c 128,-1,45
 1780 777 1780 777 1780 541 c 1,46,47
 1822 575 1822 575 1894.5 644 c 128,-1,48
 1967 713 1967 713 1995 737 c 0,49,50
 2004 746 2004 746 2016.5 761 c 128,-1,51
 2029 776 2029 776 2046 786 c 128,-1,52
 2063 796 2063 796 2073 789 c 1,53,54
 2086 777 2086 777 2075 758 c 1,55,-1
 1933 596 l 2,56,57
 1791 433 1791 433 1786 428 c 0,58,59
 1775 415 1775 415 1768.5 397.5 c 128,-1,60
 1762 380 1762 380 1756.5 353.5 c 128,-1,61
 1751 327 1751 327 1749 318 c 0,62,63
 1684 111 1684 111 1529.5 -30 c 128,-1,64
 1375 -171 1375 -171 1169 -211 c 0,65,66
 1045 -236 1045 -236 977 -223 c 1,67,68
 959 -312 959 -312 937 -407.5 c 128,-1,69
 915 -503 915 -503 883 -633.5 c 128,-1,70
 851 -764 851 -764 838 -817 c 0,71,72
 812 -919 812 -919 791 -1006 c 128,-1,73
 770 -1093 770 -1093 739.5 -1194 c 128,-1,74
 709 -1295 709 -1295 676 -1378 c 0,75,76
 654 -1432 654 -1432 640.5 -1464 c 128,-1,77
 627 -1496 627 -1496 599 -1548 c 128,-1,78
 571 -1600 571 -1600 544.5 -1632 c 128,-1,79
 518 -1664 518 -1664 478.5 -1694.5 c 128,-1,80
 439 -1725 439 -1725 395 -1737 c 0,81,82
 327 -1754 327 -1754 255 -1730 c 128,-1,83
 183 -1706 183 -1706 145 -1650 c 1,84,85
 123 -1620 123 -1620 115 -1582 c 128,-1,86
 107 -1544 107 -1544 120.5 -1508.5 c 128,-1,87
 134 -1473 134 -1473 172 -1458 c 0,88,89
 201 -1446 201 -1446 235 -1453.5 c 128,-1,90
 269 -1461 269 -1461 289 -1485 c 1,91,92
 312 -1518 312 -1518 311.5 -1554.5 c 128,-1,93
 311 -1591 311 -1591 282.5 -1619.5 c 128,-1,94
 254 -1648 254 -1648 211 -1648 c 1,95,96
 237 -1674 237 -1674 278.5 -1690 c 128,-1,97
 320 -1706 320 -1706 356 -1696 c 1,98,99
 393 -1684 393 -1684 430 -1628 c 1,100,101
 480 -1555 480 -1555 526 -1409 c 1,102,103
 614 -1117 614 -1117 719 -530 c 0,104,105
 724 -504 724 -504 744 -377.5 c 128,-1,106
 764 -251 764 -251 778 -184 c 1,107,108
 618 -131 618 -131 496 -10 c 128,-1,109
 374 111 374 111 313.5 271.5 c 128,-1,110
 253 432 253 432 268 600 c 1,111,112
 291 831 291 831 439 1012 c 128,-1,113
 587 1193 587 1193 809 1260 c 1,114,115
 972 1306 972 1306 1069 1288 c 1,0,1
1051 1209 m 1,116,117
 859 1209 859 1209 698 1123.5 c 128,-1,118
 537 1038 537 1038 442 877 c 0,119,120
 356 733 356 733 349.5 565 c 128,-1,121
 343 397 343 397 413.5 245 c 128,-1,122
 484 93 484 93 618 -8 c 0,123,124
 712 -78 712 -78 793 -102 c 1,125,126
 801 -29 801 -29 850 230 c 0,127,128
 908 543 908 543 989 922 c 0,129,130
 995 947 995 947 1010 1010 c 128,-1,131
 1025 1073 1025 1073 1034.5 1119 c 128,-1,132
 1044 1165 1044 1165 1051 1209 c 1,116,117
1698 522 m 1,133,134
 1698 661 1698 661 1645 792 c 128,-1,135
 1592 923 1592 923 1489 1025 c 128,-1,136
 1386 1127 1386 1127 1253 1168 c 1,137,138
 1245 1091 1245 1091 1196 836 c 1,139,140
 1137 519 1137 519 1057 144 c 0,141,142
 1051 116 1051 116 1036.5 55 c 128,-1,143
 1022 -6 1022 -6 1012 -53 c 128,-1,144
 1002 -100 1002 -100 995 -143 c 1,145,146
 1235 -143 1235 -143 1423 -9.5 c 128,-1,147
 1611 124 1611 124 1673 352 c 0,148,149
 1674 357 1674 357 1678.5 370 c 128,-1,150
 1683 383 1683 383 1685.5 393.5 c 128,-1,151
 1688 404 1688 404 1686 412 c 1,152,153
 1682 419 1682 419 1663 441 c 2,154,-1
 1618 494 l 2,155,156
 1622 488 1622 488 1600.5 512.5 c 128,-1,157
 1579 537 1579 537 1544 576.5 c 128,-1,158
 1509 616 1509 616 1473.5 656.5 c 128,-1,159
 1438 697 1438 697 1412.5 726 c 128,-1,160
 1387 755 1387 755 1386 756 c 0,161,162
 1373 777 1373 777 1384 787 c 1,163,164
 1396 796 1396 796 1413 783 c 1,165,-1
 1466 733 l 2,166,167
 1491 710 1491 710 1537 666 c 128,-1,168
 1583 622 1583 622 1622.5 586 c 128,-1,169
 1662 550 1662 550 1698 522 c 1,133,134
EndSplineSet
Ligature2: "'liga' Ligature standard in Latin lookup 0 subtable" f i
EndChar

StartChar: varointctrclockwise
Encoding: 29 29 32
Width: 966
GlyphClass: 3
Flags: W
LayerCount: 2
Fore
SplineSet
657 1131 m 1,0,1
 661 1155 661 1155 666.5 1197.5 c 128,-1,2
 672 1240 672 1240 674 1252 c 0,3,4
 681 1299 681 1299 687.5 1337 c 128,-1,5
 694 1375 694 1375 706.5 1424.5 c 128,-1,6
 719 1474 719 1474 734 1513 c 128,-1,7
 749 1552 749 1552 772 1594 c 128,-1,8
 795 1636 795 1636 823 1665 c 128,-1,9
 851 1694 851 1694 890 1716.5 c 128,-1,10
 929 1739 929 1739 975 1748 c 1,11,12
 1012 1757 1012 1757 1057 1750 c 1,13,14
 1126 1744 1126 1744 1181.5 1704.5 c 128,-1,15
 1237 1665 1237 1665 1247 1605 c 0,16,17
 1255 1561 1255 1561 1233.5 1527 c 128,-1,18
 1212 1493 1212 1493 1167 1492 c 0,19,20
 1115 1490 1115 1490 1089 1536.5 c 128,-1,21
 1063 1583 1063 1583 1092 1627 c 0,22,23
 1108 1653 1108 1653 1153 1664 c 1,24,25
 1113 1696 1113 1696 1057.5 1705 c 128,-1,26
 1002 1714 1002 1714 956 1693 c 1,27,28
 921 1673 921 1673 896.5 1635.5 c 128,-1,29
 872 1598 872 1598 858.5 1538.5 c 128,-1,30
 845 1479 845 1479 839.5 1443 c 128,-1,31
 834 1407 834 1407 827 1338 c 0,32,33
 809 1174 809 1174 809 1115 c 1,34,35
 862 1106 862 1106 944 1062 c 1,36,37
 1113 964 1113 964 1174 773 c 128,-1,38
 1235 582 1235 582 1157 404 c 0,39,40
 1098 270 1098 270 977 189 c 128,-1,41
 856 108 856 108 707 97 c 1,42,43
 703 73 703 73 697.5 30.5 c 128,-1,44
 692 -12 692 -12 690 -24 c 0,45,46
 684 -70 684 -70 677 -108.5 c 128,-1,47
 670 -147 670 -147 657.5 -196.5 c 128,-1,48
 645 -246 645 -246 629.5 -285 c 128,-1,49
 614 -324 614 -324 590.5 -365.5 c 128,-1,50
 567 -407 567 -407 539 -436.5 c 128,-1,51
 511 -466 511 -466 472 -488.5 c 128,-1,52
 433 -511 433 -511 387 -519 c 0,53,54
 289 -534 289 -534 208.5 -493 c 128,-1,55
 128 -452 128 -452 115 -376 c 1,56,57
 106 -333 106 -333 128 -298.5 c 128,-1,58
 150 -264 150 -264 195 -263 c 0,59,60
 247 -261 247 -261 273 -307.5 c 128,-1,61
 299 -354 299 -354 270 -398 c 0,62,63
 254 -424 254 -424 209 -435 c 1,64,65
 249 -467 249 -467 305.5 -476 c 128,-1,66
 362 -485 362 -485 410 -462 c 1,67,68
 438 -446 438 -446 459 -414.5 c 128,-1,69
 480 -383 480 -383 492.5 -351.5 c 128,-1,70
 505 -320 505 -320 514.5 -270.5 c 128,-1,71
 524 -221 524 -221 528 -191 c 128,-1,72
 532 -161 532 -161 537 -110 c 0,73,74
 555 56 555 56 555 114 c 1,75,76
 428 136 428 136 326 236 c 128,-1,77
 224 336 224 336 184 468 c 0,78,79
 182 475 182 475 178 496 c 128,-1,80
 174 517 174 517 170 527 c 0,81,82
 165 537 165 537 156 547.5 c 128,-1,83
 147 558 147 558 135.5 570.5 c 128,-1,84
 124 583 124 583 119 589 c 2,85,-1
 -2 734 l 1,86,-1
 -10 742 l 1,87,88
 -17 751 -17 751 -19.5 754.5 c 128,-1,89
 -22 758 -22 758 -26 765.5 c 128,-1,90
 -30 773 -30 773 -29 778.5 c 128,-1,91
 -28 784 -28 784 -23 789 c 0,92,93
 -12 800 -12 800 5.5 787.5 c 128,-1,94
 23 775 23 775 31 765 c 1,95,96
 46 752 46 752 74 728.5 c 128,-1,97
 102 705 102 705 124.5 685.5 c 128,-1,98
 147 666 147 666 166 648 c 1,99,100
 166 707 166 707 190 781 c 1,101,102
 242 932 242 932 369 1025.5 c 128,-1,103
 496 1119 496 1119 657 1131 c 1,0,1
647 1047 m 1,104,105
 535 1044 535 1044 435 974 c 128,-1,106
 335 904 335 904 287 800 c 0,107,108
 275 775 275 775 267 746.5 c 128,-1,109
 259 718 259 718 255.5 693 c 128,-1,110
 252 668 252 668 246 638 c 1,111,112
 270 655 270 655 391 761 c 0,113,114
 392 762 392 762 398 768.5 c 128,-1,115
 404 775 404 775 407 777.5 c 128,-1,116
 410 780 410 780 416.5 785 c 128,-1,117
 423 790 423 790 427.5 791.5 c 128,-1,118
 432 793 432 793 437 792.5 c 128,-1,119
 442 792 442 792 446 787 c 0,120,121
 451 780 451 780 451.5 774.5 c 128,-1,122
 452 769 452 769 446.5 760 c 128,-1,123
 441 751 441 751 435.5 744.5 c 128,-1,124
 430 738 430 738 423 730.5 c 128,-1,125
 416 723 416 723 414 720 c 2,126,-1
 305 593 l 2,127,128
 302 589 302 589 283 568 c 128,-1,129
 264 547 264 547 258 533 c 0,130,131
 255 525 255 525 260 499 c 1,132,133
 295 386 295 386 373.5 308 c 128,-1,134
 452 230 452 230 561 196 c 1,135,136
 577 376 577 376 600.5 625 c 128,-1,137
 624 874 624 874 647 1047 c 1,104,105
805 1033 m 1,138,139
 801 1020 801 1020 800 1005 c 128,-1,140
 799 990 799 990 798.5 969.5 c 128,-1,141
 798 949 798 949 797 941 c 0,142,143
 760 428 760 428 717 181 c 1,144,145
 768 181 768 181 838 208 c 0,146,147
 918 238 918 238 980 296.5 c 128,-1,148
 1042 355 1042 355 1075.5 428.5 c 128,-1,149
 1109 502 1109 502 1117 586.5 c 128,-1,150
 1125 671 1125 671 1096 753 c 1,151,152
 1047 901 1047 901 913 984 c 1,153,154
 886 1002 886 1002 805 1033 c 1,138,139
EndSplineSet
Ligature2: "'liga' Ligature standard in Latin lookup 0 subtable" f l
EndChar

StartChar: dispvarointctrclockwise
Encoding: 30 30 33
Width: 1138
GlyphClass: 3
Flags: W
LayerCount: 2
Fore
SplineSet
1069 1288 m 1,0,1
 1087 1378 1087 1378 1108.5 1472 c 128,-1,2
 1130 1566 1130 1566 1163.5 1700.5 c 128,-1,3
 1197 1835 1197 1835 1208 1882 c 0,4,5
 1234 1984 1234 1984 1255 2071.5 c 128,-1,6
 1276 2159 1276 2159 1306.5 2259.5 c 128,-1,7
 1337 2360 1337 2360 1370 2443 c 0,8,9
 1387 2487 1387 2487 1399 2514 c 128,-1,10
 1411 2541 1411 2541 1432 2585 c 128,-1,11
 1453 2629 1453 2629 1473.5 2658 c 128,-1,12
 1494 2687 1494 2687 1521 2718.5 c 128,-1,13
 1548 2750 1548 2750 1581 2771 c 128,-1,14
 1614 2792 1614 2792 1651 2802 c 0,15,16
 1719 2819 1719 2819 1791 2795.5 c 128,-1,17
 1863 2772 1863 2772 1901 2716 c 1,18,19
 1923 2686 1923 2686 1931 2647.5 c 128,-1,20
 1939 2609 1939 2609 1925.5 2573.5 c 128,-1,21
 1912 2538 1912 2538 1874 2523 c 0,22,23
 1845 2511 1845 2511 1811 2518.5 c 128,-1,24
 1777 2526 1777 2526 1757 2550 c 1,25,26
 1734 2583 1734 2583 1734.5 2619.5 c 128,-1,27
 1735 2656 1735 2656 1763.5 2685 c 128,-1,28
 1792 2714 1792 2714 1835 2714 c 1,29,30
 1809 2740 1809 2740 1767.5 2755.5 c 128,-1,31
 1726 2771 1726 2771 1690 2761 c 0,32,33
 1654 2750 1654 2750 1616 2693 c 1,34,35
 1567 2622 1567 2622 1520 2474 c 1,36,37
 1480 2340 1480 2340 1442 2175 c 128,-1,38
 1404 2010 1404 2010 1383 1899.5 c 128,-1,39
 1362 1789 1362 1789 1327 1596 c 0,40,41
 1323 1573 1323 1573 1302.5 1445 c 128,-1,42
 1282 1317 1282 1317 1268 1249 c 1,43,44
 1428 1196 1428 1196 1550 1075 c 128,-1,45
 1672 954 1672 954 1732.5 793.5 c 128,-1,46
 1793 633 1793 633 1778 465 c 1,47,48
 1755 234 1755 234 1607 53.5 c 128,-1,49
 1459 -127 1459 -127 1237 -194 c 1,50,51
 1079 -240 1079 -240 977 -223 c 1,52,53
 959 -312 959 -312 937 -407.5 c 128,-1,54
 915 -503 915 -503 883 -633.5 c 128,-1,55
 851 -764 851 -764 838 -817 c 0,56,57
 812 -919 812 -919 791 -1006 c 128,-1,58
 770 -1093 770 -1093 739.5 -1194 c 128,-1,59
 709 -1295 709 -1295 676 -1378 c 0,60,61
 654 -1432 654 -1432 640.5 -1464 c 128,-1,62
 627 -1496 627 -1496 599 -1548 c 128,-1,63
 571 -1600 571 -1600 544.5 -1632 c 128,-1,64
 518 -1664 518 -1664 478.5 -1694.5 c 128,-1,65
 439 -1725 439 -1725 395 -1737 c 0,66,67
 327 -1754 327 -1754 255 -1730 c 128,-1,68
 183 -1706 183 -1706 145 -1650 c 1,69,70
 123 -1620 123 -1620 115 -1582 c 128,-1,71
 107 -1544 107 -1544 120.5 -1508.5 c 128,-1,72
 134 -1473 134 -1473 172 -1458 c 0,73,74
 201 -1446 201 -1446 235 -1453.5 c 128,-1,75
 269 -1461 269 -1461 289 -1485 c 1,76,77
 312 -1518 312 -1518 311.5 -1554.5 c 128,-1,78
 311 -1591 311 -1591 282.5 -1619.5 c 128,-1,79
 254 -1648 254 -1648 211 -1648 c 1,80,81
 237 -1674 237 -1674 278.5 -1690 c 128,-1,82
 320 -1706 320 -1706 356 -1696 c 1,83,84
 393 -1684 393 -1684 430 -1628 c 1,85,86
 480 -1555 480 -1555 526 -1409 c 1,87,88
 614 -1117 614 -1117 719 -530 c 0,89,90
 724 -504 724 -504 744 -377.5 c 128,-1,91
 764 -251 764 -251 778 -184 c 1,92,93
 604 -127 604 -127 478 5.5 c 128,-1,94
 352 138 352 138 295 324 c 0,95,96
 293 331 293 331 290 350 c 128,-1,97
 287 369 287 369 283.5 383 c 128,-1,98
 280 397 280 397 274 408 c 1,99,100
 270 419 270 419 242 449 c 1,101,-1
 178 522 l 1,102,-1
 6 717 l 2,103,104
 5 719 5 719 -3.5 727.5 c 128,-1,105
 -12 736 -12 736 -18 743 c 128,-1,106
 -24 750 -24 750 -29.5 759.5 c 128,-1,107
 -35 769 -35 769 -34 776.5 c 128,-1,108
 -33 784 -33 784 -25 789 c 0,109,110
 -11 797 -11 797 17 772.5 c 128,-1,111
 45 748 45 748 53 737 c 1,112,113
 75 717 75 717 149.5 646.5 c 128,-1,114
 224 576 224 576 266 541 c 1,115,116
 266 786 266 786 418.5 987.5 c 128,-1,117
 571 1189 571 1189 807 1260 c 1,118,119
 975 1307 975 1307 1069 1288 c 1,0,1
1051 1209 m 1,120,121
 895 1209 895 1209 772 1161 c 0,122,123
 579 1084 579 1084 463.5 908 c 128,-1,124
 348 732 348 732 348 522 c 1,125,126
 408 568 408 568 510 666 c 128,-1,127
 612 764 612 764 633 783 c 1,128,129
 651 797 651 797 662 785 c 0,130,131
 675 770 675 770 657 754 c 1,132,133
 647 740 647 740 602 690 c 2,134,-1
 440 506 l 2,135,136
 433 498 433 498 414 480 c 128,-1,137
 395 462 395 462 382 446.5 c 128,-1,138
 369 431 369 431 362 416 c 1,139,140
 360 406 360 406 360 401.5 c 128,-1,141
 360 397 360 397 363.5 385.5 c 128,-1,142
 367 374 367 374 367 371 c 0,143,144
 381 312 381 312 408 254 c 1,145,146
 463 130 463 130 566 32.5 c 128,-1,147
 669 -65 669 -65 793 -102 c 1,148,149
 801 -29 801 -29 850 230 c 0,150,151
 908 543 908 543 989 922 c 0,152,153
 995 947 995 947 1010 1010 c 128,-1,154
 1025 1073 1025 1073 1034.5 1119 c 128,-1,155
 1044 1165 1044 1165 1051 1209 c 1,120,121
995 -143 m 1,156,157
 1187 -143 1187 -143 1348 -57.5 c 128,-1,158
 1509 28 1509 28 1604 189 c 0,159,160
 1690 333 1690 333 1696.5 500.5 c 128,-1,161
 1703 668 1703 668 1632 820.5 c 128,-1,162
 1561 973 1561 973 1427 1073 c 1,163,164
 1336 1143 1336 1143 1253 1168 c 1,165,166
 1245 1091 1245 1091 1196 836 c 1,167,168
 1137 519 1137 519 1057 144 c 0,169,170
 1051 116 1051 116 1036.5 55 c 128,-1,171
 1022 -6 1022 -6 1012 -53 c 128,-1,172
 1002 -100 1002 -100 995 -143 c 1,156,157
EndSplineSet
Ligature2: "'liga' Ligature standard in Latin lookup 0 subtable" f f i
EndChar

StartChar: fint
Encoding: 31 31 34
Width: 966
GlyphClass: 3
Flags: W
LayerCount: 2
Fore
SplineSet
610 751 m 1,0,1
 629 920 629 920 662 1156 c 0,2,3
 665 1184 665 1184 669 1214.5 c 128,-1,4
 673 1245 673 1245 676.5 1273 c 128,-1,5
 680 1301 680 1301 685.5 1330.5 c 128,-1,6
 691 1360 691 1360 696.5 1388 c 128,-1,7
 702 1416 702 1416 710.5 1444.5 c 128,-1,8
 719 1473 719 1473 729 1500 c 0,9,10
 810 1709 810 1709 965 1746 c 1,11,12
 1030 1760 1030 1760 1100.5 1742.5 c 128,-1,13
 1171 1725 1171 1725 1210 1678 c 0,14,15
 1230 1655 1230 1655 1241 1624.5 c 128,-1,16
 1252 1594 1252 1594 1248 1561.5 c 128,-1,17
 1244 1529 1244 1529 1219 1510 c 1,18,19
 1193 1492 1193 1492 1159 1492.5 c 128,-1,20
 1125 1493 1125 1493 1102 1514 c 1,21,22
 1077 1539 1077 1539 1077.5 1579 c 128,-1,23
 1078 1619 1078 1619 1104 1641 c 1,24,25
 1121 1657 1121 1657 1153 1664 c 1,26,27
 1106 1701 1106 1701 1044 1706.5 c 128,-1,28
 982 1712 982 1712 934 1676 c 0,29,30
 909 1656 909 1656 890.5 1622 c 128,-1,31
 872 1588 872 1588 861.5 1558 c 128,-1,32
 851 1528 851 1528 843 1476.5 c 128,-1,33
 835 1425 835 1425 832.5 1397.5 c 128,-1,34
 830 1370 830 1370 825 1314 c 0,35,36
 815 1199 815 1199 799 982 c 0,37,38
 798 966 798 966 796.5 925.5 c 128,-1,39
 795 885 795 885 792.5 855.5 c 128,-1,40
 790 826 790 826 784 800 c 1,41,-1
 1085 882 l 1,42,-1
 1108 802 l 1,43,44
 1048 788 1048 788 868 736 c 1,45,-1
 807 720 l 2,46,47
 784 715 784 715 776 700 c 128,-1,48
 768 685 768 685 770.5 666.5 c 128,-1,49
 773 648 773 648 770 626 c 0,50,51
 717 162 717 162 690 -22 c 1,52,53
 673 -147 673 -147 646 -239.5 c 128,-1,54
 619 -332 619 -332 563 -405 c 1,55,56
 517 -468 517 -468 457 -497 c 0,57,58
 407 -522 407 -522 345 -524.5 c 128,-1,59
 283 -527 283 -527 225.5 -503 c 128,-1,60
 168 -479 168 -479 137 -431 c 0,61,62
 116 -399 116 -399 114.5 -359 c 128,-1,63
 113 -319 113 -319 136.5 -289.5 c 128,-1,64
 160 -260 160 -260 205 -263 c 0,65,66
 254 -266 254 -266 276 -311.5 c 128,-1,67
 298 -357 298 -357 270 -398 c 1,68,69
 254 -424 254 -424 209 -435 c 1,70,71
 256 -472 256 -472 319 -478 c 128,-1,72
 382 -484 382 -484 430 -448 c 1,73,74
 486 -397 486 -397 508 -298 c 1,75,76
 535 -189 535 -189 547 -34.5 c 128,-1,77
 559 120 559 120 563 232 c 1,78,79
 567 289 567 289 586 517 c 0,80,81
 587 534 587 534 593 584 c 128,-1,82
 599 634 599 634 600 662 c 1,83,-1
 276 574 l 1,84,-1
 254 654 l 1,85,86
 296 664 296 664 418.5 701.5 c 128,-1,87
 541 739 541 739 610 751 c 1,0,1
EndSplineSet
Ligature2: "'liga' Ligature standard in Latin lookup 0 subtable" f f l
EndChar

StartChar: dispfint
Encoding: 32 32 35
Width: 1138
GlyphClass: 2
Flags: W
LayerCount: 2
Fore
SplineSet
1714 2808 m 1,0,1
 1805 2808 1805 2808 1872.5 2747 c 128,-1,2
 1940 2686 1940 2686 1933 2605 c 0,3,4
 1929 2554 1929 2554 1884.5 2528.5 c 128,-1,5
 1840 2503 1840 2503 1792 2523 c 0,6,7
 1748 2542 1748 2542 1737 2588.5 c 128,-1,8
 1726 2635 1726 2635 1753.5 2674.5 c 128,-1,9
 1781 2714 1781 2714 1835 2714 c 1,10,11
 1806 2742 1806 2742 1762 2757 c 128,-1,12
 1718 2772 1718 2772 1683 2759 c 1,13,14
 1650 2745 1650 2745 1618 2695 c 1,15,16
 1595 2662 1595 2662 1575 2622 c 128,-1,17
 1555 2582 1555 2582 1542 2544 c 128,-1,18
 1529 2506 1529 2506 1516 2463 c 128,-1,19
 1503 2420 1503 2420 1493 2382 c 0,20,21
 1450 2230 1450 2230 1395 1948 c 0,22,23
 1359 1767 1359 1767 1297.5 1404 c 128,-1,24
 1236 1041 1236 1041 1200 860 c 1,25,26
 1247 879 1247 879 1299.5 896 c 128,-1,27
 1352 913 1352 913 1423 933.5 c 128,-1,28
 1494 954 1494 954 1524 963 c 0,29,30
 1547 970 1547 970 1592 986 c 128,-1,31
 1637 1002 1637 1002 1673.5 1013.5 c 128,-1,32
 1710 1025 1710 1025 1743 1030 c 1,33,34
 1745 1022 1745 1022 1759 977 c 0,35,36
 1765 960 1765 960 1761 955 c 1,37,38
 1758 949 1758 949 1731 942 c 1,39,-1
 1476 861 l 2,40,41
 1222 780 1222 780 1219 780 c 0,42,43
 1210 778 1210 778 1198.5 774 c 128,-1,44
 1187 770 1187 770 1184 762 c 0,45,46
 1179 751 1179 751 1174.5 726.5 c 128,-1,47
 1170 702 1170 702 1169 699 c 0,48,49
 1135 512 1135 512 1057 144 c 1,50,51
 986 -201 986 -201 872 -670 c 1,52,53
 780 -1061 780 -1061 733 -1212 c 0,54,55
 705 -1302 705 -1302 684 -1360.5 c 128,-1,56
 663 -1419 663 -1419 625 -1495.5 c 128,-1,57
 587 -1572 587 -1572 543 -1628 c 0,58,59
 489 -1695 489 -1695 419.5 -1725 c 128,-1,60
 350 -1755 350 -1755 272 -1734 c 0,61,62
 219 -1720 219 -1720 178 -1685.5 c 128,-1,63
 137 -1651 137 -1651 121 -1601 c 0,64,65
 103 -1544 103 -1544 129 -1496.5 c 128,-1,66
 155 -1449 155 -1449 215 -1450 c 0,67,68
 257 -1451 257 -1451 285 -1483 c 128,-1,69
 313 -1515 313 -1515 311.5 -1557.5 c 128,-1,70
 310 -1600 310 -1600 276 -1626 c 1,71,72
 251 -1648 251 -1648 211 -1648 c 1,73,74
 241 -1676 241 -1676 285.5 -1691.5 c 128,-1,75
 330 -1707 330 -1707 365 -1691 c 0,76,77
 404 -1674 404 -1674 440 -1614 c 1,78,79
 473 -1557 473 -1557 502.5 -1477.5 c 128,-1,80
 532 -1398 532 -1398 544 -1354.5 c 128,-1,81
 556 -1311 556 -1311 582 -1208 c 0,82,83
 656 -910 656 -910 752.5 -341 c 128,-1,84
 849 228 849 228 868 326 c 0,85,86
 871 342 871 342 898 482.5 c 128,-1,87
 925 623 925 623 942 694 c 1,88,-1
 303 494 l 1,89,90
 298 515 298 515 287 549 c 0,91,92
 281 566 281 566 285 572 c 1,93,94
 289 576 289 576 295.5 578.5 c 128,-1,95
 302 581 302 581 311 583 c 128,-1,96
 320 585 320 585 324 586 c 0,97,98
 327 586 327 586 566.5 661 c 128,-1,99
 806 736 806 736 815 740 c 0,100,101
 833 746 833 746 868.5 757 c 128,-1,102
 904 768 904 768 922 774 c 0,103,104
 924 775 924 775 934.5 777.5 c 128,-1,105
 945 780 945 780 951.5 783 c 128,-1,106
 958 786 958 786 961 791 c 0,107,108
 966 799 966 799 969.5 820 c 128,-1,109
 973 841 973 841 973 842 c 0,110,111
 998 985 998 985 1065 1274 c 1,112,-1
 1210 1886 l 1,113,114
 1294 2250 1294 2250 1368 2439 c 1,115,116
 1393 2500 1393 2500 1410 2537.5 c 128,-1,117
 1427 2575 1427 2575 1461 2633 c 128,-1,118
 1495 2691 1495 2691 1527.5 2724.5 c 128,-1,119
 1560 2758 1560 2758 1609.5 2783.5 c 128,-1,120
 1659 2809 1659 2809 1714 2808 c 1,0,1
EndSplineSet
EndChar

StartChar: varoiint
Encoding: 33 33 36
Width: 1650
GlyphClass: 2
Flags: W
LayerCount: 2
Fore
SplineSet
209 -437 m 1,0,1
 215 -440 215 -440 227 -446.5 c 128,-1,2
 239 -453 239 -453 247 -456.5 c 128,-1,3
 255 -460 255 -460 266.5 -465 c 128,-1,4
 278 -470 278 -470 287.5 -472.5 c 128,-1,5
 297 -475 297 -475 309 -477.5 c 128,-1,6
 321 -480 321 -480 333 -479.5 c 128,-1,7
 345 -479 345 -479 358 -476 c 1,8,9
 392 -472 392 -472 419 -455.5 c 128,-1,10
 446 -439 446 -439 464 -409 c 128,-1,11
 482 -379 482 -379 493.5 -352 c 128,-1,12
 505 -325 505 -325 513 -282 c 128,-1,13
 521 -239 521 -239 524.5 -215.5 c 128,-1,14
 528 -192 528 -192 532 -151 c 1,15,16
 541 -78 541 -78 541 -75 c 0,17,18
 544 -42 544 -42 548 23.5 c 128,-1,19
 552 89 552 89 555 122 c 0,20,21
 556 126 556 126 559 144 c 128,-1,22
 562 162 562 162 563 171.5 c 128,-1,23
 564 181 564 181 564 195.5 c 128,-1,24
 564 210 564 210 561 220 c 0,25,26
 559 227 559 227 554.5 234.5 c 128,-1,27
 550 242 550 242 542 251.5 c 128,-1,28
 534 261 534 261 532 263 c 0,29,30
 498 314 498 314 481 347 c 0,31,32
 406 499 406 499 422 675 c 1,33,34
 434 782 434 782 484 883.5 c 128,-1,35
 534 985 534 985 606 1052 c 1,36,37
 616 1059 616 1059 630 1070.5 c 128,-1,38
 644 1082 644 1082 649 1093 c 1,39,40
 655 1102 655 1102 658 1126.5 c 128,-1,41
 661 1151 661 1151 662 1156 c 0,42,43
 664 1174 664 1174 669 1212 c 128,-1,44
 674 1250 674 1250 676 1269 c 0,45,46
 733 1695 733 1695 965 1746 c 0,47,48
 1002 1755 1002 1755 1040 1752 c 0,49,50
 1097 1749 1097 1749 1148 1725 c 128,-1,51
 1199 1701 1199 1701 1227 1658 c 0,52,53
 1245 1629 1245 1629 1249 1595.5 c 128,-1,54
 1253 1562 1253 1562 1237.5 1532.5 c 128,-1,55
 1222 1503 1222 1503 1186 1494 c 0,56,57
 1128 1481 1128 1481 1093 1530.5 c 128,-1,58
 1058 1580 1058 1580 1092 1629 c 0,59,60
 1108 1653 1108 1653 1153 1664 c 1,61,62
 1113 1696 1113 1696 1059 1705 c 128,-1,63
 1005 1714 1005 1714 958 1693 c 1,64,65
 919 1673 919 1673 892 1630.5 c 128,-1,66
 865 1588 865 1588 852.5 1527 c 128,-1,67
 840 1466 840 1466 833.5 1413 c 128,-1,68
 827 1360 827 1360 822 1287.5 c 128,-1,69
 817 1215 817 1215 813 1181 c 1,70,71
 826 1184 826 1184 858 1193 c 128,-1,72
 890 1202 890 1202 914 1207 c 128,-1,73
 938 1212 938 1212 961 1215 c 0,74,75
 1059 1225 1059 1225 1160.5 1203 c 128,-1,76
 1262 1181 1262 1181 1339 1127 c 1,77,78
 1350 1193 1350 1193 1356 1252 c 1,79,80
 1362 1298 1362 1298 1369 1336 c 128,-1,81
 1376 1374 1376 1374 1388.5 1423.5 c 128,-1,82
 1401 1473 1401 1473 1416 1512.5 c 128,-1,83
 1431 1552 1431 1552 1454.5 1593.5 c 128,-1,84
 1478 1635 1478 1635 1506 1664.5 c 128,-1,85
 1534 1694 1534 1694 1573 1716.5 c 128,-1,86
 1612 1739 1612 1739 1657 1748 c 1,87,88
 1753 1763 1753 1763 1833 1723.5 c 128,-1,89
 1913 1684 1913 1684 1929 1609 c 0,90,91
 1939 1564 1939 1564 1917 1528.5 c 128,-1,92
 1895 1493 1895 1493 1849 1492 c 0,93,94
 1815 1491 1815 1491 1789.5 1514 c 128,-1,95
 1764 1537 1764 1537 1760.5 1568 c 128,-1,96
 1757 1599 1757 1599 1776 1629 c 0,97,98
 1785 1642 1785 1642 1808 1654 c 128,-1,99
 1831 1666 1831 1666 1837 1666 c 1,100,101
 1813 1676 1813 1676 1792.5 1687.5 c 128,-1,102
 1772 1699 1772 1699 1744 1704.5 c 128,-1,103
 1716 1710 1716 1710 1688 1705 c 1,104,105
 1658 1702 1658 1702 1633.5 1687 c 128,-1,106
 1609 1672 1609 1672 1592.5 1652.5 c 128,-1,107
 1576 1633 1576 1633 1562.5 1602 c 128,-1,108
 1549 1571 1549 1571 1541.5 1546.5 c 128,-1,109
 1534 1522 1534 1522 1527.5 1484 c 128,-1,110
 1521 1446 1521 1446 1518.5 1425.5 c 128,-1,111
 1516 1405 1516 1405 1513 1371 c 0,112,113
 1510 1328 1510 1328 1502 1237.5 c 128,-1,114
 1494 1147 1494 1147 1491 1101 c 0,115,116
 1490 1093 1490 1093 1487 1069.5 c 128,-1,117
 1484 1046 1484 1046 1484 1036.5 c 128,-1,118
 1484 1027 1484 1027 1487 1007 c 1,119,120
 1491 992 1491 992 1516 964 c 1,121,122
 1542 925 1542 925 1565 882 c 1,123,124
 1638 723 1638 723 1622.5 558.5 c 128,-1,125
 1607 394 1607 394 1516 265 c 1,126,127
 1486 225 1486 225 1442 179 c 1,128,129
 1432 172 1432 172 1417 159.5 c 128,-1,130
 1402 147 1402 147 1397 136 c 0,131,132
 1391 124 1391 124 1388 96.5 c 128,-1,133
 1385 69 1385 69 1384 64 c 0,134,135
 1382 46 1382 46 1377 8 c 128,-1,136
 1372 -30 1372 -30 1370 -50 c 0,137,138
 1313 -467 1313 -467 1079 -517 c 1,139,140
 1043 -526 1043 -526 1006 -523 c 1,141,142
 949 -520 949 -520 897.5 -496.5 c 128,-1,143
 846 -473 846 -473 819 -429 c 0,144,145
 801 -400 801 -400 797 -367 c 128,-1,146
 793 -334 793 -334 808.5 -304.5 c 128,-1,147
 824 -275 824 -275 860 -265 c 1,148,149
 918 -252 918 -252 953 -301.5 c 128,-1,150
 988 -351 988 -351 954 -400 c 0,151,152
 938 -424 938 -424 893 -435 c 1,153,154
 931 -467 931 -467 985 -476.5 c 128,-1,155
 1039 -486 1039 -486 1085 -464 c 0,156,157
 1118 -449 1118 -449 1142 -417.5 c 128,-1,158
 1166 -386 1166 -386 1179.5 -339.5 c 128,-1,159
 1193 -293 1193 -293 1199.5 -255.5 c 128,-1,160
 1206 -218 1206 -218 1212 -167 c 1,161,162
 1230 -47 1230 -47 1233 48 c 1,163,164
 1218 44 1218 44 1187.5 35.5 c 128,-1,165
 1157 27 1157 27 1132.5 21.5 c 128,-1,166
 1108 16 1108 16 1085 13 c 0,167,168
 986 4 986 4 885 26 c 128,-1,169
 784 48 784 48 707 101 c 1,170,171
 704 75 704 75 697 26 c 128,-1,172
 690 -23 690 -23 688 -36 c 0,173,174
 653 -278 653 -278 569 -396 c 1,175,176
 505 -489 505 -489 396.5 -515.5 c 128,-1,177
 288 -542 288 -542 190 -482 c 1,178,179
 124 -440 124 -440 115 -370 c 1,180,181
 110 -323 110 -323 137 -291 c 128,-1,182
 164 -259 164 -259 211 -263 c 1,183,184
 245 -268 245 -268 265 -293 c 128,-1,185
 285 -318 285 -318 286.5 -347 c 128,-1,186
 288 -376 288 -376 267.5 -402.5 c 128,-1,187
 247 -429 247 -429 209 -435 c 1,188,-1
 209 -437 l 1,0,1
1245 1086 m 1,189,190
 1058 1172 1058 1172 856 1109 c 0,191,192
 853 1108 853 1108 841 1104 c 128,-1,193
 829 1100 829 1100 821 1096 c 128,-1,194
 813 1092 813 1092 809 1086 c 0,195,196
 803 1077 803 1077 803 1029 c 1,197,198
 795 935 795 935 793 888 c 1,199,200
 775 636 775 636 725 247 c 0,201,202
 718 198 718 198 723 189 c 0,203,204
 737 167 737 167 805 140 c 1,205,206
 937 83 937 83 1075 95 c 0,207,208
 1124 100 1124 100 1196 122 c 0,209,210
 1232 134 1232 134 1237 142 c 0,211,212
 1243 153 1243 153 1243 196 c 1,213,214
 1290 739 1290 739 1321 980 c 1,215,-1
 1324 1000 l 2,216,217
 1327 1019 1327 1019 1326.5 1021 c 128,-1,218
 1326 1023 1326 1023 1323 1039 c 1,219,220
 1311 1057 1311 1057 1245 1086 c 1,189,190
635 959 m 1,221,222
 587 919 587 919 547 826 c 1,223,224
 496 711 496 711 502.5 587 c 128,-1,225
 509 463 509 463 571 353 c 1,226,-1
 573 353 l 1,227,228
 573 463 573 463 602 667.5 c 128,-1,229
 631 872 631 872 635 959 c 1,221,222
1477 873 m 1,230,231
 1472 830 1472 830 1458 687 c 1,232,-1
 1411 269 l 1,233,234
 1489 335 1489 335 1525 478.5 c 128,-1,235
 1561 622 1561 622 1528 748 c 0,236,237
 1523 769 1523 769 1515 788 c 128,-1,238
 1507 807 1507 807 1493.5 836 c 128,-1,239
 1480 865 1480 865 1477 873 c 1,230,231
EndSplineSet
EndChar

StartChar: dispvaroiint
Encoding: 34 34 37
Width: 1878
GlyphClass: 2
Flags: W
LayerCount: 2
Fore
SplineSet
211 -1650 m 1,0,1
 242 -1669 242 -1669 256 -1676.5 c 128,-1,2
 270 -1684 270 -1684 298 -1692.5 c 128,-1,3
 326 -1701 326 -1701 350 -1696 c 0,4,5
 390 -1687 390 -1687 426 -1634 c 1,6,7
 474 -1567 474 -1567 522 -1419 c 0,8,9
 566 -1284 566 -1284 635 -964 c 1,10,11
 698 -658 698 -658 745 -368 c 1,12,13
 750 -345 750 -345 757.5 -302.5 c 128,-1,14
 765 -260 765 -260 768 -244 c 0,15,16
 769 -240 769 -240 772 -226.5 c 128,-1,17
 775 -213 775 -213 775.5 -206.5 c 128,-1,18
 776 -200 776 -200 774 -188 c 1,19,20
 772 -184 772 -184 767.5 -179 c 128,-1,21
 763 -174 763 -174 755 -168 c 128,-1,22
 747 -162 747 -162 745 -160 c 0,23,24
 630 -55 630 -55 551 101 c 1,25,26
 482 232 482 232 458.5 383 c 128,-1,27
 435 534 435 534 459 680 c 1,28,29
 496 917 496 917 646.5 1112 c 128,-1,30
 797 1307 797 1307 1014 1399 c 1,31,32
 1043 1413 1043 1413 1073 1424 c 0,33,34
 1075 1425 1075 1425 1082.5 1427.5 c 128,-1,35
 1090 1430 1090 1430 1094.5 1432 c 128,-1,36
 1099 1434 1099 1434 1102 1438 c 0,37,38
 1108 1449 1108 1449 1112 1464 c 128,-1,39
 1116 1479 1116 1479 1119 1500 c 128,-1,40
 1122 1521 1122 1521 1124 1528 c 0,41,42
 1149 1642 1149 1642 1167 1708 c 0,43,44
 1174 1737 1174 1737 1209 1885.5 c 128,-1,45
 1244 2034 1244 2034 1259.5 2093.5 c 128,-1,46
 1275 2153 1275 2153 1307.5 2260.5 c 128,-1,47
 1340 2368 1340 2368 1374 2452 c 0,48,49
 1416 2556 1416 2556 1458.5 2631 c 128,-1,50
 1501 2706 1501 2706 1565 2757 c 128,-1,51
 1629 2808 1629 2808 1716.5 2807.5 c 128,-1,52
 1804 2807 1804 2807 1866 2753 c 0,53,54
 1896 2726 1896 2726 1915.5 2685 c 128,-1,55
 1935 2644 1935 2644 1930.5 2600 c 128,-1,56
 1926 2556 1926 2556 1888 2532 c 0,57,58
 1854 2511 1854 2511 1817 2517.5 c 128,-1,59
 1780 2524 1780 2524 1758.5 2550 c 128,-1,60
 1737 2576 1737 2576 1731.5 2610.5 c 128,-1,61
 1726 2645 1726 2645 1755 2679 c 0,62,63
 1765 2692 1765 2692 1780 2699.5 c 128,-1,64
 1795 2707 1795 2707 1803.5 2709.5 c 128,-1,65
 1812 2712 1812 2712 1835 2716 c 1,66,67
 1812 2728 1812 2728 1792 2740.5 c 128,-1,68
 1772 2753 1772 2753 1746 2759.5 c 128,-1,69
 1720 2766 1720 2766 1696 2761 c 1,70,71
 1658 2756 1658 2756 1620 2699 c 1,72,73
 1576 2640 1576 2640 1526 2491 c 0,74,75
 1488 2375 1488 2375 1452 2226.5 c 128,-1,76
 1416 2078 1416 2078 1401 2001 c 128,-1,77
 1386 1924 1386 1924 1349.5 1715.5 c 128,-1,78
 1313 1507 1313 1507 1307 1475 c 1,79,80
 1483 1498 1483 1498 1675 1436 c 0,81,82
 1705 1426 1705 1426 1757.5 1403.5 c 128,-1,83
 1810 1381 1810 1381 1829 1374 c 1,84,85
 1832 1399 1832 1399 1837.5 1425 c 128,-1,86
 1843 1451 1843 1451 1853 1488.5 c 128,-1,87
 1863 1526 1863 1526 1866 1538 c 0,88,89
 1883 1614 1883 1614 1937 1835 c 1,90,91
 1968 1972 1968 1972 2017.5 2157.5 c 128,-1,92
 2067 2343 2067 2343 2122 2472 c 0,93,94
 2141 2519 2141 2519 2155.5 2550 c 128,-1,95
 2170 2581 2170 2581 2195.5 2626 c 128,-1,96
 2221 2671 2221 2671 2245.5 2700.5 c 128,-1,97
 2270 2730 2270 2730 2306 2757.5 c 128,-1,98
 2342 2785 2342 2785 2382 2798 c 0,99,100
 2449 2819 2449 2819 2523 2796.5 c 128,-1,101
 2597 2774 2597 2774 2638 2718 c 0,102,103
 2659 2688 2659 2688 2667.5 2649.5 c 128,-1,104
 2676 2611 2676 2611 2662.5 2574.5 c 128,-1,105
 2649 2538 2649 2538 2611 2523 c 0,106,107
 2582 2511 2582 2511 2548 2518.5 c 128,-1,108
 2514 2526 2514 2526 2494 2550 c 1,109,110
 2471 2583 2471 2583 2470 2619.5 c 128,-1,111
 2469 2656 2469 2656 2498 2685 c 128,-1,112
 2527 2714 2527 2714 2574 2714 c 1,113,-1
 2574 2716 l 1,114,115
 2572 2717 2572 2717 2561.5 2723 c 128,-1,116
 2551 2729 2551 2729 2548.5 2731 c 128,-1,117
 2546 2733 2546 2733 2536 2738 c 128,-1,118
 2526 2743 2526 2743 2522 2745 c 128,-1,119
 2518 2747 2518 2747 2508.5 2751 c 128,-1,120
 2499 2755 2499 2755 2494 2756.5 c 128,-1,121
 2489 2758 2489 2758 2480 2760 c 128,-1,122
 2471 2762 2471 2762 2464.5 2762.5 c 128,-1,123
 2458 2763 2458 2763 2450 2762.5 c 128,-1,124
 2442 2762 2442 2762 2435 2761 c 0,125,126
 2395 2754 2395 2754 2355 2693 c 0,127,128
 2333 2661 2333 2661 2313 2616.5 c 128,-1,129
 2293 2572 2293 2572 2283 2543.5 c 128,-1,130
 2273 2515 2273 2515 2255 2460 c 0,131,132
 2208 2308 2208 2308 2140 1977 c 1,133,134
 2097 1757 2097 1757 2019 1319 c 0,135,136
 2018 1313 2018 1313 2014.5 1297.5 c 128,-1,137
 2011 1282 2011 1282 2010 1274 c 128,-1,138
 2009 1266 2009 1266 2011 1254 c 1,139,140
 2013 1249 2013 1249 2017.5 1244 c 128,-1,141
 2022 1239 2022 1239 2029 1233 c 128,-1,142
 2036 1227 2036 1227 2038 1225 c 0,143,144
 2139 1134 2139 1134 2216 1000 c 1,145,146
 2295 859 2295 859 2323.5 700.5 c 128,-1,147
 2352 542 2352 542 2327 385 c 0,148,149
 2290 149 2290 149 2139 -46.5 c 128,-1,150
 1988 -242 1988 -242 1772 -334 c 1,151,152
 1736 -351 1736 -351 1712 -358 c 1,153,154
 1687 -368 1687 -368 1683 -373 c 1,155,156
 1678 -383 1678 -383 1674.5 -397 c 128,-1,157
 1671 -411 1671 -411 1668 -428.5 c 128,-1,158
 1665 -446 1665 -446 1663 -454 c 0,159,160
 1656 -490 1656 -490 1622 -629 c 1,161,162
 1586 -789 1586 -789 1530.5 -1004 c 128,-1,163
 1475 -1219 1475 -1219 1417 -1374 c 1,164,165
 1373 -1487 1373 -1487 1326.5 -1568 c 128,-1,166
 1280 -1649 1280 -1649 1210 -1700 c 1,167,168
 1159 -1735 1159 -1735 1093 -1741 c 128,-1,169
 1027 -1747 1027 -1747 966.5 -1719 c 128,-1,170
 906 -1691 906 -1691 877 -1634 c 0,171,172
 860 -1602 860 -1602 856 -1565.5 c 128,-1,173
 852 -1529 852 -1529 868.5 -1496.5 c 128,-1,174
 885 -1464 885 -1464 924 -1454 c 0,175,176
 936 -1450 936 -1450 961 -1450 c 1,177,178
 998 -1452 998 -1452 1024.5 -1480 c 128,-1,179
 1051 -1508 1051 -1508 1052.5 -1543.5 c 128,-1,180
 1054 -1579 1054 -1579 1032 -1612 c 0,181,182
 1007 -1648 1007 -1648 950 -1648 c 1,183,-1
 950 -1650 l 1,184,185
 973 -1663 973 -1663 993 -1675.5 c 128,-1,186
 1013 -1688 1013 -1688 1039 -1694.5 c 128,-1,187
 1065 -1701 1065 -1701 1090 -1696 c 0,188,189
 1126 -1690 1126 -1690 1165 -1636 c 1,190,191
 1209 -1573 1209 -1573 1260 -1427 c 1,192,193
 1285 -1350 1285 -1350 1308.5 -1259 c 128,-1,194
 1332 -1168 1332 -1168 1348 -1089 c 128,-1,195
 1364 -1010 1364 -1010 1384 -917 c 1,196,197
 1465 -506 1465 -506 1479 -409 c 1,198,199
 1307 -433 1307 -433 1110 -370 c 0,200,201
 1081 -361 1081 -361 1030 -339 c 128,-1,202
 979 -317 979 -317 956 -309 c 1,203,204
 953 -337 953 -337 940 -390 c 128,-1,205
 927 -443 927 -443 924 -457 c 2,206,-1
 856 -739 l 2,207,208
 826 -860 826 -860 801.5 -963 c 128,-1,209
 777 -1066 777 -1066 741 -1185.5 c 128,-1,210
 705 -1305 705 -1305 666 -1403 c 1,211,212
 641 -1463 641 -1463 621.5 -1503 c 128,-1,213
 602 -1543 602 -1543 569 -1595 c 128,-1,214
 536 -1647 536 -1647 494.5 -1681.5 c 128,-1,215
 453 -1716 453 -1716 403 -1732 c 0,216,217
 337 -1754 337 -1754 263 -1731.5 c 128,-1,218
 189 -1709 189 -1709 147 -1653 c 0,219,220
 125 -1623 125 -1623 117 -1584 c 128,-1,221
 109 -1545 109 -1545 122.5 -1509 c 128,-1,222
 136 -1473 136 -1473 174 -1458 c 0,223,224
 203 -1446 203 -1446 237 -1453.5 c 128,-1,225
 271 -1461 271 -1461 291 -1485 c 1,226,227
 314 -1518 314 -1518 315 -1554.5 c 128,-1,228
 316 -1591 316 -1591 287 -1619.5 c 128,-1,229
 258 -1648 258 -1648 211 -1648 c 1,230,-1
 211 -1650 l 1,0,1
1354 1397 m 0,231,232
 1343 1396 1343 1396 1328.5 1395.5 c 128,-1,233
 1314 1395 1314 1395 1308.5 1394.5 c 128,-1,234
 1303 1394 1303 1394 1296.5 1390 c 128,-1,235
 1290 1386 1290 1386 1288 1377 c 128,-1,236
 1286 1368 1286 1368 1286 1352 c 1,237,-1
 1268 1249 l 1,238,239
 1185 740 1185 740 993 -151 c 0,240,241
 993 -153 993 -153 986.5 -174.5 c 128,-1,242
 980 -196 980 -196 979.5 -202 c 128,-1,243
 979 -208 979 -208 981 -223 c 1,244,245
 984 -229 984 -229 994 -235 c 128,-1,246
 1004 -241 1004 -241 1010 -244 c 0,247,248
 1036 -256 1036 -256 1090 -276 c 1,249,250
 1279 -350 1279 -350 1475 -327 c 0,251,252
 1485 -326 1485 -326 1490.5 -319.5 c 128,-1,253
 1496 -313 1496 -313 1496.5 -309 c 128,-1,254
 1497 -305 1497 -305 1499 -291 c 0,255,256
 1499 -289 1499 -289 1543.5 -35 c 128,-1,257
 1588 219 1588 219 1589 225 c 0,258,259
 1637 491 1637 491 1792 1217 c 0,260,261
 1793 1220 1793 1220 1797 1232.5 c 128,-1,262
 1801 1245 1801 1245 1802.5 1253 c 128,-1,263
 1804 1261 1804 1261 1806 1273 c 128,-1,264
 1808 1285 1808 1285 1804 1288 c 1,265,266
 1801 1295 1801 1295 1792.5 1300 c 128,-1,267
 1784 1305 1784 1305 1778 1307 c 0,268,269
 1687 1353 1687 1353 1572 1379.5 c 128,-1,270
 1457 1406 1457 1406 1354 1397 c 0,231,232
1079 1338 m 1,271,272
 955 1302 955 1302 817 1178 c 1,273,274
 607 987 607 987 548.5 706.5 c 128,-1,275
 490 426 490 426 608 168 c 1,276,277
 689 -5 689 -5 795 -90 c 1,278,279
 822 73 822 73 856 249 c 128,-1,280
 890 425 890 425 935 648 c 128,-1,281
 980 871 980 871 1001 981 c 1,282,-1
 1079 1338 l 1,271,272
1993 1155 m 1,283,284
 1900 638 1900 638 1774 33 c 1,285,-1
 1706 -272 l 1,286,287
 1824 -240 1824 -240 1970 -110 c 1,288,289
 2184 83 2184 83 2239 370 c 128,-1,290
 2294 657 2294 657 2169 916 c 0,291,292
 2111 1037 2111 1037 1993 1155 c 1,283,284
EndSplineSet
EndChar

StartChar: landupint
Encoding: 35 35 38
Width: 966
GlyphClass: 2
Flags: W
LayerCount: 2
Fore
SplineSet
303 656 m 1,0,1
 319 776 319 776 397 867.5 c 128,-1,2
 475 959 475 959 592 986 c 1,3,4
 630 992 630 992 635.5 999.5 c 128,-1,5
 641 1007 641 1007 647 1058 c 2,6,-1
 666 1199 l 2,7,8
 680 1298 680 1298 688.5 1346.5 c 128,-1,9
 697 1395 697 1395 721.5 1473.5 c 128,-1,10
 746 1552 746 1552 782 1609 c 0,11,12
 828 1681 828 1681 889 1717 c 1,13,14
 941 1746 941 1746 1006.5 1752 c 128,-1,15
 1072 1758 1072 1758 1134 1733 c 128,-1,16
 1196 1708 1196 1708 1227 1656 c 0,17,18
 1245 1627 1245 1627 1248.5 1593.5 c 128,-1,19
 1252 1560 1252 1560 1236 1531.5 c 128,-1,20
 1220 1503 1220 1503 1184 1494 c 0,21,22
 1174 1492 1174 1492 1151 1492 c 1,23,24
 1120 1497 1120 1497 1099.5 1520.5 c 128,-1,25
 1079 1544 1079 1544 1077.5 1572.5 c 128,-1,26
 1076 1601 1076 1601 1092 1629 c 1,27,28
 1108 1653 1108 1653 1153 1664 c 1,29,30
 1113 1696 1113 1696 1057.5 1705 c 128,-1,31
 1002 1714 1002 1714 956 1693 c 1,32,33
 903 1663 903 1663 877 1596 c 128,-1,34
 851 1529 851 1529 838 1435 c 0,35,36
 825 1348 825 1348 813 1168 c 1,37,38
 805 1078 805 1078 803 1033 c 0,39,40
 803 1031 803 1031 800.5 1007.5 c 128,-1,41
 798 984 798 984 801 982 c 1,42,43
 804 978 804 978 810 974.5 c 128,-1,44
 816 971 816 971 827.5 967.5 c 128,-1,45
 839 964 839 964 840 964 c 0,46,47
 886 941 886 941 926 910 c 1,48,49
 1038 816 1038 816 1061 656 c 1,50,-1
 1249 656 l 1,51,-1
 1249 574 l 1,52,-1
 1071 574 l 1,53,54
 1046 575 1046 575 1026 573 c 128,-1,55
 1006 571 1006 571 993.5 585.5 c 128,-1,56
 981 600 981 600 981 636 c 1,57,58
 968 730 968 730 921 790.5 c 128,-1,59
 874 851 874 851 793 894 c 1,60,61
 792 876 792 876 776 701 c 1,62,63
 764 556 764 556 737 339 c 0,64,65
 732 298 732 298 720 189.5 c 128,-1,66
 708 81 708 81 697.5 5 c 128,-1,67
 687 -71 687 -71 672 -142 c 0,68,69
 611 -417 611 -417 461 -495 c 0,70,71
 396 -529 396 -529 313.5 -522.5 c 128,-1,72
 231 -516 231 -516 172 -470 c 0,73,74
 145 -450 145 -450 127.5 -414.5 c 128,-1,75
 110 -379 110 -379 112.5 -340.5 c 128,-1,76
 115 -302 115 -302 145 -280 c 0,77,78
 171 -262 171 -262 204 -263.5 c 128,-1,79
 237 -265 237 -265 260 -286 c 1,80,81
 285 -311 285 -311 284.5 -350.5 c 128,-1,82
 284 -390 284 -390 258 -413 c 0,83,84
 240 -428 240 -428 209 -435 c 1,85,86
 258 -478 258 -478 338 -478 c 0,87,88
 476 -478 476 -478 518 -251 c 0,89,90
 535 -163 535 -163 544 -71 c 128,-1,91
 553 21 553 21 560.5 163.5 c 128,-1,92
 568 306 568 306 571 345 c 0,93,94
 578 439 578 439 600 627.5 c 128,-1,95
 622 816 622 816 629 910 c 1,96,97
 454 858 454 858 403 724 c 0,98,99
 398 710 398 710 390 654.5 c 128,-1,100
 382 599 382 599 365 578 c 1,101,102
 360 583 360 583 360 576 c 1,103,-1
 115 574 l 1,104,-1
 115 656 l 1,105,-1
 303 656 l 1,0,1
104 656 m 1,106,-1
 111 654 l 1,107,108
 104 654 104 654 104 656 c 1,106,-1
1253 656 m 1,109,-1
 1260 654 l 1,110,111
 1253 654 1253 654 1253 656 c 1,109,-1
100 652 m 1,112,-1
 100 654 l 1,113,-1
 100 652 l 1,112,-1
1264 652 m 1,114,-1
 1264 654 l 1,115,-1
 1264 652 l 1,114,-1
96 650 m 1,116,-1
 94 652 l 1,117,-1
 96 650 l 1,116,-1
1270 650 m 1,118,-1
 1268 652 l 1,119,-1
 1270 650 l 1,118,-1
82 640 m 1,120,-1
 88 648 l 1,121,-1
 82 640 l 1,120,-1
1282 640 m 1,122,-1
 1274 648 l 1,123,-1
 1282 640 l 1,122,-1
80 634 m 1,124,-1
 78 636 l 1,125,-1
 80 634 l 1,124,-1
1286 634 m 1,126,-1
 1284 636 l 1,127,-1
 1286 634 l 1,126,-1
78 630 m 1,128,-1
 76 632 l 1,129,-1
 78 630 l 1,128,-1
1288 630 m 1,130,-1
 1286 632 l 1,131,-1
 1288 630 l 1,130,-1
76 624 m 1,132,-1
 74 626 l 1,133,-1
 76 624 l 1,132,-1
1290 624 m 1,134,-1
 1288 626 l 1,135,-1
 1290 624 l 1,134,-1
EndSplineSet
EndChar

StartChar: displandupint
Encoding: 36 36 39
Width: 1138
GlyphClass: 2
Flags: W
LayerCount: 2
Fore
SplineSet
473 574 m 1,0,1
 474 696 474 696 539.5 807.5 c 128,-1,2
 605 919 605 919 717 993 c 128,-1,3
 829 1067 829 1067 961 1082 c 0,4,5
 965 1083 965 1083 980.5 1082.5 c 128,-1,6
 996 1082 996 1082 1008 1084 c 128,-1,7
 1020 1086 1020 1086 1024 1092 c 1,8,9
 1029 1103 1029 1103 1034 1133 c 1,10,11
 1129 1570 1129 1570 1260 2087 c 1,12,13
 1339 2389 1339 2389 1409 2534 c 1,14,15
 1578 2893 1578 2893 1819 2783 c 1,16,17
 1869 2758 1869 2758 1894 2724 c 1,18,19
 1919 2693 1919 2693 1929.5 2655 c 128,-1,20
 1940 2617 1940 2617 1929 2583 c 1,21,22
 1916 2536 1916 2536 1866.5 2520.5 c 128,-1,23
 1817 2505 1817 2505 1778 2532 c 1,24,25
 1741 2556 1741 2556 1734.5 2600 c 128,-1,26
 1728 2644 1728 2644 1755.5 2679 c 128,-1,27
 1783 2714 1783 2714 1835 2714 c 1,28,29
 1809 2737 1809 2737 1782 2749 c 1,30,31
 1722 2771 1722 2771 1688 2759 c 1,32,33
 1646 2747 1646 2747 1608 2681 c 1,34,35
 1561 2603 1561 2603 1513 2450 c 1,36,37
 1461 2280 1461 2280 1397 1962 c 1,38,39
 1293 1431 1293 1431 1241 1090 c 1,40,-1
 1238 1074 l 2,41,42
 1234 1058 1234 1058 1235 1051 c 0,43,44
 1237 1044 1237 1044 1245 1038.5 c 128,-1,45
 1253 1033 1253 1033 1267 1028 c 128,-1,46
 1281 1023 1281 1023 1282 1022 c 0,47,48
 1403 959 1403 959 1487.5 835 c 128,-1,49
 1572 711 1572 711 1573 574 c 1,50,-1
 1876 574 l 1,51,-1
 1876 492 l 1,52,-1
 1610 492 l 2,53,54
 1606 492 1606 492 1579 490 c 128,-1,55
 1552 488 1552 488 1535 490.5 c 128,-1,56
 1518 493 1518 493 1507 502 c 0,57,58
 1493 514 1493 514 1493 559 c 1,59,60
 1487 624 1487 624 1468 684 c 1,61,62
 1437 776 1437 776 1371 849.5 c 128,-1,63
 1305 923 1305 923 1219 961 c 1,64,65
 1172 716 1172 716 1117 443 c 128,-1,66
 1062 170 1062 170 1011 -75 c 128,-1,67
 960 -320 960 -320 895.5 -590.5 c 128,-1,68
 831 -861 831 -861 764 -1102 c 0,69,70
 736 -1204 736 -1204 715.5 -1269.5 c 128,-1,71
 695 -1335 695 -1335 658 -1423 c 128,-1,72
 621 -1511 621 -1511 578 -1579 c 0,73,74
 488 -1718 488 -1718 381 -1739 c 0,75,76
 315 -1751 315 -1751 247.5 -1726.5 c 128,-1,77
 180 -1702 180 -1702 143 -1648 c 0,78,79
 122 -1617 122 -1617 115 -1579.5 c 128,-1,80
 108 -1542 108 -1542 122 -1506.5 c 128,-1,81
 136 -1471 136 -1471 174 -1456 c 1,82,83
 218 -1440 218 -1440 253.5 -1458.5 c 128,-1,84
 289 -1477 289 -1477 303 -1510.5 c 128,-1,85
 317 -1544 317 -1544 306.5 -1582 c 128,-1,86
 296 -1620 296 -1620 258 -1638 c 0,87,88
 235 -1648 235 -1648 211 -1648 c 1,89,90
 243 -1677 243 -1677 288 -1692 c 128,-1,91
 333 -1707 333 -1707 367 -1691 c 1,92,93
 408 -1670 408 -1670 446 -1601 c 1,94,95
 482 -1538 482 -1538 512.5 -1452.5 c 128,-1,96
 543 -1367 543 -1367 557.5 -1308 c 128,-1,97
 572 -1249 572 -1249 594 -1149 c 0,98,99
 653 -883 653 -883 743 -375.5 c 128,-1,100
 833 132 833 132 848 213 c 0,101,102
 894 474 894 474 950 735 c 0,103,104
 956 760 956 760 969.5 818 c 128,-1,105
 983 876 983 876 992 920 c 128,-1,106
 1001 964 1001 964 1006 1004 c 1,107,108
 830 989 830 989 700 872 c 128,-1,109
 570 755 570 755 555 578 c 1,110,111
 556 561 556 561 554 536.5 c 128,-1,112
 552 512 552 512 539 502 c 0,113,114
 528 493 528 493 511 490.5 c 128,-1,115
 494 488 494 488 467 490 c 128,-1,116
 440 492 440 492 436 492 c 2,117,-1
 170 492 l 1,118,-1
 170 574 l 1,119,-1
 473 574 l 1,0,1
EndSplineSet
EndChar

StartChar: landdownint
Encoding: 37 37 40
Width: 966
GlyphClass: 2
Flags: W
LayerCount: 2
Fore
SplineSet
571 335 m 1,0,1
 573 411 573 411 581 501.5 c 128,-1,2
 589 592 589 592 599.5 668 c 128,-1,3
 610 744 610 744 621 832 c 1,4,5
 632 944 632 944 650 1097.5 c 128,-1,6
 668 1251 668 1251 690 1361 c 1,7,8
 749 1642 749 1642 893 1719 c 1,9,10
 960 1756 960 1756 1042 1752 c 128,-1,11
 1124 1748 1124 1748 1186 1701 c 0,12,13
 1213 1680 1213 1680 1232 1645 c 128,-1,14
 1251 1610 1251 1610 1249.5 1570.5 c 128,-1,15
 1248 1531 1248 1531 1217 1508 c 1,16,17
 1191 1491 1191 1491 1158 1492 c 128,-1,18
 1125 1493 1125 1493 1102 1514 c 1,19,20
 1077 1539 1077 1539 1077.5 1579 c 128,-1,21
 1078 1619 1078 1619 1104 1641 c 1,22,23
 1121 1657 1121 1657 1153 1664 c 1,24,25
 1104 1707 1104 1707 1024 1707 c 0,26,27
 989 1707 989 1707 960 1692 c 128,-1,28
 931 1677 931 1677 913 1655 c 128,-1,29
 895 1633 895 1633 881 1600 c 128,-1,30
 867 1567 867 1567 859.5 1540 c 128,-1,31
 852 1513 852 1513 846 1478 c 0,32,33
 829 1390 829 1390 820 1298 c 128,-1,34
 811 1206 811 1206 803.5 1064.5 c 128,-1,35
 796 923 796 923 793 884 c 0,36,37
 786 790 786 790 764 601 c 128,-1,38
 742 412 742 412 735 318 c 1,39,40
 838 349 838 349 905 415.5 c 128,-1,41
 972 482 972 482 979 591 c 0,42,43
 979 604 979 604 982 620.5 c 128,-1,44
 985 637 985 637 995 646 c 1,45,46
 1008 656 1008 656 1031.5 657 c 128,-1,47
 1055 658 1055 658 1069 656 c 1,48,-1
 1249 656 l 1,49,-1
 1249 574 l 1,50,-1
 1061 574 l 1,51,52
 1048 456 1048 456 970 364.5 c 128,-1,53
 892 273 892 273 772 243 c 1,54,55
 734 236 734 236 728.5 229 c 128,-1,56
 723 222 723 222 717 171 c 2,57,-1
 698 30 l 2,58,59
 685 -65 685 -65 675.5 -118.5 c 128,-1,60
 666 -172 666 -172 640.5 -249.5 c 128,-1,61
 615 -327 615 -327 578 -384 c 0,62,63
 522 -473 522 -473 428.5 -507 c 128,-1,64
 335 -541 335 -541 236 -505 c 1,65,66
 169 -482 169 -482 135 -427 c 0,67,68
 117 -399 117 -399 113.5 -365.5 c 128,-1,69
 110 -332 110 -332 126 -303 c 128,-1,70
 142 -274 142 -274 178 -265 c 0,71,72
 188 -263 188 -263 211 -263 c 1,73,74
 258 -270 258 -270 277 -315 c 128,-1,75
 296 -360 296 -360 270 -400 c 0,76,77
 254 -424 254 -424 209 -435 c 1,78,79
 249 -467 249 -467 305.5 -476 c 128,-1,80
 362 -485 362 -485 410 -462 c 1,81,82
 497 -410 497 -410 526 -206 c 0,83,84
 539 -120 539 -120 551 60 c 1,85,86
 559 150 559 150 561 196 c 0,87,88
 561 198 561 198 563.5 221 c 128,-1,89
 566 244 566 244 563 247 c 0,90,91
 560 251 560 251 554 254.5 c 128,-1,92
 548 258 548 258 536.5 261.5 c 128,-1,93
 525 265 525 265 524 265 c 0,94,95
 475 289 475 289 442 316 c 0,96,97
 383 364 383 364 347 431 c 128,-1,98
 311 498 311 498 303 574 c 1,99,-1
 115 574 l 1,100,-1
 115 656 l 1,101,-1
 295 656 l 1,102,103
 309 658 309 658 332.5 657 c 128,-1,104
 356 656 356 656 369 646 c 1,105,106
 379 637 379 637 381 622 c 128,-1,107
 383 607 383 607 383 595 c 1,108,109
 390 542 390 542 403 505 c 0,110,111
 441 404 441 404 571 335 c 1,0,1
104 656 m 1,112,-1
 111 654 l 1,113,114
 104 654 104 654 104 656 c 1,112,-1
1253 656 m 1,115,-1
 1260 654 l 1,116,117
 1253 654 1253 654 1253 656 c 1,115,-1
100 652 m 1,118,-1
 100 654 l 1,119,-1
 100 652 l 1,118,-1
1264 652 m 1,120,-1
 1264 654 l 1,121,-1
 1264 652 l 1,120,-1
96 650 m 1,122,-1
 94 652 l 1,123,-1
 96 650 l 1,122,-1
1270 650 m 1,124,-1
 1268 652 l 1,125,-1
 1270 650 l 1,124,-1
82 640 m 1,126,-1
 88 648 l 1,127,-1
 82 640 l 1,126,-1
1282 640 m 1,128,-1
 1274 648 l 1,129,-1
 1282 640 l 1,128,-1
80 634 m 1,130,-1
 78 636 l 1,131,-1
 80 634 l 1,130,-1
1286 634 m 1,132,-1
 1284 636 l 1,133,-1
 1286 634 l 1,132,-1
78 630 m 1,134,-1
 76 632 l 1,135,-1
 78 630 l 1,134,-1
1288 630 m 1,136,-1
 1286 632 l 1,137,-1
 1288 630 l 1,136,-1
76 624 m 1,138,-1
 74 626 l 1,139,-1
 76 624 l 1,138,-1
1290 624 m 1,140,-1
 1288 626 l 1,141,-1
 1290 624 l 1,140,-1
377 595 m 1,142,-1
 379 597 l 1,143,-1
 377 595 l 1,142,-1
373 589 m 1,144,-1
 375 591 l 1,145,-1
 373 589 l 1,144,-1
989 589 m 1,146,-1
 991 591 l 1,147,-1
 989 589 l 1,146,-1
365 581 m 1,148,-1
 369 585 l 1,149,-1
 365 581 l 1,148,-1
999 581 m 1,150,-1
 997 585 l 1,151,-1
 999 581 l 1,150,-1
360 578 m 1,152,-1
 362 581 l 1,153,-1
 360 578 l 1,152,-1
1001 578 m 1,154,-1
 1004 581 l 1,155,-1
 1001 578 l 1,154,-1
356 576 m 1,156,-1
 358 578 l 1,157,-1
 356 576 l 1,156,-1
1006 576 m 1,158,-1
 1008 578 l 1,159,-1
 1006 576 l 1,158,-1
352 574 m 1,160,-1
 352 576 l 1,161,-1
 352 574 l 1,160,-1
1012 574 m 1,162,-1
 1012 576 l 1,163,-1
 1012 574 l 1,162,-1
EndSplineSet
EndChar

StartChar: displanddownint
Encoding: 38 38 41
Width: 1138
GlyphClass: 2
Flags: W
LayerCount: 2
Fore
SplineSet
827 105 m 1,0,1
 1036 1161 1036 1161 1149 1632 c 0,2,3
 1251 2055 1251 2055 1282 2169 c 0,4,5
 1311 2273 1311 2273 1331 2337 c 128,-1,6
 1351 2401 1351 2401 1388 2489 c 128,-1,7
 1425 2577 1425 2577 1468 2644 c 1,8,9
 1555 2784 1555 2784 1665 2804 c 0,10,11
 1732 2816 1732 2816 1799.5 2792 c 128,-1,12
 1867 2768 1867 2768 1903 2714 c 0,13,14
 1924 2682 1924 2682 1931 2644.5 c 128,-1,15
 1938 2607 1938 2607 1924 2571.5 c 128,-1,16
 1910 2536 1910 2536 1872 2521 c 1,17,18
 1828 2505 1828 2505 1792.5 2523.5 c 128,-1,19
 1757 2542 1757 2542 1743 2575.5 c 128,-1,20
 1729 2609 1729 2609 1739.5 2647 c 128,-1,21
 1750 2685 1750 2685 1788 2704 c 1,22,23
 1811 2714 1811 2714 1835 2714 c 1,24,25
 1803 2742 1803 2742 1758.5 2757 c 128,-1,26
 1714 2772 1714 2772 1679 2757 c 1,27,28
 1642 2736 1642 2736 1599 2669 c 1,29,30
 1563 2606 1563 2606 1533 2520 c 128,-1,31
 1503 2434 1503 2434 1488.5 2374.5 c 128,-1,32
 1474 2315 1474 2315 1452 2214 c 0,33,34
 1393 1948 1393 1948 1302.5 1436 c 128,-1,35
 1212 924 1212 924 1198 852 c 1,36,37
 1152 591 1152 591 1096 330 c 0,38,39
 1090 304 1090 304 1076.5 247 c 128,-1,40
 1063 190 1063 190 1054 146 c 128,-1,41
 1045 102 1045 102 1040 62 c 1,42,43
 1215 76 1215 76 1345.5 193 c 128,-1,44
 1476 310 1476 310 1491 488 c 1,45,46
 1490 504 1490 504 1492 528.5 c 128,-1,47
 1494 553 1494 553 1507 563 c 0,48,49
 1523 576 1523 576 1557 576.5 c 128,-1,50
 1591 577 1591 577 1610 574 c 1,51,-1
 1876 574 l 1,52,-1
 1876 492 l 1,53,-1
 1573 492 l 1,54,55
 1571 305 1571 305 1429 155 c 128,-1,56
 1287 5 1287 5 1085 -16 c 0,57,58
 1081 -17 1081 -17 1065.5 -17 c 128,-1,59
 1050 -17 1050 -17 1038 -19 c 128,-1,60
 1026 -21 1026 -21 1022 -26 c 1,61,62
 1017 -37 1017 -37 1012 -67 c 1,63,64
 920 -492 920 -492 786 -1022 c 1,65,66
 755 -1135 755 -1135 742 -1181.5 c 128,-1,67
 729 -1228 729 -1228 699 -1315.5 c 128,-1,68
 669 -1403 669 -1403 637 -1468 c 1,69,70
 469 -1827 469 -1827 227 -1718 c 1,71,72
 179 -1694 179 -1694 152 -1659 c 0,73,74
 127 -1628 127 -1628 116.5 -1589.5 c 128,-1,75
 106 -1551 106 -1551 117 -1517 c 1,76,77
 130 -1470 130 -1470 179 -1454.5 c 128,-1,78
 228 -1439 228 -1439 268 -1466 c 0,79,80
 305 -1490 305 -1490 311.5 -1534 c 128,-1,81
 318 -1578 318 -1578 290 -1613 c 128,-1,82
 262 -1648 262 -1648 211 -1648 c 1,83,84
 237 -1672 237 -1672 264 -1683 c 0,85,86
 322 -1707 322 -1707 358 -1694 c 1,87,88
 399 -1681 399 -1681 438 -1616 c 0,89,90
 487 -1534 487 -1534 532 -1384 c 1,91,92
 585 -1216 585 -1216 649 -897 c 1,93,94
 752 -369 752 -369 805 -24 c 0,95,96
 806 -20 806 -20 808 -12 c 128,-1,97
 810 -4 810 -4 811 2.5 c 128,-1,98
 812 9 812 9 811 15 c 0,99,100
 809 21 809 21 801 26.5 c 128,-1,101
 793 32 793 32 779.5 37 c 128,-1,102
 766 42 766 42 764 43 c 0,103,104
 643 106 643 106 558.5 230 c 128,-1,105
 474 354 474 354 473 492 c 1,106,-1
 170 492 l 1,107,-1
 170 574 l 1,108,-1
 436 574 l 1,109,110
 455 577 455 577 489 576.5 c 128,-1,111
 523 576 523 576 539 563 c 0,112,113
 549 554 549 554 551 537 c 128,-1,114
 553 520 553 520 553 506 c 1,115,116
 560 433 560 433 578 383 c 1,117,118
 608 292 608 292 674.5 217.5 c 128,-1,119
 741 143 741 143 827 105 c 1,0,1
EndSplineSet
EndChar

